<?xml version="1.0" encoding="UTF-8"?>
<svg width="10px" height="18px" viewBox="0 0 10 18" version="1.1" xmlns="http://www.w3.org/2000/svg" xmlns:xlink="http://www.w3.org/1999/xlink">
    <!-- Generator: Sketch 45.2 (43514) - http://www.bohemiancoding.com/sketch -->
    <title>Fill 1</title>
    <desc>Created with Sketch.</desc>
    <defs></defs>
    <g id="Design" stroke="none" stroke-width="1" fill="none" fill-rule="evenodd">
        <g id="event" transform="translate(-1399.000000, -2959.000000)" fill="#FF6D00">
            <path d="M1400.27696,2959.00149 C1399.55021,2959.07218 1399.01902,2959.71832 1399.08971,2960.44507 C1399.12076,2960.76022 1399.26347,2961.05356 1399.49273,2961.27291 L1405.83064,2967.61082 L1399.49273,2973.94939 C1398.92388,2974.40724 1398.83469,2975.23903 1399.29254,2975.80788 C1399.75039,2976.37606 1400.58219,2976.46526 1401.15104,2976.00741 C1401.22437,2975.94794 1401.2911,2975.88122 1401.35056,2975.80788 L1408.61805,2968.54039 C1409.12743,2968.02506 1409.12743,2967.19657 1408.61805,2966.6819 L1401.35056,2959.41441 C1401.10347,2959.15344 1400.76057,2959.00413 1400.4005,2959.00149 C1400.35954,2958.9995 1400.31792,2958.9995 1400.27696,2959.00149" id="Fill-1"></path>
        </g>
    </g>
</svg>