<?xml version="1.0" encoding="UTF-8"?>
<svg width="10px" height="18px" viewBox="0 0 10 18" version="1.1" xmlns="http://www.w3.org/2000/svg" xmlns:xlink="http://www.w3.org/1999/xlink">
    <!-- Generator: Sketch 45.2 (43514) - http://www.bohemiancoding.com/sketch -->
    <title>Fill 1</title>
    <desc>Created with Sketch.</desc>
    <defs></defs>
    <g id="Design" stroke="none" stroke-width="1" fill="none" fill-rule="evenodd">
        <g id="event" transform="translate(-33.000000, -2960.000000)" fill="#FF6D00">
            <path d="M34.2769556,2960.00149 C33.550207,2960.07218 33.0190198,2960.71832 33.0897126,2961.44507 C33.1207646,2961.76022 33.2634716,2962.05356 33.4927278,2962.27291 L39.8306368,2968.61082 L33.4927278,2974.94939 C32.9238818,2975.40724 32.8346899,2976.23903 33.2925415,2976.80788 C33.7503932,2977.37606 34.5821901,2977.46526 35.1510361,2977.00741 C35.2243716,2976.94794 35.2911004,2976.88122 35.3505616,2976.80788 L42.6180482,2969.54039 C43.127433,2969.02506 43.127433,2968.19657 42.6180482,2967.6819 L35.3505616,2960.41441 C35.1034671,2960.15344 34.7605738,2960.00413 34.4005029,2960.00149 C34.3595407,2959.9995 34.3179178,2959.9995 34.2769556,2960.00149" id="Fill-1" transform="translate(38.000043, 2968.650000) scale(-1, 1) translate(-38.000043, -2968.650000) "></path>
        </g>
    </g>
</svg>