<svg width="22" height="22" viewBox="0 0 22 22" xmlns="http://www.w3.org/2000/svg"><title>Instagram</title><path d="M11 0c2.987 0 3.362.013 4.535.066 1.171.054 1.97.24 2.67.512a5.392 5.392 0 0 1 1.949 1.268 5.392 5.392 0 0 1 1.269 1.949c.271.7.457 1.499.51 2.67C21.988 7.638 22 8.013 22 11s-.013 3.362-.066 4.535c-.054 1.171-.24 1.97-.511 2.67a5.392 5.392 0 0 1-1.27 1.949 5.392 5.392 0 0 1-1.948 1.269c-.7.271-1.499.457-2.67.51-1.173.054-1.548.067-4.535.067s-3.362-.013-4.535-.066c-1.171-.054-1.97-.24-2.67-.511a5.392 5.392 0 0 1-1.949-1.27 5.392 5.392 0 0 1-1.268-1.948c-.272-.7-.458-1.499-.512-2.67C.013 14.362 0 13.987 0 11s.013-3.362.066-4.535c.054-1.171.24-1.97.512-2.67a5.392 5.392 0 0 1 1.268-1.949A5.392 5.392 0 0 1 3.795.578c.7-.272 1.499-.458 2.67-.512C7.638.013 8.013 0 11 0zm0 1.982c-2.937 0-3.285.011-4.445.064-1.072.049-1.655.228-2.042.379-.514.2-.88.438-1.265.823a3.408 3.408 0 0 0-.823 1.265c-.15.387-.33.97-.379 2.042-.053 1.16-.064 1.508-.064 4.445 0 2.937.011 3.285.064 4.445.049 1.072.228 1.655.379 2.042.2.514.438.88.823 1.265.385.385.751.624 1.265.823.387.15.97.33 2.042.379 1.16.053 1.508.064 4.445.064 2.937 0 3.285-.011 4.445-.064 1.072-.049 1.655-.228 2.042-.379.514-.2.88-.438 1.265-.823.385-.385.624-.751.823-1.265.15-.387.33-.97.379-2.042.053-1.16.064-1.508.064-4.445 0-2.937-.011-3.285-.064-4.445-.049-1.072-.228-1.655-.379-2.042-.2-.514-.438-.88-.823-1.265a3.408 3.408 0 0 0-1.265-.823c-.387-.15-.97-.33-2.042-.379-1.16-.053-1.508-.064-4.445-.064zm0 3.37a5.649 5.649 0 1 1 0 11.297A5.649 5.649 0 0 1 11 5.35zm0 9.315a3.667 3.667 0 1 0 0-7.334 3.667 3.667 0 0 0 0 7.334zm7.192-9.539a1.32 1.32 0 1 1-2.64 0 1.32 1.32 0 0 1 2.64 0z" fill="#FFF" fill-rule="evenodd"/></svg>