<?xml version="1.0" encoding="UTF-8"?>
<svg width="200px" height="68px" viewBox="0 0 200 68" version="1.1" xmlns="http://www.w3.org/2000/svg" xmlns:xlink="http://www.w3.org/1999/xlink">
    <!-- Generator: Sketch 44.1 (41455) - http://www.bohemiancoding.com/sketch -->
    <title>logo</title>
    <desc>Created with Sketch.</desc>
    <defs></defs>
    <g id="Assets" stroke="none" stroke-width="1" fill="none" fill-rule="evenodd">
        <path d="M133.182324,49.6231112 C135.25425,50.4306069 136.365378,52.0459614 136.365378,55.1757788 L136.365378,61.1320128 C136.365378,65.5251528 134.192506,67.6943224 129.799557,67.6943224 L122.324862,67.6943224 L122.324862,32.3593957 L129.698611,32.3593957 C134.091197,32.3593957 136.264433,34.5311057 136.264433,38.9217053 L136.264433,44.122341 C136.264433,47.2517955 135.202325,48.8671499 133.182324,49.6231112 Z M132.374033,61.3856935 L132.374033,54.4198176 C132.374033,52.4005337 131.415776,51.4402489 129.395774,51.4402489 L126.313665,51.4402489 L126.313665,64.0596841 L129.698611,64.0596841 C131.517084,64.0596841 132.374033,63.2031941 132.374033,61.3856935 Z M126.313665,35.9936711 L129.597665,35.9936711 C131.415776,35.9936711 132.273087,36.8530644 132.273087,38.6702021 L132.273087,44.8779393 C132.273087,46.8972232 131.31483,47.857871 129.294829,47.857871 L126.313665,47.857871 L126.313665,35.9936711 Z M143.840146,63.9587562 L151.012004,63.9587562 L151.012004,67.6942861 L139.79978,67.6942861 L139.79978,32.3593595 L150.911059,32.3593595 L150.911059,36.0948894 L143.840146,36.0948894 L143.840146,47.8055743 L150.656879,47.8055743 L150.656879,51.4917471 L143.840146,51.4917471 L143.840146,63.9587562 Z M158.132046,63.9587562 L165.303904,63.9587562 L165.303904,67.6942861 L154.09168,67.6942861 L154.09168,32.3593595 L165.202959,32.3593595 L165.202959,36.0948894 L158.132046,36.0948894 L158.132046,47.8055743 L164.951684,47.8055743 L164.951684,51.4917471 L158.132046,51.4917471 L158.132046,63.9587562 Z M179.344457,51.0363921 C181.566713,51.6421047 182.52497,53.0556759 182.52497,55.781201 L182.52497,67.694395 L178.487509,67.694395 L178.487509,55.9339901 C178.487509,53.8141776 177.526347,52.8535298 175.405037,52.8535298 L172.423511,52.8535298 L172.423511,67.694395 L168.38605,67.694395 L168.38605,32.3591054 L175.910128,32.3591054 C180.305256,32.3591054 182.47595,34.5311783 182.47595,38.9214149 L182.47595,45.4833616 C182.47595,48.6650764 181.364459,50.2288963 179.344457,51.0363921 Z M178.435221,46.2912203 L178.435221,38.7196317 C178.435221,36.902494 177.575367,36.0456412 175.757257,36.0456412 L172.423511,36.0456412 L172.423511,49.2711519 L175.456962,49.2711519 C177.474422,49.2711519 178.435221,48.3105041 178.435221,46.2912203 Z M196.617484,49.7237124 C199.19196,51.5927476 199.999888,53.2570962 199.999888,56.286022 L199.999888,61.4351232 C199.999888,65.8279002 197.829558,67.9974327 193.434067,67.9974327 L192.322939,67.9974327 C187.979373,67.9974327 185.858063,65.8279002 185.858063,61.5360148 L185.858063,54.1168524 L189.797846,54.1168524 L189.797846,61.6888039 C189.797846,63.5059416 190.6577,64.3627944 192.47581,64.3627944 L193.283738,64.3627944 C195.102211,64.3627944 195.959522,63.5059416 195.959522,61.6888039 L195.959522,56.3869136 C195.959522,54.6216734 195.353486,53.8631717 194.192974,53.0063189 L189.243372,49.4210376 C186.617334,47.5545429 185.858063,45.7377681 185.858063,42.8587281 L185.858063,38.6183772 C185.858063,34.2285035 188.031298,32.0560677 192.423885,32.0560677 L193.434067,32.0560677 C197.777633,32.0560677 199.898943,34.2285035 199.898943,38.5174856 L199.898943,44.877649 L195.959522,44.877649 L195.959522,38.3675999 C195.959522,36.5500992 195.102211,35.690706 193.283738,35.690706 L192.576755,35.690706 C190.758645,35.690706 189.898792,36.5500992 189.898792,38.3675999 L189.898792,42.809734 C189.898792,44.5749742 190.556754,45.3334758 191.716902,46.1906916 L196.617484,49.7237124 Z M70.122332,2.17026774 L70.122332,0.000372340426 L78.6072094,0.000372340426 L78.6072094,2.17026774 L70.122332,2.17026774 Z M82.062236,28.59182 L82.062236,28.5943605 L78.0189652,30.065273 L78.0218701,28.59182 C78.0218701,26.8781144 77.0933884,25.6285827 76.5530753,25.0446453 C76.3101522,24.7855208 76.1681748,24.446917 76.1572814,24.0923447 L75.7422424,7.89815288 L72.9738638,7.89815288 L72.5591879,24.0923447 C72.5479314,24.446917 72.405954,24.7855208 72.1630309,25.0446453 C71.6227178,25.6285827 70.6942361,26.8781144 70.6942361,28.59182 L70.6996828,32.7254726 L66.6538702,34.1989256 L66.6538702,28.59182 C66.6538702,26.7035501 68.1361002,24.7143886 68.7860737,23.9312084 C68.9825182,23.6938591 69.0972621,23.3991685 69.1136022,23.0935903 L70.1074444,4.11907262 L78.6086618,4.11907262 L79.602504,23.0935903 C79.6188441,23.3991685 79.733588,23.6938591 79.9300325,23.9312084 C80.580006,24.7143886 82.062236,26.7035501 82.062236,28.59182 Z M11.6681832,32.3592506 L15.6566239,32.3592506 L10.0519642,67.7954317 L5.60745283,67.7954317 L-0.000111702128,32.3592506 L4.09217945,32.3592506 L7.82970854,59.3666274 L11.6681832,32.3592506 Z M22.2225906,63.9587562 L29.3940858,63.9587562 L29.3940858,67.6942861 L18.1822247,67.6942861 L18.1822247,32.3593595 L29.2935033,32.3593595 L29.2935033,36.0948894 L22.2225906,36.0948894 L22.2225906,47.8055743 L29.0422286,47.8055743 L29.0422286,51.4917471 L22.2225906,51.4917471 L22.2225906,63.9587562 Z M43.8907821,32.3592506 L47.7292568,32.3592506 L47.7292568,67.6941772 L42.6787086,67.6941772 L36.3151414,40.0320936 L36.3151414,67.6941772 L32.4763036,67.6941772 L32.4763036,32.3592506 L38.032306,32.3592506 L43.8907821,57.8525275 L43.8907821,32.3592506 Z M49.8997325,32.3592506 L64.5462858,32.3592506 L64.5462858,36.0947805 L59.2419212,36.0947805 L59.2419212,67.6941772 L55.2015553,67.6941772 L55.2015553,36.0947805 L49.8997325,36.0947805 L49.8997325,32.3592506 Z M95.557029,51.0363921 C97.7789216,51.6421047 98.7375418,53.0556759 98.7375418,55.781201 L98.7375418,67.694395 L94.6968127,67.694395 L94.6968127,55.9339901 C94.6968127,53.8141776 93.7385557,52.8535298 91.6172456,52.8535298 L88.6360823,52.8535298 L88.6360823,67.694395 L84.5957164,67.694395 L84.5957164,32.3591054 L92.1223368,32.3591054 C96.515286,32.3591054 98.6881583,34.5311783 98.6881583,38.9214149 L98.6881583,45.4837245 C98.6881583,48.6654393 97.5770304,50.2288963 95.557029,51.0363921 Z M94.6477924,46.2912203 L94.6477924,38.7196317 C94.6477924,36.902494 93.7879392,36.0456412 91.9694659,36.0456412 L88.6360823,36.0456412 L88.6360823,49.2711519 L91.6666291,49.2711519 C93.6869936,49.2711519 94.6477924,48.3105041 94.6477924,46.2912203 Z M106.263908,63.9587562 L113.435766,63.9587562 L113.435766,67.6942861 L102.223542,67.6942861 L102.223542,32.3593595 L113.334821,32.3593595 L113.334821,36.0948894 L106.263908,36.0948894 L106.263908,47.8055743 L113.080641,47.8055743 L113.080641,51.4917471 L106.263908,51.4917471 L106.263908,63.9587562 Z M82.062236,32.528988 L82.062236,61.4329819 C82.062236,65.825759 79.8893638,67.9952915 75.4964145,67.9952915 L73.23349,68.0003723 C68.837999,68.0003723 66.6676685,65.8286623 66.6676685,61.4384257 L66.6676685,38.1197622 L70.7080344,36.6492125 L70.7080344,61.6402089 C70.7080344,63.4577096 71.5544524,64.3141995 73.383456,64.3141995 L75.3435436,64.3112961 C77.1616538,64.3112961 78.0218701,63.4519028 78.0218701,61.6347651 L78.0218701,33.9999005 L82.062236,32.528988 Z" id="logo" fill="#ffffff"></path>
    </g>
</svg>