<?xml version="1.0" encoding="UTF-8"?>
<svg width="136px" height="65px" viewBox="0 0 136 65" version="1.1" xmlns="http://www.w3.org/2000/svg" xmlns:xlink="http://www.w3.org/1999/xlink">
    <!-- Generator: Sketch 45.2 (43514) - http://www.bohemiancoding.com/sketch -->
    <title>leo</title>
    <desc>Created with Sketch.</desc>
    <defs>
        <polygon id="path-1" points="6.50331121e-05 64.2172357 128.329691 64.2172357 128.329691 0.0480162377 6.50331121e-05 0.0480162377"></polygon>
        <polygon id="path-3" points="0 64.4952931 135.033607 64.4952931 135.033607 0.325975816 0 0.325975816"></polygon>
    </defs>
    <g id="Design" stroke="none" stroke-width="1" fill="none" fill-rule="evenodd">
        <g id="event" transform="translate(-652.000000, -3651.000000)">
            <g id="sponsors" transform="translate(234.000000, 3488.000000)">
                <g id="Group-3" transform="translate(126.301018, 152.377935)">
                    <g id="leo" transform="translate(292.000000, 11.000000)">
                        <path d="M102.932734,30.0322497 L102.512617,29.9054451 C102.294429,29.839598 102.099328,29.7926575 101.915608,29.7626677 L101.541664,29.7013843 L101.531584,28.7690934 L101.833665,28.6602175 C102.101279,28.5637287 102.37377,28.4212772 102.665446,28.2256917 L103.702082,27.5281035 L103.344397,28.7276945 C103.259854,29.0106415 103.167506,29.3069535 103.068004,29.6136968 L102.932734,30.0322497 Z" id="Fill-1" fill="#FEFEFE"></path>
                        <g id="Group-5" transform="translate(0.000000, 0.278057)">
                            <mask id="mask-2" fill="white">
                                <use xlink:href="#path-1"></use>
                            </mask>
                            <g id="Clip-4"></g>
                            <path d="M102.932734,29.7541923 L102.512617,29.6273877 C102.294429,29.5615406 102.099328,29.5146001 101.915608,29.4846103 L101.541664,29.4233269 L101.531584,28.4910361 L101.833665,28.3821601 C102.101279,28.2856713 102.37377,28.1432199 102.665446,27.9476344 L103.702082,27.2500461 L103.344397,28.4496371 C103.259854,28.7325841 103.167506,29.0288961 103.068004,29.3356394 L102.932734,29.7541923 Z M22.1108577,59.5421884 L22.2822214,59.7693935 C23.956838,61.9915707 26.600131,63.3186182 29.3530056,63.3186182 C31.2497122,63.3186182 33.1363386,62.6845952 34.6649546,61.5342266 L34.8941983,61.3624373 L35.1465289,61.4983692 C36.4338701,62.1933497 37.8870471,62.5603984 39.3499792,62.5603984 C42.7232749,62.5603984 45.8562713,60.5882448 47.3315598,57.5367852 L47.4577251,57.2747006 L47.7481004,57.283176 C47.8323189,57.2857838 47.9168627,57.2867617 48.0014065,57.2867617 C52.8041419,57.2867617 56.7793242,53.3717922 56.8628924,48.5590852 L56.8677699,48.2741823 L57.126929,48.157157 C58.0452043,47.7428418 58.8854391,47.1727101 59.6245466,46.4630607 L60.0384858,46.0653702 L60.3236584,46.5637872 C61.240633,48.1675883 63.0173524,48.9808979 65.6043913,48.9808979 C66.0456446,48.9808979 66.427067,48.9567757 66.6696425,48.9368912 L78.8540231,48.9352613 C79.5189923,48.9352613 81.0762232,48.9352613 82.4253464,48.0313304 L82.6675967,47.8696464 L82.9134239,48.0254628 C84.44204,48.9913291 86.4154863,48.9913291 87.2579973,48.9913291 L100.031908,48.9913291 C101.761803,48.9913291 103.130762,48.4961719 104.102039,47.5198743 L104.387862,47.2323636 L104.70165,47.4882547 C105.831284,48.4081584 107.209347,48.92646 108.687562,48.9880694 C110.326736,49.0565243 112.172066,49.0910777 114.173151,49.0910777 C116.456158,49.0910777 118.5187,49.047071 119.883757,49.0180592 L120.040488,49.0144734 C120.647252,49.0014344 121.10769,48.9913291 121.37823,48.9913291 C122.133596,48.9913291 123.588399,48.7465213 124.842573,47.1049071 C126.751636,44.6066284 128.118643,38.9568156 127.090136,35.136705 C126.910643,34.4684546 126.678148,33.6962179 126.432971,32.8780186 C125.423649,29.5194898 124.309622,25.4731519 124.649748,23.9876802 L124.666657,23.9143356 L124.706002,23.8507703 C125.284477,22.9181535 127.044938,20.0798821 125.64899,17.5535695 C124.894925,16.1896867 123.481093,15.4073447 121.770383,15.4073447 L107.091311,15.4073447 C105.790313,15.4073447 104.628487,15.9491165 103.819143,16.9325856 L103.509908,17.3081097 L103.161653,16.9697468 C101.936744,15.781239 100.278386,15.6286823 98.9708839,15.6286823 L85.0169376,15.6286823 C83.5250655,15.6286823 82.2302454,16.3109497 81.4641489,17.5004354 C80.0438139,19.7059878 81.2267761,22.3307451 81.6153522,23.1929511 C81.7698071,23.5355517 81.9405205,23.8612015 82.1216392,24.206084 C82.8155483,25.5285678 83.7640642,27.3364297 83.6232663,30.6812676 L83.5861971,31.5708556 L82.8945642,31.012459 C82.1092828,30.378436 81.1328025,30.0436589 80.0704777,30.0436589 C79.0088032,30.0436589 77.36963,30.3986465 75.5883581,32.0894831 C75.2586375,32.4030718 74.9097319,32.6915604 74.5530223,32.9461475 L73.8766723,33.4289177 L73.845131,32.5976794 C73.7573355,30.310959 74.902253,27.0655438 75.7704524,24.8231562 L75.8153256,24.7005893 C75.8647512,24.5600937 76.3268153,23.2539086 77.0568181,21.5940397 C77.9646879,19.5306128 77.4996973,18.0891478 76.9498377,17.2432405 C76.1574026,16.0250689 74.8466493,15.4073447 73.053021,15.4073447 C72.6501375,15.4073447 72.2352228,15.4314669 71.7955953,15.4565671 C71.4187253,15.4784075 71.0242961,15.5008998 70.5983257,15.5106791 C70.1944667,15.5198064 69.7200462,15.5136128 69.215385,15.5083972 C68.8352633,15.5041595 68.4499389,15.4995959 68.0607124,15.4995959 C65.5816295,15.4995959 62.794287,15.6368317 61.0894297,17.2738823 L60.5785903,17.7644759 L60.3542242,17.0916618 C59.3179129,13.9812005 56.6827492,11.7013257 53.4765899,11.1422772 L53.1777603,11.090121 L53.1150028,10.7928311 C52.251681,6.71454765 48.6052439,3.75468724 44.4443906,3.75468724 C43.6860982,3.75468724 42.9336588,3.85019815 42.2082084,4.0382862 L41.9444969,4.10641515 L41.7627278,3.90365819 C40.0757548,2.02440761 37.6721109,0.946405586 35.16799,0.946405586 C33.2160048,0.946405586 31.2835297,1.61726382 29.7253233,2.83543544 L29.4905518,3.01895982 L29.2307424,2.87292266 C27.9079578,2.12937182 26.4147851,1.73657096 24.9121824,1.73657096 C21.5476662,1.73657096 18.4185719,3.70090123 16.9397066,6.74095169 L16.8161426,6.99521283 L16.4360209,6.992931 C11.5490668,6.992931 7.57323426,10.9786373 7.57323426,15.8777278 L7.57583561,16.2213063 L7.33846276,16.3500668 C4.46560102,17.9095351 2.68042716,20.9059048 2.68042716,24.1695747 C2.68042716,25.3773151 2.91747484,26.5475682 3.38474165,27.6483886 L3.49887572,27.9173186 L3.29987273,28.1311588 C1.75012071,29.7952653 0.89655398,31.9480096 0.89655398,34.1923531 C0.89655398,36.9885736 2.16958779,39.5637826 4.38918647,41.2585308 L4.62135662,41.4355357 L4.55372162,41.7201126 C4.3950395,42.388689 4.31439777,43.0748681 4.31439777,43.7600692 C4.31439777,47.8373747 7.06857309,51.3810578 11.0118888,52.3775659 L11.2834043,52.4460208 L11.3409591,52.7214704 C12.1942007,56.8147487 15.8429139,59.7863443 20.016774,59.7863443 C20.629391,59.7863443 21.2403822,59.7237569 21.833164,59.6002121 L22.1108577,59.5421884 Z M29.3530056,64.2173335 C26.4141347,64.2173335 23.5890727,62.8456273 21.7395155,60.5331549 C21.1740479,60.6338814 20.5958987,60.6847336 20.016774,60.6847336 C15.5138436,60.6847336 11.5656504,57.5439566 10.5241364,53.1768586 C6.32621391,51.9890027 3.41790882,48.1561791 3.41790882,43.7600692 C3.41790882,43.1012721 3.48554382,42.441823 3.61886282,41.795087 C1.31537072,39.9292015 6.50331121e-05,37.1747058 6.50331121e-05,34.1923531 C6.50331121e-05,31.8150114 0.868264339,29.5322028 2.45053319,27.7321644 C2.00830433,26.5977685 1.78426338,25.4011113 1.78426338,24.1695747 C1.78426338,20.6650087 3.65268032,17.4404559 6.67837116,15.6906177 C6.77754748,10.4401252 11.021969,6.18874866 16.2610804,6.09584555 C17.9363473,2.89248121 21.3011887,0.83785564 24.9121824,0.83785564 C26.4703888,0.83785564 28.0188402,1.22087722 29.4095849,1.94845524 C31.0816002,0.720830322 33.1148774,0.0480162377 35.16799,0.0480162377 C37.836646,0.0480162377 40.4005979,1.15828987 42.2459279,3.10403951 C42.962924,2.93942172 43.7013811,2.85597192 44.4443906,2.85597192 C48.9255347,2.85597192 52.8649484,5.97425657 53.924997,10.3129947 C57.1096951,10.9698359 59.7458344,13.1770182 60.9772466,16.1922945 C63.2228588,14.4968943 66.5340474,14.5806701 69.2140843,14.6096819 C69.7245985,14.6148975 70.183411,14.6210911 70.5778401,14.6122897 C70.9927548,14.6028364 71.3767786,14.5803441 71.7227576,14.5604596 C72.1971781,14.5334036 72.6247744,14.5086294 73.053021,14.5086294 C75.168891,14.5086294 76.7326253,15.2635894 77.7006513,16.7526469 C78.3717986,17.7843604 78.9466961,19.5250712 77.8772176,21.9565248 C77.1605467,23.585752 76.7092132,24.8616213 76.6597876,25.0014649 L76.6097117,25.1403306 C75.8842613,27.0124098 74.9637099,29.5882706 74.7718606,31.6213818 C74.8394956,31.5610763 74.9061551,31.4994669 74.9721642,31.4375315 C76.9670716,29.542634 78.8458939,29.1449435 80.0704777,29.1449435 C81.0355771,29.1449435 81.9437721,29.3786682 82.7394589,29.826233 C82.7040156,27.2467864 81.9483245,25.8059733 81.3295293,24.6272447 C81.1406065,24.2673674 80.9637149,23.9296565 80.7985295,23.5626077 C80.3602026,22.5902218 79.025712,19.6297095 80.7113844,17.0131016 C81.6452677,15.5621832 83.2148549,14.729967 85.0169376,14.729967 L98.9708839,14.729967 C100.332689,14.729967 102.039497,14.8844795 103.438371,16.0162676 C104.391764,15.053009 105.698941,14.5086294 107.091311,14.5086294 L121.770383,14.5086294 C123.816992,14.5086294 125.516322,15.4598268 126.433296,17.1180658 C128.049382,20.0433728 126.195923,23.1486184 125.510143,24.2566102 C125.240579,25.7913043 126.779926,30.9172741 127.29109,32.6191938 C127.538218,33.4429347 127.772664,34.2220169 127.955734,34.9023284 C129.049925,38.9678988 127.590245,44.9863903 125.554041,47.6515685 C124.065746,49.5989481 122.299107,49.8900445 121.37823,49.8900445 C121.111267,49.8900445 120.657657,49.9001497 120.059673,49.9128628 L119.930581,49.9157966 C118.533983,49.9454604 116.465588,49.9897931 114.173151,49.9897931 C112.160035,49.9897931 110.302023,49.9549136 108.650493,49.8861328 C107.110821,49.8219155 105.665774,49.3186089 104.446718,48.4254351 C103.329765,49.397495 101.846672,49.8900445 100.031908,49.8900445 L87.2579973,49.8900445 C86.3806933,49.8900445 84.3799329,49.8900445 82.6809286,48.9320015 C81.16662,49.8339766 79.5014332,49.8339766 78.8540231,49.8339766 L66.7070369,49.8339766 C66.4846218,49.8538611 66.0762104,49.8796132 65.6043913,49.8796132 C62.3774213,49.8796132 60.7070318,48.6617676 59.845661,47.4745637 C59.2050795,48.0274187 58.502716,48.4903043 57.7502766,48.8570271 C57.5109528,54.0237438 53.1998717,58.1818913 48.0088853,58.185477 C46.3362197,61.3982947 42.9691022,63.4587878 39.3499792,63.4587878 C37.8340447,63.4587878 36.3272149,63.1008664 34.9735393,62.4205548 C33.3333905,63.5810287 31.3485634,64.2173335 29.3530056,64.2173335 L29.3530056,64.2173335 Z" id="Fill-3" fill="#FEFEFE" mask="url(#mask-2)"></path>
                        </g>
                        <path d="M61.1187599,30.1159929 C61.1187599,27.0713788 58.6565857,24.6024379 55.6191888,24.6024379 C55.5122084,24.6024379 55.4075042,24.6125432 55.3021497,24.6187367 C56.8587303,23.645047 57.8979681,21.9177011 57.8979681,19.9426137 C57.8979681,16.8979995 55.4354687,14.4293847 52.398397,14.4293847 C51.4768701,14.4293847 50.6102966,14.6591976 49.8474518,15.0607998 C50.1914798,14.3407193 50.3895073,13.5378408 50.3895073,12.686392 C50.3895073,9.6414519 47.9273331,7.17316302 44.8899362,7.17316302 C43.372701,7.17316302 41.9991902,7.78925732 41.0041753,8.78543941 C40.4978883,6.26434245 38.2773141,4.36488137 35.6132104,4.36488137 C33.110065,4.36488137 31.0013487,6.04333085 30.3357292,8.33722266 C29.4590755,6.45927599 27.5623689,5.15504675 25.3574028,5.15504675 C22.3200059,5.15504675 19.8578317,7.6236616 19.8578317,10.6682757 C19.8578317,10.8886354 19.8740901,11.1050833 19.8994533,11.3182715 C19.0325546,10.7465099 17.9965685,10.4114068 16.8815665,10.4114068 C13.8441696,10.4114068 11.3816702,12.8800216 11.3816702,15.9246358 C11.3816702,16.9426582 11.6619652,17.8928777 12.1419136,18.711403 C12.090537,18.7100991 12.0404611,18.7035796 11.9887594,18.7035796 C8.95136247,18.7035796 6.48918825,21.1721944 6.48918825,24.2168086 C6.48918825,26.1667959 7.50143711,27.876539 9.02550083,28.8567483 C6.55552258,29.3981942 4.7049899,31.6014647 4.7049899,34.239587 C4.7049899,37.1883642 7.01628603,39.5895021 9.92036394,39.738799 C8.81869381,40.7470422 8.12315886,42.1937229 8.12315886,43.8073031 C8.12315886,46.8519173 10.5853331,49.3205321 13.62273,49.3205321 C14.208358,49.3205321 14.7721998,49.2266511 15.301899,49.0564917 C15.0863124,49.6474859 14.9627484,50.2824867 14.9627484,50.9481294 C14.9627484,53.9930695 17.4249227,56.4616843 20.4623196,56.4616843 C21.9652473,56.4616843 23.3257514,55.8553693 24.3188154,54.875812 C24.5217204,57.7352718 26.8944733,59.9939583 29.798226,59.9939583 C32.1771572,59.9939583 34.1971025,58.4768668 34.9638493,56.3573721 C35.8961068,58.0723308 37.7098954,59.2357385 39.7951996,59.2357385 C42.8325965,59.2357385 45.2947707,56.7671237 45.2947707,53.7228355 C45.2947707,53.44706 45.2681069,53.1787819 45.2290867,52.9137635 C46.1343552,53.5709308 47.2438294,53.9624277 48.4466269,53.9624277 C51.4840238,53.9624277 53.946198,51.4938129 53.946198,48.4491988 C53.946198,47.3803241 53.6376133,46.3854459 53.1124665,45.5401906 C53.3849575,45.5819155 53.6620009,45.6106014 53.946198,45.6106014 C56.9835949,45.6106014 59.4457691,43.1419865 59.4457691,40.0970464 C59.4457691,38.1539046 58.4403488,36.4487251 56.9247394,35.4665599 C59.3303343,34.8781736 61.1187599,32.7088045 61.1187599,30.1159929" id="Fill-6" fill="#FEFEFE"></path>
                        <path d="M73.0807579,23.6494802 C73.0807579,23.6494802 73.5850939,22.1894346 74.4253287,20.2795423 C75.2658887,18.3699759 73.7528807,18.868393 71.1199932,18.9280465 C68.4864553,18.9877001 63.1641009,18.4821116 63.5562538,20.7290629 C63.9484068,22.9756882 66.9737724,27.2440156 66.3016496,34.2648827 C65.6292016,41.2854238 63.5152826,42.9703928 63.5357682,44.4868323 C63.5562538,46.0035978 66.9737724,45.610471 66.9737724,45.610471 L79.2996012,45.610471 C81.260366,45.610471 81.708773,45.0924954 81.59659,42.9364913 L81.59659,34.584013 C81.59659,33.3100995 80.1401612,32.8817673 78.3471834,34.584013 C76.5545306,36.2869107 72.9685748,38.6789212 71.5680751,35.6294175 C70.1672501,32.5799137 71.2318511,28.423722 73.0807579,23.6494802" id="Fill-8" fill="#FEFEFE"></path>
                        <path d="M101.485996,21.1220268 C101.485996,19.8301846 101.941231,19.0471907 99.4166246,19.0471907 L85.4626782,19.0471907 C84.3980773,19.0471907 84.3418232,20.1111758 85.1261291,21.8522126 C85.9110853,23.5932494 88.2077488,26.5139927 87.199402,33.2538687 C86.1910552,39.9937447 85.9666891,41.9593788 85.2383121,43.1951532 C84.5102603,44.4306015 84.0618533,45.6663758 87.7034128,45.6663758 L100.477649,45.6663758 C101.485996,45.6663758 102.707653,45.5760805 102.707653,43.4308337 L102.707653,33.7594572 C102.707653,32.5797507 100.70169,32.4086134 99.3571188,33.9827506 C98.0122228,35.5565619 94.0906934,38.5894409 92.6339395,35.3880324 C91.1771856,32.1866239 94.3706632,30.8387139 96.1077122,31.1193791 C97.844436,31.4003702 98.4606299,32.0180944 98.5728129,30.7262522 C98.684996,29.4344101 98.5728129,27.6933732 98.5728129,27.0195812 C98.5728129,26.3454632 97.452283,26.6825222 96.779835,27.0756491 C96.1077122,27.4687759 92.8020515,27.2405928 93.1382755,24.6024705 C93.4741743,21.9643483 97.5641409,23.4247199 98.9087118,24.3234352 C100.253608,25.2221506 101.54225,25.9523364 101.54225,24.3234352 C101.54225,22.6948601 101.485996,21.1220268 101.485996,21.1220268" id="Fill-10" fill="#FEFEFE"></path>
                        <path d="M115.436788,35.7250588 C111.794903,36.2867151 111.40275,33.1977683 111.40275,29.5468391 C111.40275,25.896236 113.946216,22.3747192 114.891155,22.5823658 C115.914785,22.8069632 117.0054,23.6496106 117.733451,26.1769011 C118.462153,28.7045176 119.078347,35.1634024 115.436788,35.7250588 M124.288844,36.0621178 C123.336426,32.5236503 120.535101,24.9411268 122.215896,22.2453068 C122.887694,21.1676308 124.176661,18.8258205 122.215896,18.8258205 L107.536824,18.8258205 C106.248183,18.8258205 106.276147,20.9814986 107.536824,22.2453068 C108.797502,23.5091151 107.424641,28.4795943 106.248183,31.7934644 C105.071724,35.1073346 103.895265,45.4417459 109.273873,45.6663432 C114.652157,45.8912665 120.479172,45.6663432 121.823743,45.6663432 C123.168314,45.6663432 125.241262,39.6005852 124.288844,36.0621178" id="Fill-12" fill="#FEFEFE"></path>
                        <path d="M18.2754653,29.8259722 C15.9641692,28.4888194 14.5282261,25.9983642 14.5282261,23.3256885 C14.5282261,19.1900333 17.8846131,15.8249849 22.0103482,15.8249849 C24.4998365,15.8249849 26.8189367,17.0610852 28.2139086,19.1313576 L26.7285399,20.137645 C25.6668655,18.5625298 23.9034779,17.6220896 22.0103482,17.6220896 C18.8731246,17.6220896 16.321204,20.1809998 16.321204,23.3256885 C16.321204,25.3581477 17.4134442,27.2523931 19.1713039,28.2691117 L18.2754653,29.8259722 Z" id="Fill-14" fill="#14191F"></path>
                        <path d="M47.5034763,29.8307641 L46.6632414,28.2432618 C48.3378581,27.3523699 49.4570873,25.693805 49.6577161,23.806731 C49.9897129,20.679645 47.7223145,17.8645178 44.6029752,17.5313705 C42.5862815,17.3175304 40.5926748,18.2045106 39.3976814,19.8487326 L37.9484064,18.7909411 C39.5192943,16.6284175 42.1414513,15.4588163 44.7928735,15.7440452 C48.8951965,16.1824826 51.8773148,19.88459 51.4402886,23.9971009 C51.1765772,26.4787547 49.7048655,28.659533 47.5034763,29.8307641" id="Fill-16" fill="#14191F"></path>
                        <path d="M30.9332259,48.0681982 L35.0209164,48.0730879 C35.4296529,48.1164426 35.8244072,48.138609 36.1941235,48.138609 L36.1954242,48.138609 C37.8671143,48.137957 39.1479522,47.6926741 40.0024944,46.8144952 C41.5659035,45.2080864 41.4985936,42.4561986 41.4660768,41.1337147 C41.4530701,40.6095456 41.4468919,40.3468091 41.528184,40.1023272 C41.6608526,39.7033328 42.0250411,39.2267562 43.0050983,39.2267562 C43.1696334,39.2267562 43.3592065,39.2375134 43.5708911,39.2499005 C43.7962327,39.2632655 44.0508395,39.2792383 44.3291835,39.2792383 C45.0500816,39.2792383 45.6558701,39.1657987 46.2349948,38.9239246 C46.3627859,38.8701386 46.5705685,38.6175074 46.7367295,38.0799733 C47.4686833,35.7150187 46.8352555,29.8846153 43.7435555,25.0904889 C40.5126834,20.0805666 35.4624949,19.8266315 34.483088,19.8266315 C34.4004953,19.8266315 34.35172,19.8285873 34.3413146,19.8292393 L34.2957911,19.8302172 L31.563402,19.8289133 C31.5559232,19.8285873 31.5068228,19.8266315 31.42423,19.8266315 C30.4448232,19.8266315 25.3946346,20.0805666 22.1637626,25.0904889 C19.0717374,29.8846153 18.4389599,35.7150187 19.1705886,38.0799733 C19.3367496,38.6175074 19.5445321,38.8701386 19.6723232,38.9239246 C20.2514479,39.1664506 20.8572364,39.2792383 21.5781345,39.2792383 C21.8561534,39.2792383 22.1110853,39.2632655 22.3364269,39.2499005 C22.5477863,39.2375134 22.7376846,39.2267562 22.9022197,39.2267562 C23.8822769,39.2267562 24.2464654,39.7033328 24.3794592,40.1023272 C24.4604261,40.3468091 24.4542479,40.6101975 24.440916,41.1343666 C24.4083992,42.4565246 24.340439,45.2084124 25.9038481,46.8144952 C26.9476383,47.8872816 28.6333107,48.3123541 30.8860765,48.0730879 L30.9332259,48.0681982 Z M36.1944487,49.9357137 C35.7766074,49.9357137 35.3350289,49.9119174 34.8804437,49.8656289 L31.0268744,49.8656289 C28.2148191,50.1531395 26.0573276,49.5461726 24.6204089,48.0701541 C22.5295769,45.9213215 22.6131451,42.5350847 22.6489137,41.089382 C22.6492388,41.0708014 22.649564,41.0515688 22.6502143,41.0323362 C22.5845303,41.0359219 22.5152695,41.0395077 22.4430821,41.0440713 C22.185874,41.0593922 21.8954988,41.0766689 21.5781345,41.0766689 C20.6253915,41.0766689 19.7760519,40.9153109 18.9816658,40.5824896 C18.2848302,40.2907412 17.772365,39.6280324 17.4582524,38.6126177 C16.4993312,35.5132397 17.4501232,29.0885823 20.6579083,24.1148433 C24.3931163,18.322905 30.2819138,18.0295268 31.42423,18.0295268 C31.5253573,18.0295268 31.5955937,18.0314826 31.6313622,18.0327865 L34.2759558,18.0327865 C34.3117243,18.0314826 34.3819607,18.0295268 34.483088,18.0295268 C35.6254042,18.0295268 41.5142017,18.322905 45.2494098,24.1148433 C48.4571948,29.0885823 49.4079869,35.5132397 48.4490656,38.6126177 C48.1349531,39.6280324 47.6224879,40.2907412 46.9256522,40.5824896 C46.1315913,40.9146589 45.2819266,41.0766689 44.3291835,41.0766689 C44.0118193,41.0766689 43.721444,41.0593922 43.4642359,41.0440713 C43.3917234,41.0395077 43.3227877,41.0359219 43.2567785,41.0323362 C43.2574289,41.0515688 43.2580792,41.0708014 43.2584044,41.089382 C43.2938477,42.5350847 43.3770908,45.9206695 41.2859336,48.0695021 C40.0811851,49.3075583 38.3685238,49.9353877 36.1957493,49.9357137 L36.1944487,49.9357137 Z" id="Fill-18" fill="#14191F"></path>
                        <path d="M31.6773735,32.0554512 C31.6773735,32.9551445 30.9499721,33.6843524 30.0525076,33.6843524 C29.1553683,33.6843524 28.4279669,32.9551445 28.4279669,32.0554512 C28.4279669,31.1560839 29.1553683,30.4265501 30.0525076,30.4265501 C30.9499721,30.4265501 31.6773735,31.1560839 31.6773735,32.0554512" id="Fill-20" fill="#14191F"></path>
                        <path d="M38.1018533,31.9053393 C38.1018533,32.8050326 37.3744518,33.5342405 36.4769874,33.5342405 C35.5798481,33.5342405 34.8521215,32.8050326 34.8521215,31.9053393 C34.8521215,31.0059721 35.5798481,30.2764382 36.4769874,30.2764382 C37.3744518,30.2764382 38.1018533,31.0059721 38.1018533,31.9053393" id="Fill-22" fill="#14191F"></path>
                        <path d="M29.3961229,39.3757271 C29.3961229,37.8146289 30.9887972,36.5488648 32.9534639,36.5488648 C34.9184558,36.5488648 36.5111301,37.8146289 36.5111301,39.3757271" id="Fill-24" fill="#14191F"></path>
                        <mask id="mask-4" fill="white">
                            <use xlink:href="#path-3"></use>
                        </mask>
                        <g id="Clip-27"></g>
                        <polygon id="Fill-26" fill="#14191F" mask="url(#mask-4)" points="32.2075929 48.4491336 34.0005708 48.4491336 34.0005708 39.3755967 32.2075929 39.3755967"></polygon>
                        <path d="M131.111232,22.3099152 L131.769047,22.3099152 C132.070804,22.3099152 132.280537,22.2652565 132.398248,22.1759392 C132.515634,22.0866218 132.574814,21.962425 132.574814,21.8030228 C132.574814,21.6465544 132.51791,21.5239875 132.404426,21.4363 C132.290617,21.3479606 132.065276,21.3042798 131.727751,21.3042798 L131.111232,21.3042798 L131.111232,22.3099152 Z M133.377005,24.1937295 L132.718864,24.1937295 C132.304925,23.4381175 132.034385,23.0120671 131.906919,22.9159043 C131.779453,22.8197414 131.621096,22.771497 131.432173,22.771497 L131.111232,22.771497 L131.111232,24.1937295 L130.573079,24.1937295 L130.573079,20.8508475 L131.727751,20.8508475 C132.073405,20.8508475 132.339067,20.8756216 132.525714,20.924844 C132.712035,20.9747183 132.863239,21.0796825 132.977698,21.2400626 C133.093458,21.4010947 133.150362,21.572232 133.150362,21.7534745 C133.150362,21.9816576 133.06842,22.1886522 132.903885,22.3757623 C132.739675,22.5625465 132.503603,22.6671847 132.196969,22.6890251 L132.196969,22.7056499 C132.396947,22.7522644 132.656107,23.0312997 132.973796,23.5421038 L133.377005,24.1937295 Z M131.929355,25.0712564 C132.639198,25.0712564 133.248563,24.8163433 133.756801,24.3068431 C134.265364,23.7970169 134.519646,23.1848343 134.519646,22.4706213 C134.519646,21.7560823 134.26634,21.1452036 133.759077,20.6386372 C133.25214,20.1317448 132.642124,19.8781356 131.929355,19.8781356 C131.216587,19.8781356 130.607546,20.1317448 130.10191,20.6386372 C129.596598,21.1452036 129.343292,21.7560823 129.343292,22.4706213 C129.343292,23.1848343 129.596598,23.7970169 130.10191,24.3068431 C130.607546,24.8163433 131.216587,25.0712564 131.929355,25.0712564 L131.929355,25.0712564 Z M131.93781,19.3627679 C132.784548,19.3627679 133.5126,19.6675553 134.12099,20.2761521 C134.729379,20.884749 135.033737,21.6162387 135.033737,22.4706213 C135.033737,23.3253299 134.73068,24.0574716 134.125217,24.6673723 C133.519103,25.2775991 132.790401,25.5823864 131.93781,25.5823864 C131.082292,25.5823864 130.350663,25.277925 129.742274,24.6693282 C129.133884,24.0607313 128.829526,23.3279377 128.829526,22.4706213 C128.829526,21.6162387 129.133884,20.884749 129.742274,20.2761521 C130.350663,19.6675553 131.082292,19.3627679 131.93781,19.3627679 L131.93781,19.3627679 Z" id="Fill-28" fill="#FEFEFE" mask="url(#mask-4)"></path>
                    </g>
                </g>
            </g>
        </g>
    </g>
</svg>