<?xml version="1.0" encoding="UTF-8"?>
<svg width="74px" height="70px" viewBox="0 0 74 70" version="1.1" xmlns="http://www.w3.org/2000/svg" xmlns:xlink="http://www.w3.org/1999/xlink">
    <!-- Generator: Sketch 45.2 (43514) - http://www.bohemiancoding.com/sketch -->
    <title>caintra-logo</title>
    <desc>Created with Sketch.</desc>
    <defs></defs>
    <g id="Design" stroke="none" stroke-width="1" fill="none" fill-rule="evenodd">
        <g id="main" transform="translate(-811.000000, -2512.000000)" fill="#FFFFFF">
            <g id="Colaboradores" transform="translate(232.000000, 2292.000000)">
                <g id="Group-4" transform="translate(0.850724, 211.789803)">
                    <path d="M585.16885,68.7339656 L586.24996,68.7339656 L586.24996,77.1958407 L583.805524,77.1958407 L579.72695,71.4373993 L579.72695,77.1384264 L578.647265,77.1384264 L578.647265,69.915566 L578.647265,68.7339656 L581.067471,68.7339656 L585.16885,74.5278479 L585.16885,68.7339656 Z M607.057528,77.1982507 L605.204603,77.1982507 L601.8729,68.7342491 L604.612379,68.7342491 L606.902167,74.4997787 L608.952501,68.7342491 L610.131246,68.7342491 L607.057528,77.1982507 Z M595.081074,68.7339656 L601.574152,68.7339656 L601.574152,70.3011633 L597.881842,70.3011633 L597.881842,72.2383642 L600.641275,72.2383642 L600.641275,73.6694688 L597.881842,73.6694688 L597.881842,75.4330092 L601.715972,75.4330092 L601.715972,77.1958407 L595.081074,77.1958407 L595.081074,68.7339656 Z M589.800807,75.0607377 C589.800807,75.7114331 590.829893,75.9885811 590.829893,75.9885811 L592.045697,75.9885811 C592.930825,75.9885811 593.116118,74.9211004 593.116118,74.9211004 L593.116118,68.7338239 L594.425281,68.7338239 L594.425281,75.1543017 C593.958486,76.9171333 592.32221,77.2417722 592.32221,77.2417722 L589.518592,77.2417722 C586.997188,76.590368 587.09126,75.1046844 587.09126,75.1046844 L587.09126,68.7338239 L589.800807,68.7338239 L589.800807,75.0607377 Z M593.215891,54.7846304 L596.847624,54.7846304 L601.554055,66.5396762 L597.539621,66.5396762 L596.561134,63.8291543 L591.625225,63.8291543 L590.626784,66.6162286 L588.899287,66.6162286 L593.215891,54.7846304 Z M594.196516,57.492317 L592.526745,61.9585823 L595.79217,61.9585823 L594.196516,57.492317 Z M601.779969,66.5410939 L601.779969,54.7846304 L605.254204,54.7846304 L605.254204,66.5410939 L601.779969,66.5410939 Z M615.792361,54.7846304 L617.297506,54.7846304 L617.297506,64.9717697 L617.297506,66.5410939 L613.868169,66.5410939 L608.211758,58.5498742 L608.211758,66.5410939 L606.708751,66.5410939 L606.708751,56.4255452 L606.708751,54.7846304 L610.076799,54.7846304 L615.792361,62.8495672 L615.792361,54.7846304 Z M643.609759,54.7846304 L647.215124,54.7846304 L651.923693,66.5410939 L647.934202,66.5410939 L646.929346,63.7731577 L642.025508,63.7731577 L641.03063,66.5410939 L639.314536,66.5410939 L643.609759,54.7846304 Z M644.583258,57.4745966 L642.920613,61.9132179 L646.166796,61.9132179 L644.583258,57.4745966 Z M628.368023,54.7846304 L636.144608,54.7846304 C636.144608,54.7846304 638.546284,55.3438882 638.546284,57.921861 C638.546284,60.4984162 637.084611,60.9648188 637.084611,60.9648188 C637.084611,60.9648188 638.264782,61.6218935 638.453638,63.0714274 C638.641781,64.5237964 638.749393,66.5410939 638.749393,66.5410939 L635.544545,66.5410939 L634.822617,62.7645089 C634.822617,62.7645089 634.352259,61.6885225 633.832727,61.6885225 L632.043942,61.6885225 L632.043942,66.5410939 L628.368023,66.5410939 L628.368023,54.7846304 Z M632.043942,56.3752191 L632.043942,60.2630885 L633.928937,60.2630885 C633.928937,60.2630885 635.2944,60.3552349 635.2944,58.343608 C635.2944,56.5148563 634.067906,56.3752191 634.067906,56.3752191 L632.043942,56.3752191 Z M621.099567,54.7846304 L624.573802,54.7846304 L627.755132,54.7846304 L627.755132,56.3312723 L624.573802,56.3312723 L624.573802,66.5410939 L621.099567,66.5410939 L621.099567,56.3312723 L617.802785,56.3312723 L617.802785,54.7846304 L621.099567,54.7846304 Z M586.16836,59.4309356 C586.16836,59.4309356 586.111347,56.051289 584.222076,56.051289 C582.560144,56.051289 582.100476,58.6689557 582.100476,59.0517177 L582.100476,62.7297768 C582.100476,62.7297768 582.331379,65.3460259 584.069566,65.3460259 C585.804902,65.3460259 586.242477,62.7297768 586.242477,62.7297768 L586.242477,61.9699234 L589.717425,61.9132179 C589.717425,61.9132179 589.430934,66.845177 584.296906,66.845177 C579.028896,66.845177 578.300554,61.8869917 578.260645,60.8457373 C578.260645,58.4612719 579.52206,54.6308168 584.144396,54.6308168 C589.182927,54.6308168 589.792967,59.5032351 589.792967,59.5032351 L586.16836,59.4309356 Z M613.650664,68.6052442 C615.190018,68.6094971 617.657972,69.594046 617.657972,72.5299722 L617.657972,73.8547539 C617.657972,73.8547539 617.536819,76.6014256 614.581403,77.1833655 C614.373305,77.2521209 614.145965,77.2896883 613.905085,77.2896883 L613.659929,77.2840178 L613.409071,77.2896883 C613.168904,77.2896883 612.943702,77.2521209 612.733466,77.1833655 C609.776625,76.6014256 609.658323,73.8547539 609.658323,73.8547539 L609.658323,72.5299722 C609.658323,69.594046 612.116299,68.6094971 613.650664,68.6052442 Z M613.731908,69.6599661 C612.25028,69.6599661 612.102046,71.4752502 612.102046,71.4752502 L612.102046,74.4182646 C612.102046,74.9101846 612.300879,76.2342576 613.731908,76.2342576 C615.162224,76.2342576 615.21211,74.6188602 615.21211,74.6188602 L615.21211,71.7701187 C615.21211,71.035074 614.916355,69.6599661 613.731908,69.6599661 Z M593.606003,30.1850138 C593.606003,18.3803507 603.237651,8.80988349 615.114903,8.80988349 C626.92944,8.80988349 636.518329,18.2775721 636.623803,29.9964681 L628.113887,32.0499153 L628.113887,29.4797395 L631.516856,27.9777531 L630.854078,25.131138 L627.149653,25.5195706 L625.823386,23.2435544 L628.013401,20.2480875 L626.004403,18.1145438 L622.994824,20.2941607 L620.702185,18.9757583 L621.093438,15.2969903 L618.284118,14.4485346 L616.76757,17.8288899 L614.122875,17.8288899 L612.610603,14.4485346 L609.747121,15.1084446 L610.134097,18.7914655 L607.843596,20.1056149 L604.832592,17.9267069 L602.686762,19.9234486 L604.878916,22.9174979 L603.552649,25.1928052 L599.849648,24.8050815 L598.995165,27.6013705 L602.400272,29.1040657 L602.400272,33.0500582 L600.687028,32.4900916 L599.939444,32.2051465 C599.939444,32.2051465 598.616028,32.2051465 598.238316,34.2734789 L604.447754,38.3016944 L613.415913,44.1161324 L616.202427,45.9214931 C616.202427,45.9214931 617.297791,46.2737759 618.188621,46.2957493 L620.683656,45.3416796 C621.623659,44.9015033 631.521132,40.0935875 634.970423,38.4136877 C631.727091,46.1348475 624.058118,51.5587266 615.114903,51.5587266 C603.237651,51.5587266 593.606003,41.9882593 593.606003,30.1850138 Z M606.748517,30.607257 C606.748517,25.936852 610.557704,22.1496348 615.25487,22.1496348 C619.955599,22.1496348 623.765499,25.936852 623.765499,30.607257 C623.765499,31.4394099 623.643633,32.2467542 623.420569,33.0037723 L613.837382,35.5399249 C613.837382,35.5399249 613.742598,35.4002876 614.500159,37.0922374 C614.989046,38.1866531 616.088686,38.3851223 617.082852,38.280926 L621.447917,37.230457 L621.684521,38.4510424 C621.684521,38.4510424 618.188193,39.7084864 616.675209,39.7212452 C614.855066,39.7354215 614.362615,38.9450889 614.362615,38.9450889 C613.927178,38.6261206 613.374863,38.1398711 613.175318,37.7478945 C612.749857,36.9008564 612.134116,36.7612191 612.134116,36.7612191 L608.151752,35.262068 C607.266624,33.9273628 606.748517,32.325433 606.748517,30.607257 Z M622.297269,68.6951932 L625.037461,68.6951932 L625.037461,75.5799472 L628.218078,75.5799472 L628.218078,77.2017239 L622.297269,77.2017239 L622.297269,68.6951932 Z M628.786428,68.732548 L635.437717,68.732548 L635.437717,70.2054728 L631.657037,70.2054728 L631.657037,72.1575589 L634.481322,72.1575589 L634.481322,73.5837017 L631.657037,73.5837017 L631.657037,75.5797346 L635.580962,75.5797346 L635.580962,77.1951319 L628.786428,77.1951319 L628.786428,68.732548 Z M650.455178,68.7381476 L651.52845,68.7381476 L651.52845,76.0028283 L651.52845,77.1986051 L649.13675,77.1986051 L645.054613,71.4245697 L645.054613,77.1986051 L643.984905,77.1986051 L643.984905,69.9126599 L643.984905,68.7381476 L646.382306,68.7381476 L650.455178,74.4902097 L650.455178,68.7381476 Z M639.621836,68.6052442 C641.165466,68.6094971 643.63342,69.594046 643.63342,72.5299722 L643.63342,73.8547539 C643.63342,73.8547539 643.515117,76.6014256 640.558276,77.1833655 C640.347328,77.2521209 640.122839,77.2896883 639.883384,77.2896883 L639.633951,77.2840178 L639.386657,77.2896883 C639.145064,77.2896883 638.920575,77.2521209 638.711765,77.1833655 C635.752073,76.6014256 635.633771,73.8547539 635.633771,73.8547539 L635.633771,72.5299722 C635.633771,69.594046 638.093173,68.6094971 639.621836,68.6052442 Z M639.710206,69.6599661 C638.227154,69.6599661 638.079632,71.4752502 638.079632,71.4752502 L638.079632,74.4182646 C638.079632,74.9101846 638.275615,76.2342576 639.710206,76.2342576 C641.139097,76.2342576 641.190409,74.6188602 641.190409,74.6188602 L641.190409,71.7701187 C641.190409,71.035074 640.893941,69.6599661 639.710206,69.6599661 Z" id="caintra-logo"></path>
                </g>
            </g>
        </g>
    </g>
</svg>