<?xml version="1.0" encoding="UTF-8"?>
<svg width="130px" height="64px" viewBox="0 0 130 64" version="1.1" xmlns="http://www.w3.org/2000/svg" xmlns:xlink="http://www.w3.org/1999/xlink">
    <!-- Generator: Sketch 45.2 (43514) - http://www.bohemiancoding.com/sketch -->
    <title>enlance-logo</title>
    <desc>Created with Sketch.</desc>
    <defs></defs>
    <g id="Design" stroke="none" stroke-width="1" fill="none" fill-rule="evenodd">
        <g id="main" transform="translate(-654.000000, -2696.000000)" fill="#FFFFFF">
            <g id="Colaboradores" transform="translate(232.000000, 2292.000000)">
                <g id="Group-3" transform="translate(127.389901, 393.222932)">
                    <path d="M295.258079,58.4770516 L307.875343,58.4770516 L307.875343,59.9873279 L296.901664,59.9873279 L296.901664,65.3631612 L307.475482,65.3631612 L307.475482,66.8734374 L296.901664,66.8734374 L296.901664,72.8265511 L308.052771,72.8265511 L308.052771,74.3371159 L295.258079,74.3371159 L295.258079,58.4770516 Z M311.296897,58.4771382 L313.273988,58.4771382 L324.358163,72.0269269 L324.402881,72.0269269 L324.402881,58.4771382 L326.046466,58.4771382 L326.046466,74.3372024 L324.136018,74.3372024 L312.9852,60.7871251 L312.940482,60.7871251 L312.940482,74.3372024 L311.296897,74.3372024 L311.296897,58.4771382 Z M330.067984,58.4771382 L331.71157,58.4771382 L331.71157,72.8266377 L341.774165,72.8266377 L341.774165,74.3372024 L330.067984,74.3372024 L330.067984,58.4771382 Z M355.013811,69.5168103 L346.661444,69.5168103 L344.506925,74.3370005 L342.729764,74.3370005 L349.926977,58.4772247 L351.837425,58.4772247 L359.034349,74.3370005 L357.12419,74.3370005 L355.013811,69.5168103 Z M350.859986,60.1207861 L347.328168,68.0065341 L354.347376,68.0065341 L350.859986,60.1207861 Z M377.183372,68.29503 C376.828229,71.8493 373.895625,74.7368558 369.341939,74.7368558 C364.188461,74.7368558 360.901002,71.493873 360.901002,66.4071126 C360.901002,62.7862001 363.144668,58.0770808 369.341939,58.0770808 C372.807403,58.0770808 376.561366,59.6542881 377.050085,63.8302669 L375.4065,63.8302669 C374.917492,60.8094259 372.207611,59.5876456 369.341939,59.5876456 C365.410259,59.5876456 362.678163,61.7865616 362.678163,66.4071126 C362.678163,69.9388799 364.521679,73.2265796 369.341939,73.2265796 C373.118406,73.2265796 374.984425,71.3161595 375.539787,68.29503 L377.183372,68.29503 Z M380.916131,58.4771382 L393.533107,58.4771382 L393.533107,59.9874144 L382.559717,59.9874144 L382.559717,65.3629592 L393.133535,65.3629592 L393.133535,66.873524 L382.559717,66.873524 L382.559717,72.8266377 L393.711112,72.8266377 L393.711112,74.3372024 L380.916131,74.3372024 L380.916131,58.4771382 Z M401.597407,69.2726562 L396.532787,69.2726562 L396.532787,68.1616583 L401.597407,68.1616583 L401.597407,63.0974006 L402.708132,63.0974006 L402.708132,68.1616583 L407.772752,68.1616583 L407.772752,69.2726562 L402.708132,69.2726562 L402.708132,74.3372024 L401.597407,74.3372024 L401.597407,69.2726562 Z M411.638567,58.4771382 L424.255543,58.4771382 L424.255543,59.9874144 L413.282152,59.9874144 L413.282152,65.3629592 L423.85597,65.3629592 L423.85597,66.873524 L413.282152,66.873524 L413.282152,72.8266377 L424.433548,72.8266377 L424.433548,74.3372024 L411.638567,74.3372024 L411.638567,58.4771382 Z M329.467471,39.3309032 L345.539525,39.3309032 L345.539525,46.4019387 L319.273897,46.4019387 L319.273897,39.5259265 L303.201843,39.5259265 L303.201843,32.385652 L319.153881,32.385652 L319.153881,25.5093513 L303.201843,25.5093513 L303.201843,18.3690768 L319.153881,18.3690768 L319.153881,11.4668115 L345.41922,11.4668115 L345.41922,18.537847 L329.467471,18.537847 L329.467471,25.3146166 L340.07014,25.3146166 L340.07014,32.385652 L329.467471,32.385652 L329.467471,39.3309032 Z" id="enlance-logo"></path>
                </g>
            </g>
        </g>
    </g>
</svg>