<?xml version="1.0" encoding="UTF-8"?>
<svg width="185px" height="60px" viewBox="0 0 185 60" version="1.1" xmlns="http://www.w3.org/2000/svg" xmlns:xlink="http://www.w3.org/1999/xlink">
    <!-- Generator: Sketch 45.2 (43514) - http://www.bohemiancoding.com/sketch -->
    <title>ndp</title>
    <desc>Created with Sketch.</desc>
    <defs></defs>
    <g id="Design" stroke="none" stroke-width="1" fill="none" fill-rule="evenodd">
        <g id="main" transform="translate(-881.000000, -2698.000000)" fill="#FFFFFF">
            <g id="Colaboradores" transform="translate(232.000000, 2292.000000)">
                <g id="Group-3" transform="translate(127.389901, 393.222932)">
                    <path d="M531.867134,71.3118053 C531.867134,71.3118053 527.074134,61.3386047 524.627689,56.2194702 L524.627689,70.8465255 C524.627689,71.444692 524.165038,71.9103242 523.5699,71.9103242 C522.975112,71.9103242 522.51211,71.444692 522.51211,70.8465255 L522.51211,51.565263 C522.51211,51.0664972 522.842976,50.634351 523.338574,50.5345979 C523.801576,50.4348447 524.297174,50.6678371 524.5285,51.0996307 C524.5285,51.0996307 529.288903,61.0728313 531.767944,66.1923183 L531.767944,51.565263 C531.767944,50.966744 532.230595,50.5014643 532.825733,50.5014643 C533.420521,50.5014643 533.883523,50.966744 533.883523,51.565263 L533.883523,70.8465255 C533.883523,71.3452913 533.553008,71.777085 533.057059,71.8771906 C532.594408,72.0100774 532.098459,71.7439514 531.867134,71.3118053 Z M538.64333,55.5543669 C538.64333,53.9590214 539.932446,52.6290969 541.552076,52.6290969 C543.138761,52.6290969 544.460822,53.9590214 544.460822,55.5543669 L544.460822,66.8571396 C544.460822,68.4859711 543.138761,69.7827621 541.552076,69.7827621 C539.932446,69.7827621 538.64333,68.4859711 538.64333,66.8571396 L538.64333,55.5543669 Z M536.527751,66.8571396 L536.527751,55.5543669 C536.527751,52.7619836 538.775467,50.5014996 541.552076,50.5014996 C544.328686,50.5014996 546.576401,52.7619836 546.576401,55.5543669 L546.576401,66.8571396 C546.576401,69.6495229 544.328686,71.910007 541.552076,71.910007 C538.775467,71.910007 536.527751,69.6495229 536.527751,66.8571396 Z M548.959127,66.8572453 L548.959127,55.5544727 C548.959127,53.2608551 550.479568,51.2661445 552.694336,50.6676256 C554.875808,50.0694591 557.190117,51.0666382 558.347096,53.0278627 C558.611369,53.5266285 558.445936,54.1914146 557.949987,54.490674 C557.454389,54.7899335 556.793008,54.5904272 556.495789,54.0916614 C555.834408,52.9615956 554.512346,52.3962103 553.223231,52.7289558 C551.967062,53.0609963 551.074706,54.2245481 551.074706,55.5544727 L551.074706,66.8572453 C551.074706,68.1868174 551.967062,69.3503692 553.223231,69.6831147 C554.512346,70.0151553 555.834408,69.4501224 556.495789,68.3197041 C556.793008,67.8212908 557.454389,67.6549181 557.949987,67.921044 C558.445936,68.2203034 558.611369,68.8850895 558.347096,69.3835028 C557.190117,71.3782134 554.875808,72.3426114 552.694336,71.74374 C550.479568,71.1455735 548.959127,69.1512154 548.959127,66.8572453 Z M569.807219,50.5014643 C570.402357,50.5014643 570.865009,50.966744 570.865009,51.565263 L570.865009,70.8465255 C570.865009,71.444692 570.402357,71.9103242 569.807219,71.9103242 C569.245027,71.9103242 568.749429,71.444692 568.749429,70.8465255 L568.749429,61.9371236 L562.931587,61.9371236 L562.931587,70.8465255 C562.931587,71.444692 562.468585,71.9103242 561.873798,71.9103242 C561.311606,71.9103242 560.816008,71.444692 560.816008,70.8465255 L560.816008,51.565263 C560.816008,50.966744 561.311606,50.5014643 561.873798,50.5014643 C562.468585,50.5014643 562.931587,50.966744 562.931587,51.565263 L562.931587,59.8095263 L568.749429,59.8095263 L568.749429,51.565263 C568.749429,50.966744 569.245027,50.5014643 569.807219,50.5014643 Z M573.753286,51.6981849 C573.753286,51.099666 574.215937,50.6343863 574.811075,50.6343863 L581.422085,50.6343863 C582.017223,50.6343863 582.479874,51.099666 582.479874,51.6981849 C582.479874,52.2967038 582.017223,52.7619836 581.422085,52.7619836 L575.868865,52.7619836 L575.868865,59.8095616 L580.761054,59.8095616 C581.356192,59.8095616 581.818843,60.2748413 581.818843,60.8733602 C581.818843,61.4718792 581.356192,61.9371589 580.761054,61.9371589 L575.868865,61.9371589 L575.868865,69.6495229 L581.422085,69.6495229 C582.017223,69.6495229 582.479874,70.1151552 582.479874,70.7133216 C582.479874,71.3118405 582.017223,71.7771203 581.422085,71.7771203 L574.811075,71.7771203 C574.215937,71.7771203 573.753286,71.3118405 573.753286,70.7133216 L573.753286,51.6981849 Z M591.870788,66.9237239 C591.936681,66.0594316 591.639462,65.1616532 591.011378,64.5300007 L585.72243,59.0781207 C584.730533,58.0478081 584.201989,56.6181304 584.334125,55.1888051 C584.433315,53.7259938 585.160589,52.3964218 586.317568,51.5317769 C587.44125,50.6678371 588.928745,50.301958 590.350347,50.6012175 C591.738652,50.9004769 592.961524,51.7647693 593.688798,53.0280742 C593.986367,53.5264875 593.821284,54.1912736 593.292039,54.490533 C592.796441,54.7897925 592.13506,54.5902862 591.870788,54.0918729 C591.441083,53.3604673 590.746755,52.8617015 589.920291,52.6953287 C589.093828,52.5293085 588.234768,52.7288148 587.573386,53.2272281 C586.912356,53.7259938 586.515597,54.490533 586.449704,55.3216918 C586.383461,56.1859842 586.68103,56.9840094 587.243222,57.5821759 L592.532169,63.0675419 C593.556662,64.1313406 594.085557,65.5937994 593.986367,67.0900967 C593.854231,68.5860415 593.126957,69.9487471 591.936681,70.8465255 C590.746755,71.7439514 589.226314,72.1098305 587.771766,71.810571 C586.317568,71.5113116 585.061399,70.6135332 584.300828,69.3170947 C584.036556,68.7851953 584.201989,68.1538953 584.697587,67.8546359 C585.193535,67.5553764 585.854566,67.7213967 586.152135,68.253296 C586.58184,69.0178352 587.342061,69.5497345 588.201821,69.7161073 C589.060881,69.88248 589.953588,69.6829737 590.647565,69.1510744 C591.37519,68.6191751 591.804545,67.8211498 591.870788,66.9237239 Z M607.367809,52.6099267 C608.98744,52.6099267 610.276905,53.9398513 610.276905,55.5355493 L610.276905,66.572196 C610.276905,68.2010276 608.98744,69.4974661 607.367809,69.4974661 L604.458712,69.4974661 L604.458712,52.6099267 L607.367809,52.6099267 Z M607.367809,50.4823294 C610.144769,50.4823294 612.392484,52.7428135 612.392484,55.5355493 L612.392484,66.572196 C612.392484,69.3645794 610.144769,71.6250634 607.367809,71.6250634 L603.400923,71.6250634 C602.806135,71.6250634 602.343133,71.1597837 602.343133,70.5612648 L602.343133,51.5461281 C602.343133,50.9476092 602.806135,50.4823294 603.400923,50.4823294 L607.367809,50.4823294 Z M615.327053,51.5461281 C615.327053,50.9476092 615.789704,50.4823294 616.384842,50.4823294 L622.995851,50.4823294 C623.590989,50.4823294 624.053641,50.9476092 624.053641,51.5461281 C624.053641,52.144647 623.590989,52.6099267 622.995851,52.6099267 L617.442632,52.6099267 L617.442632,59.6575047 L622.334821,59.6575047 C622.929959,59.6575047 623.39261,60.1227845 623.39261,60.7213034 C623.39261,61.3198223 622.929959,61.7851021 622.334821,61.7851021 L617.442632,61.7851021 L617.442632,69.4974661 L622.995851,69.4974661 C623.590989,69.4974661 624.053641,69.9630983 624.053641,70.5612648 C624.053641,71.1597837 623.590989,71.6250634 622.995851,71.6250634 L616.384842,71.6250634 C615.789704,71.6250634 615.327053,71.1597837 615.327053,70.5612648 L615.327053,51.5461281 Z M637.230823,52.6099267 C638.817157,52.6099267 640.139919,53.9398513 640.139919,55.5355493 L640.139919,57.3970207 C640.139919,59.0258523 638.817157,60.3226433 637.230823,60.3226433 L634.321726,60.3226433 L634.321726,52.6099267 L637.230823,52.6099267 Z M633.263937,50.4823294 L637.230823,50.4823294 C640.007433,50.4823294 642.255498,52.7428135 642.255498,55.5355493 L642.255498,57.3970207 C642.255498,60.1894041 640.007433,62.4502406 637.230823,62.4502406 L634.321726,62.4502406 L634.321726,70.6945039 C634.321726,71.2926704 633.859075,71.7583026 633.263937,71.7583026 C632.669149,71.7583026 632.206147,71.2926704 632.206147,70.6945039 L632.206147,51.5461281 C632.206147,50.9476092 632.669149,50.4823294 633.263937,50.4823294 Z M644.54087,70.8273907 L644.54087,51.5461281 C644.54087,50.9479616 645.036468,50.4823294 645.59866,50.4823294 C646.193798,50.4823294 646.65645,50.9479616 646.65645,51.5461281 L646.65645,70.8273907 C646.65645,71.4259096 646.193798,71.8911893 645.59866,71.8911893 C645.036468,71.8911893 644.54087,71.4259096 644.54087,70.8273907 Z M658.737484,50.4823294 C659.332622,50.4823294 659.795273,50.9476092 659.795273,51.5461281 C659.795273,52.144647 659.332622,52.6099267 658.737484,52.6099267 L655.497872,52.6099267 L655.497872,70.6945039 C655.497872,71.2926704 655.035221,71.7579501 654.440083,71.7579501 C653.878592,71.7579501 653.382293,71.2926704 653.382293,70.6945039 L653.382293,52.6099267 L650.143032,52.6099267 C649.58119,52.6099267 649.085242,52.144647 649.085242,51.5461281 C649.085242,50.9476092 649.58119,50.4823294 650.143032,50.4823294 L658.737484,50.4823294 Z M660.770769,66.8445685 L660.770769,55.5417959 C660.770769,53.2481783 662.29121,51.2534677 664.505979,50.6549488 C666.687451,50.0567823 669.00176,51.0539614 670.158739,53.0151859 C670.423011,53.5139517 670.257578,54.1787378 669.76163,54.4779972 C669.266032,54.7772567 668.604651,54.5777504 668.307432,54.0789846 C667.646051,52.9489188 666.323989,52.3835335 665.034874,52.716279 C663.778705,53.0483195 662.886348,54.2118713 662.886348,55.5417959 L662.886348,66.8445685 C662.886348,68.1741406 663.778705,69.3376924 665.034874,69.6704379 C666.323989,70.0024785 667.646051,69.4374456 668.307432,68.3073798 C668.604651,67.808614 669.266032,67.6422413 669.76163,67.9083672 C670.257578,68.2076266 670.423011,68.8724127 670.158739,69.3711785 C669.00176,71.3655366 666.687451,72.3299346 664.505979,71.7310632 C662.29121,71.1328967 660.770769,69.1385386 660.770769,66.8445685 Z M682.096703,50.4823294 C682.691841,50.4823294 683.154493,50.9476092 683.154493,51.5461281 L683.154493,70.8273907 C683.154493,71.4255571 682.691841,71.8911893 682.096703,71.8911893 C681.534512,71.8911893 681.038914,71.4255571 681.038914,70.8273907 L681.038914,61.9179888 L675.221071,61.9179888 L675.221071,70.8273907 C675.221071,71.4255571 674.75807,71.8911893 674.163282,71.8911893 C673.60109,71.8911893 673.105492,71.4255571 673.105492,70.8273907 L673.105492,51.5461281 C673.105492,50.9476092 673.60109,50.4823294 674.163282,50.4823294 C674.75807,50.4823294 675.221071,50.9476092 675.221071,51.5461281 L675.221071,59.7907439 L681.038914,59.7907439 L681.038914,51.5461281 C681.038914,50.9476092 681.534512,50.4823294 682.096703,50.4823294 Z M686.089412,51.5461281 C686.089412,50.9476092 686.552063,50.4823294 687.147201,50.4823294 L693.75821,50.4823294 C694.353348,50.4823294 694.816,50.9476092 694.816,51.5461281 C694.816,52.144647 694.353348,52.6099267 693.75821,52.6099267 L688.204991,52.6099267 L688.204991,59.6575047 L693.09718,59.6575047 C693.692318,59.6575047 694.154969,60.1227845 694.154969,60.7213034 C694.154969,61.3198223 693.692318,61.7851021 693.09718,61.7851021 L688.204991,61.7851021 L688.204991,69.4974661 L693.75821,69.4974661 C694.353348,69.4974661 694.816,69.9630983 694.816,70.5612648 C694.816,71.1597837 694.353348,71.6250634 693.75821,71.6250634 L687.147201,71.6250634 C686.552063,71.6250634 686.089412,71.1597837 686.089412,70.5612648 L686.089412,51.5461281 Z M698.592126,55.5355493 C698.592126,53.9398513 699.881241,52.6099267 701.500872,52.6099267 C703.087556,52.6099267 704.409618,53.9398513 704.409618,55.5355493 L704.409618,66.8383219 C704.409618,68.4671535 703.087556,69.763592 701.500872,69.763592 C699.881241,69.763592 698.592126,68.4671535 698.592126,66.8383219 L698.592126,55.5355493 Z M696.476547,66.8383219 L696.476547,55.5355493 C696.476547,52.7428135 698.724262,50.4823294 701.500872,50.4823294 C704.277482,50.4823294 706.525197,52.7428135 706.525197,55.5355493 L706.525197,66.8383219 C706.525197,69.6307053 704.277482,71.8911893 701.500872,71.8911893 C698.724262,71.8911893 696.476547,69.6307053 696.476547,66.8383219 Z M604.050001,18.2972737 L602.255106,16.8242404 L602.255106,13.7579623 L615.418661,13.7579623 C618.585619,13.7579623 621.162179,16.3325877 621.162179,19.4971667 L621.162179,32.3414252 L619.367283,30.8682438 L619.367283,19.4971667 C619.367283,17.3215187 617.595944,15.5513619 615.418661,15.5513619 L604.050001,15.5513619 L604.050001,18.2972737 Z M619.214684,35.9654129 L620.687047,37.1737443 C619.80197,39.2056421 617.774027,40.6304132 615.418661,40.6304132 L602.255106,40.6304132 L602.255106,22.0466543 L604.050001,23.5196876 L604.050001,38.8368656 L615.418661,38.8368656 C617.222891,38.8368656 618.744885,37.6199476 619.214684,35.9654129 Z M605.397736,20.8540747 L605.397736,23.1751014 L599.78578,18.5694666 L599.78578,35.4724871 L597.991032,35.4724871 L597.991032,14.7752584 L605.397736,20.8540747 Z M623.63149,18.9156072 L625.426386,18.9156072 L625.426386,39.6128358 L615.269484,31.2770957 C615.832621,31.0060279 616.335458,30.6292571 616.752366,30.1728388 L623.63149,35.8186277 L623.63149,18.9156072 Z M615.10321,26.9113802 C615.10321,27.9744809 614.23769,28.8393513 613.17379,28.8393513 L608.314312,28.8393513 L608.314312,19.8123958 L613.173642,19.8123958 C614.237541,19.8123958 615.10321,20.6771182 615.10321,21.740367 L615.10321,26.9113802 Z M613.173642,18.0188482 L606.519416,18.0188482 L606.519416,29.7360511 L606.519416,30.632899 L606.519416,35.4724426 L608.314312,35.4724426 L608.314312,30.632899 L613.17379,30.632899 C615.227512,30.632899 616.898106,28.9634118 616.898106,26.9113802 L616.898106,21.740367 C616.898106,19.6881873 615.227216,18.0188482 613.173642,18.0188482 L613.173642,18.0188482 Z" id="ndp"></path>
                </g>
            </g>
        </g>
    </g>
</svg>