<?xml version="1.0" encoding="UTF-8"?>
<svg width="128px" height="71px" viewBox="0 0 128 71" version="1.1" xmlns="http://www.w3.org/2000/svg" xmlns:xlink="http://www.w3.org/1999/xlink">
    <!-- Generator: Sketch 45.2 (43514) - http://www.bohemiancoding.com/sketch -->
    <title>ios-logo</title>
    <desc>Created with Sketch.</desc>
    <defs></defs>
    <g id="Design" stroke="none" stroke-width="1" fill="none" fill-rule="evenodd">
        <g id="main" transform="translate(-530.000000, -2513.000000)" fill="#FFFFFF">
            <g id="Colaboradores" transform="translate(232.000000, 2292.000000)">
                <g id="Group-4" transform="translate(0.850724, 211.789803)">
                    <path d="M314.666624,18.9735217 C313.545812,19.6220476 312.634593,21.1979526 312.638427,22.4898878 L312.652485,27.1779495 C312.655041,28.4711637 313.571372,28.9917752 314.697296,28.3458077 C313.6046,28.9700298 312.720219,30.4679071 312.666543,31.7368176 C312.663987,31.7790294 312.663987,31.8583363 312.663987,31.8583363 L312.692103,41.2319013 C312.697215,42.5212782 313.61099,43.0457271 314.736914,42.394643 L331.026393,32.9801453 C332.149762,32.3316194 333.057147,30.7582727 333.057147,29.4637793 L333.031587,20.0927725 C333.026474,18.798279 332.110143,18.2789467 330.986775,18.9287517 C332.110143,18.2789467 333.020084,16.7030417 333.014972,15.4072691 L333.004748,10.7256031 C333.000914,9.42983056 332.084583,8.90793992 330.958659,9.55902407 L314.666624,18.9735217 Z M345.239275,14.9405826 L335.931001,9.55940781 L345.239275,14.9405826 L352.224314,18.9764638 C353.347683,19.6275479 354.255068,21.1996155 354.252512,22.4928298 L354.198835,41.2284477 C354.196279,42.5229411 353.279948,43.0448317 352.15658,42.3950267 L335.864545,32.9792499 C334.737343,32.330724 333.829958,30.7560981 333.829958,29.4603256 L333.88619,10.7259869 C333.888746,9.4302143 334.802521,8.9121611 335.925889,9.55940781 L345.239275,14.9405826 Z M312.663987,31.8532197 L312.663987,31.8583363 L312.663987,31.8532197 Z M344.027177,31.8292997 C345.150545,32.4829421 346.066876,31.9584932 346.069432,30.6665581 L346.079656,27.1540295 L346.088602,23.6402217 C346.091158,22.3482866 345.183773,20.7711024 344.060405,20.1212974 C342.93448,19.4740507 342.024539,19.9921039 342.019427,21.2853182 L342.019427,21.2904347 L342.007925,24.8004051 L341.996423,28.3116545 L341.996423,28.3167711 C341.992589,29.6099854 342.901252,31.182053 344.027177,31.8292997 Z M348.651901,41.4950212 L351.70506,43.2576812 C352.832262,43.9087654 352.837374,44.9602215 351.722952,45.6100265 L347.671669,47.9687675 C346.554691,48.6160142 344.738643,48.6160142 343.612719,47.9662092 C344.736087,48.6160142 344.745033,49.6674703 343.630611,50.3185545 L335.534436,55.0283616 C334.413623,55.67305 332.597575,55.67305 331.476763,55.0258033 L315.182172,45.6138639 C314.058804,44.9602215 314.052414,43.9113237 315.17067,43.2576812 L319.218119,40.9078942 C320.333819,40.2580892 322.151145,40.2542518 323.278347,40.905336 C322.151145,40.2516935 322.146033,39.2015165 323.263011,38.5504324 L331.354074,33.8431836 C332.471053,33.1946577 334.289657,33.1946577 335.413025,33.8431836 L348.651901,41.4950212 Z M300.009416,79.8032006 L298.478363,79.8032006 C297.83297,79.8032006 297.298763,79.2941014 297.298763,78.622551 L297.298763,61.4781879 C297.298763,60.8322203 297.83297,60.2937008 298.478363,60.2937008 L300.009416,60.2937008 C300.654809,60.2937008 301.18646,60.8322203 301.18646,61.4781879 L301.18646,78.622551 C301.18646,79.2941014 300.654809,79.8032006 300.009416,79.8032006 Z M311.050119,79.7221029 L308.685806,79.7221029 C305.116332,79.7221029 303.045961,76.9821771 303.045961,73.785597 L303.045961,66.3115603 C303.045961,63.1149802 305.116332,60.3763335 308.685806,60.3763335 L311.050119,60.3763335 C314.592755,60.3763335 316.689965,63.1149802 316.689965,66.3115603 L316.689965,73.785597 C316.689965,76.9821771 314.592755,79.7221029 311.050119,79.7221029 Z M312.792043,66.4484287 C312.792043,64.350633 311.641837,63.1699834 309.865407,63.1699834 C308.097923,63.1699834 306.914488,64.350633 306.914488,66.4484287 L306.914488,73.6512869 C306.914488,75.8015274 308.097923,76.928453 309.865407,76.928453 C311.641837,76.928453 312.792043,75.7465243 312.792043,73.6512869 L312.792043,66.4484287 Z M324.16554,79.721975 L318.902706,79.721975 C318.418342,79.721975 318.04133,79.348465 318.04133,78.8930899 L318.04133,77.4924275 C318.04133,77.0357732 318.418342,76.659705 318.902706,76.659705 L323.624943,76.659705 C324.565556,76.659705 325.34514,75.9088476 325.34514,74.9661187 C325.34514,74.4813232 325.157273,73.9210583 324.837772,73.5987141 L319.493146,68.7302931 C318.580649,67.901408 318.095006,66.637614 318.095006,65.293234 C318.095006,62.5763328 320.297012,60.3762056 322.983383,60.3762056 L327.278765,60.3762056 C327.73757,60.3762056 328.110748,60.7509947 328.110748,61.2332319 L328.110748,62.6070322 C328.110748,63.0611282 327.73757,63.4384756 327.278765,63.4384756 L323.384677,63.4384756 C322.527135,63.4384756 321.801227,64.1381672 321.801227,65.0246138 C321.801227,65.4556852 321.960978,65.9916465 322.258753,66.2615458 L327.950997,71.4471944 C328.703743,72.1187448 329.182996,73.5987141 329.182996,74.6719156 C329.182996,77.4668446 326.927313,79.721975 324.16554,79.721975 Z M343.531949,79.7221029 L341.167636,79.7221029 C337.595606,79.7221029 335.52779,76.9821771 335.52779,73.785597 L335.52779,66.3115603 C335.52779,63.1149802 337.595606,60.3763335 341.167636,60.3763335 L343.531949,60.3763335 C347.072029,60.3763335 349.16796,63.1149802 349.16796,66.3115603 L349.16796,73.785597 C349.16796,76.9821771 347.072029,79.7221029 343.531949,79.7221029 Z M345.273872,66.4484287 C345.273872,64.350633 344.123666,63.1699834 342.349792,63.1699834 C340.575918,63.1699834 339.393762,64.350633 339.393762,66.4484287 L339.393762,73.6512869 C339.393762,75.8015274 340.575918,76.928453 342.349792,76.928453 C344.123666,76.928453 345.273872,75.7465243 345.273872,73.6512869 L345.273872,66.4484287 Z M355.103025,63.437964 L355.103025,68.0364856 L360.607402,68.0364856 C361.063651,68.0364856 361.439385,68.4112747 361.439385,68.8653707 L361.439385,70.2366128 C361.439385,70.7214082 361.063651,71.0974765 360.607402,71.0974765 L355.103025,71.0974765 L355.103025,78.6226789 C355.103025,79.2929502 354.566262,79.8033285 353.922147,79.8033285 L352.388538,79.8033285 C351.744423,79.8033285 351.210216,79.2929502 351.210216,78.6226789 L351.210216,61.5589019 C351.210216,60.9129343 351.744423,60.3756939 352.388538,60.3756939 L361.196563,60.3756939 C361.652812,60.3756939 362.031102,60.750483 362.031102,61.2327202 L362.031102,62.6077997 C362.031102,63.0606166 361.652812,63.437964 361.196563,63.437964 L355.103025,63.437964 Z M367.554777,63.437964 L367.554777,68.0364856 L373.060431,68.0364856 C373.517958,68.0364856 373.891136,68.4112747 373.891136,68.8653707 L373.891136,70.2366128 C373.891136,70.7214082 373.517958,71.0974765 373.060431,71.0974765 L367.554777,71.0974765 L367.554777,78.6226789 C367.554777,79.2929502 367.018014,79.8033285 366.373898,79.8033285 L364.845402,79.8033285 C364.200008,79.8033285 363.664523,79.2929502 363.664523,78.6226789 L363.664523,61.5589019 C363.664523,60.9129343 364.200008,60.3756939 364.845402,60.3756939 L373.650871,60.3756939 C374.107119,60.3756939 374.482853,60.750483 374.482853,61.2327202 L374.482853,62.6077997 C374.482853,63.0606166 374.107119,63.437964 373.650871,63.437964 L367.554777,63.437964 Z M377.508919,79.8032006 C376.864803,79.8032006 376.326762,79.2941014 376.326762,78.622551 L376.326762,61.4781879 C376.326762,60.8322203 376.864803,60.2937008 377.508919,60.2937008 L379.041249,60.2937008 C379.682809,60.2937008 380.217016,60.8322203 380.217016,61.4781879 L380.217016,78.622551 C380.217016,79.2941014 379.682809,79.8032006 379.041249,79.8032006 L377.508919,79.8032006 Z M388.702344,79.721975 C385.159708,79.721975 382.288026,76.313057 382.288026,72.7902952 L382.288026,67.3373056 C382.288026,63.7876819 385.159708,60.3762056 388.702344,60.3762056 L391.954872,60.3762056 C392.411121,60.3762056 392.783021,60.7509947 392.783021,61.2332319 L392.783021,62.6070322 C392.783021,63.0611282 392.411121,63.4384756 391.954872,63.4384756 L390.396982,63.4384756 C387.765565,63.4384756 386.286911,65.0783379 386.286911,67.3373056 L386.286911,72.7902952 C386.286911,74.9917016 387.765565,76.659705 390.396982,76.659705 L392.1683,76.659705 C392.650108,76.659705 393.028398,77.0357732 393.028398,77.4924275 L393.028398,78.8930899 C393.028398,79.348465 392.650108,79.721975 392.1683,79.721975 L388.702344,79.721975 Z M395.680391,79.721975 C395.036275,79.721975 394.498234,79.1860138 394.498234,78.5413253 L394.498234,61.5594135 C394.498234,60.913446 395.036275,60.3762056 395.680391,60.3762056 L404.487138,60.3762056 C404.944665,60.3762056 405.320399,60.7509947 405.320399,61.2332319 L405.320399,62.6070322 C405.320399,63.0611282 404.944665,63.4384756 404.487138,63.4384756 L398.388488,63.4384756 L398.388488,68.0357181 L403.897977,68.0357181 C404.352947,68.0357181 404.728681,68.4105072 404.728681,68.8658824 L404.728681,70.2371244 C404.728681,70.7219199 404.352947,71.0979881 403.897977,71.0979881 L398.388488,71.0979881 L398.388488,76.659705 L404.620051,76.659705 C405.078855,76.659705 405.453311,77.0357732 405.453311,77.4924275 L405.453311,78.8930899 C405.453311,79.348465 405.078855,79.721975 404.620051,79.721975 L395.680391,79.721975 Z M407.679217,79.721975 C407.194852,79.721975 406.821674,79.348465 406.821674,78.8930899 L406.821674,77.4924275 C406.821674,77.0357732 407.194852,76.659705 407.679217,76.659705 L412.405287,76.659705 C413.3459,76.659705 414.12165,75.9088476 414.12165,74.9661187 C414.12165,74.4813232 413.937617,73.9210583 413.614282,73.5987141 L408.270934,68.7302931 C407.357159,67.901408 406.874072,66.637614 406.874072,65.293234 C406.874072,62.5763328 409.077356,60.3762056 411.762449,60.3762056 L416.057831,60.3762056 C416.51408,60.3762056 416.889814,60.7509947 416.889814,61.2332319 L416.889814,62.6070322 C416.889814,63.0611282 416.51408,63.4384756 416.057831,63.4384756 L412.165022,63.4384756 C411.304923,63.4384756 410.580293,64.1381672 410.580293,65.0246138 C410.580293,65.4556852 410.740044,65.9916465 411.037819,66.2615458 L416.730063,71.4471944 C417.481531,72.1187448 417.96334,73.5987141 417.96334,74.6719156 C417.96334,77.4668446 415.707657,79.721975 412.943328,79.721975 L407.679217,79.721975 Z M422.627683,65.2002402 C421.283219,65.2002402 420.191801,64.111689 420.191801,62.7647506 C420.191801,61.4178123 421.283219,60.3305402 422.627683,60.3305402 C423.972146,60.3305402 425.062286,61.4178123 425.062286,62.7647506 C425.062286,64.111689 423.972146,65.2002402 422.627683,65.2002402 Z M422.627683,60.7782405 C421.540099,60.7782405 420.677444,61.6544539 420.677444,62.7647506 C420.677444,63.8737682 421.540099,64.7499817 422.627683,64.7499817 C423.716545,64.7499817 424.568975,63.8737682 424.568975,62.7647506 C424.568975,61.6544539 423.716545,60.7782405 422.627683,60.7782405 Z M423.136329,64.0758729 L422.599566,63.0333708 L422.262173,63.0333708 L422.262173,64.0758729 L421.780364,64.0758729 L421.780364,61.4459535 L422.769541,61.4459535 C423.266686,61.4459535 423.61686,61.8169051 423.61686,62.251814 C423.61686,62.625324 423.385541,62.8645238 423.101823,62.9668553 L423.683316,64.0758729 L423.136329,64.0758729 Z M422.708197,61.8552795 L422.262173,61.8552795 L422.262173,62.652186 L422.708197,62.652186 C422.96252,62.652186 423.136329,62.4756642 423.136329,62.251814 C423.136329,62.0330804 422.96252,61.8552795 422.708197,61.8552795 Z" id="ios-logo"></path>
                </g>
            </g>
        </g>
    </g>
</svg>