<?xml version="1.0" encoding="UTF-8"?>
<svg width="134px" height="73px" viewBox="0 0 134 73" version="1.1" xmlns="http://www.w3.org/2000/svg" xmlns:xlink="http://www.w3.org/1999/xlink">
    <!-- Generator: Sketch 45.2 (43514) - http://www.bohemiancoding.com/sketch -->
    <title>xignux-logo</title>
    <desc>Created with Sketch.</desc>
    <defs></defs>
    <g id="Design" stroke="none" stroke-width="1" fill="none" fill-rule="evenodd">
        <g id="main" transform="translate(-400.000000, -2692.000000)" fill="#FFFFFF">
            <g id="Colaboradores" transform="translate(232.000000, 2292.000000)">
                <g id="Group-3" transform="translate(127.389901, 393.222932)">
                    <path d="M144.340466,14.9582516 L145.555032,19.0766233 C148.20981,26.8663258 141.191228,29.2381799 141.191228,29.2381799 C144.115474,22.7473034 138.401062,15.9434333 138.401062,15.9434333 C136.331656,13.391982 136.601124,12.3170017 136.601124,12.3170017 C136.376785,10.7500813 137.636481,9.09401311 137.636481,9.09401311 C141.775946,5.42333298 144.655063,9.36210745 144.655063,9.36210745 L146.230009,11.6012158 C146.230009,11.6012158 144.115474,12.7646932 144.340466,14.9582516 Z M166.699075,21.3071422 L162.559609,22.5155189 C154.730662,25.1567688 152.346006,18.1739522 152.346006,18.1739522 C158.870128,21.0832964 165.708847,15.3980044 165.708847,15.3980044 C168.274021,13.3391439 169.353853,13.6072383 169.353853,13.6072383 C170.928145,13.3833925 172.59335,14.6373192 172.59335,14.6373192 C176.282831,18.7556909 172.323228,21.6201358 172.323228,21.6201358 L170.07396,23.1870562 C170.07396,23.1870562 168.903869,21.0826457 166.699075,21.3071422 Z M159.999864,43.5184986 L158.785298,39.4001269 C156.129866,31.6110751 163.149102,29.2385703 163.149102,29.2385703 C160.224857,35.7294468 165.939268,42.5333169 165.939268,42.5333169 C168.008674,45.0847682 167.739207,46.1597485 167.739207,46.1597485 C167.963545,47.7260181 166.70385,49.3827371 166.70385,49.3827371 C162.564384,53.0534172 159.684613,49.113992 159.684613,49.113992 L158.110321,46.8761851 C158.110321,46.8761851 160.224857,45.7120569 159.999864,43.5184986 Z M137.959318,37.169608 L142.098784,35.9612313 C149.927731,33.3199814 152.312388,40.302798 152.312388,40.302798 C145.788265,37.3934537 138.949546,43.0787458 138.949546,43.0787458 C136.384372,45.1376062 135.30454,44.8695119 135.30454,44.8695119 C133.730248,45.0933577 132.065043,43.8394309 132.065043,43.8394309 C128.375562,39.7210593 132.334511,36.8566143 132.334511,36.8566143 L134.584434,35.289694 C134.584434,35.289694 135.754525,37.3941045 137.959318,37.169608 Z M58.3280706,51.1040069 C59.1462838,51.3922734 60.8435368,51.1879491 60.8435368,51.1879491 L53.9263318,58.7206194 L59.659711,66.6879669 C60.874931,68.3616044 62.4328718,68.0830986 62.4328718,68.0830986 L63.7350802,68.0830986 C64.9816944,67.86576 65.0189751,66.9046548 65.0189751,66.9046548 L65.0189751,55.6199651 C65.0497154,54.5352241 64.520591,54.4421719 64.520591,54.4421719 L62.6199294,53.883859 L62.6199294,52.9234045 C66.0157433,52.1171693 69.007356,50.442881 69.007356,50.442881 L69.6306631,50.846324 L69.6306631,66.5018626 C69.5685286,68.3616044 71.1258154,68.1143329 71.1258154,68.1143329 L72.2167664,68.1143329 L72.2167664,69.4164125 C68.6646351,69.0435532 55.889128,69.4164125 55.889128,69.4164125 L50.7797099,62.5338059 L45.2955228,69.2914754 L42.3045642,69.2914754 L49.8234927,61.1386742 C49.8234927,61.1386742 44.6728697,54.5052912 44.1116971,53.4205503 C43.5511785,52.3351586 42.2110354,52.3657422 42.2110354,52.3657422 L41.3189148,52.3657422 L41.3189148,51.1040069 C41.3189148,51.1040069 46.4459921,51.5243684 48.1949148,51.1040069 L52.9596498,57.4055255 L58.3280706,51.1040069 Z M69.7965949,42.3486442 C69.7965949,43.7515845 68.6526661,44.889684 67.24254,44.889684 C65.8317598,44.889684 64.6878309,43.7515845 64.6878309,42.3486442 C64.6878309,40.9450531 65.8317598,39.8076043 67.24254,39.8076043 C68.6526661,39.8076043 69.7965949,40.9450531 69.7965949,42.3486442 Z M107.551152,67.0686999 C107.551152,67.0686999 107.472012,68.5777067 110.075775,68.2289238 L110.075775,69.5049748 C110.075775,69.5049748 103.60463,69.1191011 100.495943,69.5049748 L100.495943,68.2490959 C100.495943,68.2490959 102.925075,68.7514474 102.925075,67.011437 L102.925075,56.5700732 C102.925075,56.5700732 102.788379,50.9830391 95.9679732,54.850235 L95.9091089,69.354009 L92.0031381,69.354009 C92.0031381,69.354009 92.7023147,72.7370734 90.2542154,75.4440454 C90.2542154,75.4440454 88.466704,77.9577553 83.0642727,78.8271098 C83.0642727,78.8271098 78.1092099,79.252677 75.4073402,77.5894509 C75.4073402,77.5894509 73.3667125,76.5066621 73.3863339,74.4185195 C73.3863339,74.4185195 72.8035777,71.4798931 78.2642191,69.6240555 C78.2642191,69.6240555 74.0861646,69.6624477 74.0665431,65.1952931 L77.6422201,62.7011046 C77.6422201,62.7011046 74.630332,61.4823165 73.9501227,58.8143873 C73.9501227,58.8143873 72.628293,55.1593243 75.5047933,52.6651359 C75.5047933,52.6651359 77.8946824,50.3264682 81.8013073,50.3648604 C81.8013073,50.3648604 85.1049005,50.5581226 86.0179506,51.1580813 C86.0179506,51.1580813 86.6981599,51.6799542 88.4084938,51.6799542 C88.4084938,51.6799542 93.0718515,52.0079143 95.482016,50.3642097 L95.9091089,50.732514 L95.9091089,53.4199646 C95.9091089,53.4199646 99.6790379,50.3056454 102.808001,50.3642097 C102.808001,50.3642097 105.490249,50.2295118 106.947466,52.6267437 C106.947466,52.6267437 107.588433,53.8058383 107.549844,55.604413 L107.551152,67.0686999 Z M91.3124641,55.3063858 C91.3124641,55.3063858 91.3719824,54.4955956 90.6172117,54.3172998 L88.9291155,53.879369 C88.9291155,53.879369 90.7787614,57.3229498 88.3921426,60.4099391 C88.3921426,60.4099391 85.1696512,64.6252672 78.9633958,63.0817726 L78.083048,63.9680456 L78.083048,64.6695158 C78.083048,64.6695158 77.7455596,66.0425232 81.0419583,66.111499 C81.0419583,66.111499 85.650376,65.9995761 86.1866949,65.9208396 C86.1866949,65.9208396 89.5242986,65.7028503 91.3124641,67.6003336 L91.3124641,55.3063858 Z M83.1636879,77.3389258 C86.4470057,76.9537029 88.9160345,75.0126217 88.6779613,73.0058184 C88.439234,70.9977137 85.5843172,69.6832705 82.3009995,70.0691442 C79.0176817,70.4543671 76.5486529,72.3954483 76.7867261,74.4029023 C77.0247994,76.4103563 79.8803702,77.7247995 83.1636879,77.3389258 Z M81.162303,51.7085857 C79.3466675,51.8797236 78.0935128,54.3081898 78.3629803,57.1329412 C78.6317937,59.9563911 80.3225062,62.1070023 82.1381417,61.9358644 C83.9544312,61.7640758 85.20824,59.3356096 84.9381184,56.5121596 C84.6686509,53.6874083 82.9785925,51.5367971 81.162303,51.7085857 Z M119.616625,66.4784368 C122.200112,66.3242175 123.611547,64.7455843 123.611547,64.7455843 L123.631822,54.2248333 C123.551374,53.1003988 122.885554,53.0802266 122.885554,53.0802266 L120.584615,52.3768043 L120.584615,51.4339191 C125.589386,51.3532305 128.011323,50.1708824 128.011323,50.1708824 L128.455421,50.4493882 C128.172873,50.7708411 128.193148,54.0641069 128.193148,54.0641069 L128.21277,66.6528283 C128.192494,68.319308 129.04014,68.3388294 129.04014,68.3388294 L130.89698,68.3388294 C132.349619,68.3388294 132.975543,67.3959442 132.975543,67.3959442 L138.646133,61.2115542 L132.490894,53.1400924 C131.562801,52.3169386 130.210885,52.4379715 130.210885,52.4379715 L130.23116,51.2530205 C130.836154,51.5341291 136.991394,51.3538812 136.991394,51.3538812 L141.794717,57.5376205 L146.960384,51.413747 C147.263207,51.4339191 149.664869,51.3532305 149.664869,51.3532305 L142.763362,58.9021687 L148.333229,66.5929626 C149.342424,68.1585815 150.734237,68.2379687 150.734237,68.2379687 L151.642055,68.2184472 L151.642055,69.4834361 C149.886591,69.3025375 144.619548,69.3422311 144.619548,69.3422311 L139.634399,62.4960645 L134.023981,69.3220589 C125.930799,69.1216389 124.136093,69.7437219 124.136093,69.7437219 L123.651444,69.3018868 L123.651444,66.4914511 C120.523789,69.8836255 116.982123,69.6038183 116.982123,69.6038183 C116.982123,69.6038183 114.299874,69.7385162 112.842657,67.3412842 C112.842657,67.3412842 112.20169,66.1621896 112.240279,64.3642656 L112.238971,54.0608533 C112.238317,52.8648402 111.399828,52.8921702 111.399828,52.8921702 L109.610355,52.40934 L109.610355,51.3662448 C113.879322,51.2393555 116.53737,50.1708824 116.53737,50.1708824 L116.99782,50.4760675 C116.768249,51.6206742 116.865048,54.2189769 116.865048,54.2189769 L116.865048,63.3979547 C116.865048,63.3979547 116.93961,66.6378619 119.616625,66.4784368 Z M154.275315,55.2704013 C153.753385,55.2704013 153.266774,55.0706319 152.903777,54.7088347 C152.533587,54.3398796 152.331486,53.8407817 152.33214,53.3065451 C152.333448,52.2035841 153.187634,51.3394354 154.276623,51.3394354 C155.367574,51.3394354 156.223068,52.2035841 156.224376,53.3065451 C156.218489,54.4069032 155.362995,55.2704013 154.275315,55.2704013 Z" id="xignux-logo"></path>
                </g>
            </g>
        </g>
    </g>
</svg>