<?xml version="1.0" encoding="UTF-8"?>
<svg width="131px" height="65px" viewBox="0 0 131 65" version="1.1" xmlns="http://www.w3.org/2000/svg" xmlns:xlink="http://www.w3.org/1999/xlink">
    <!-- Generator: Sketch 45.2 (43514) - http://www.bohemiancoding.com/sketch -->
    <title>ccm-logo</title>
    <desc>Created with Sketch.</desc>
    <defs></defs>
    <g id="Design" stroke="none" stroke-width="1" fill="none" fill-rule="evenodd">
        <g id="main" transform="translate(-1035.000000, -2515.000000)" fill="#FFFFFF">
            <g id="Colaboradores" transform="translate(232.000000, 2292.000000)">
                <g id="Group-4" transform="translate(0.850724, 211.789803)">
                    <path d="M805.499413,70.5030308 C805.188475,70.1459265 804.809593,69.9672257 804.362768,69.9672257 C804.176146,69.9672257 804.001985,70.0052851 803.840879,70.0819986 C803.679476,70.1587121 803.539731,70.2606994 803.420756,70.3882579 C803.302374,70.5158164 803.208915,70.664486 803.140971,70.8342666 C803.073028,71.0046419 803.039204,71.180072 803.039204,71.3617462 C803.039204,71.5657209 803.073028,71.7539366 803.140971,71.9266906 C803.208915,72.099742 803.303561,72.2487089 803.425207,72.373294 C803.546556,72.4981764 803.691047,72.5957037 803.858087,72.6667677 C804.024534,72.7378318 804.209673,72.7732151 804.413503,72.7732151 C804.634245,72.7732151 804.833329,72.7262356 805.011347,72.6325737 C805.189958,72.5392092 805.352548,72.410164 805.499413,72.2457355 L805.499413,73.2233866 C805.324065,73.3203192 805.147234,73.3878151 804.969216,73.4276586 C804.790901,73.467502 804.603092,73.4871264 804.405196,73.4871264 C804.110873,73.4871264 803.835241,73.4344974 803.578005,73.329834 C803.320473,73.2248733 803.095873,73.0788798 802.903317,72.8918535 C802.711354,72.7048271 802.558556,72.4836068 802.445514,72.2290845 C802.331879,71.9736702 802.275507,71.6959554 802.275507,71.3953456 C802.275507,71.0896809 802.330693,70.80483 802.441064,70.5410902 C802.551435,70.2773504 802.704234,70.050778 802.899163,69.8610756 C803.09439,69.6710759 803.324626,69.522109 803.590763,69.4147696 C803.856307,69.3071328 804.142322,69.2530171 804.447623,69.2530171 C804.628312,69.2530171 804.81078,69.2744255 804.994732,69.316945 C805.178387,69.3591671 805.346614,69.4260684 805.499413,69.5167569 L805.499413,70.5030308 Z M806.593541,71.4890371 C806.593541,71.6594125 806.622024,71.8235437 806.678693,71.9826201 C806.735066,72.1411019 806.815767,72.2811486 806.920204,72.4030576 C807.024938,72.5249667 807.150738,72.6227913 807.297899,72.6965314 C807.445061,72.7702715 807.608837,72.8068442 807.789822,72.8068442 C808.083849,72.8068442 808.318832,72.7378615 808.49418,72.5987068 C808.669231,72.4598494 808.830337,72.2713364 808.977796,72.0331678 L809.622221,72.3988949 C809.435599,72.7447003 809.179846,73.0126029 808.854667,73.2023052 C808.529487,73.392305 808.171671,73.4871561 807.781515,73.4871561 C807.475917,73.4871561 807.202956,73.4330404 806.962929,73.3254037 C806.722308,73.2180642 806.518774,73.070584 806.35203,72.8835577 C806.18499,72.6965314 806.056224,72.4756084 805.966028,72.2201941 C805.875239,71.9650771 805.830141,71.6906331 805.830141,71.3953753 C805.830141,71.0897107 805.871085,70.8060491 805.95327,70.54558 C806.034861,70.2848136 806.156804,70.0582412 806.31791,69.8649707 C806.479016,69.6725923 806.67988,69.5221387 806.920204,69.4147993 C807.160825,69.3068652 807.442094,69.2530468 807.764306,69.2530468 C808.080882,69.2530468 808.355326,69.3080545 808.587343,69.4186647 C808.81936,69.5295722 809.011619,69.6794311 809.164121,69.8694308 C809.31692,70.0594305 809.431445,70.2833269 809.507993,70.54112 C809.583947,70.7992103 809.622221,71.0754384 809.622221,71.3701015 L809.622221,71.4890371 L806.593541,71.4890371 Z M808.85882,70.9110098 C808.813722,70.6104 808.696231,70.3698526 808.506641,70.1881784 C808.317052,70.0070989 808.069904,69.9161131 807.764306,69.9161131 C807.464643,69.9161131 807.213044,70.0097749 807.00951,70.1968012 C806.805976,70.3838275 806.681363,70.6219962 806.636266,70.9110098 L808.85882,70.9110098 Z M810.852681,69.9077876 L810.869593,69.9077876 C810.988568,69.6922167 811.156499,69.5295722 811.374274,69.4186647 C811.591753,69.3080545 811.822583,69.2530468 812.065577,69.2530468 C812.342989,69.2530468 812.573225,69.297053 812.757177,69.384768 C812.941129,69.4727804 813.085027,69.5946895 813.189761,69.7504952 C813.294495,69.9063009 813.368076,70.0891645 813.410503,70.2987886 C813.452931,70.50871 813.473996,70.7352824 813.473996,70.9791005 L813.473996,73.3509748 L812.710596,73.3509748 L812.710596,71.072465 C812.710596,70.902387 812.701992,70.748068 812.68508,70.6092106 C812.667871,70.4703532 812.628411,70.3499309 812.566401,70.2479436 C812.503798,70.1459562 812.415086,70.0680534 812.299078,70.0139377 C812.183069,69.9604166 812.028787,69.9333587 811.836527,69.9333587 C811.587896,69.9333587 811.396823,69.9830144 811.263903,70.0820283 C811.130983,70.1813396 811.034853,70.3074114 810.97581,70.4602437 C810.916471,70.6133734 810.880571,70.7834513 810.869593,70.9704777 C810.858022,71.157504 810.852681,71.3418543 810.852681,71.5232311 L810.852681,73.3509748 L810.089281,73.3509748 L810.089281,69.3719825 L810.852681,69.3719825 L810.852681,69.9077876 Z M815.213025,73.3509748 L814.449624,73.3509748 L814.449624,70.0861911 L814.033655,70.0861911 L814.033655,69.3719825 L814.449624,69.3719825 L814.449624,67.8502007 L815.213025,67.8502007 L815.213025,69.3719825 L815.959513,69.3719825 L815.959513,70.0861911 L815.213025,70.0861911 L815.213025,73.3509748 Z M817.003203,70.0181301 L817.028422,70.0181301 C817.124552,69.7802588 817.266076,69.5929352 817.452699,69.4570512 C817.639321,69.3208699 817.860063,69.2530765 818.114332,69.2530765 C818.227374,69.2530765 818.336558,69.2697275 818.440995,69.3042189 C818.545729,69.3381155 818.645716,69.3862845 818.742439,69.4487257 L818.394414,70.145986 C818.32647,70.0838421 818.254373,70.0410253 818.177825,70.0181301 C818.101574,69.9958297 818.017906,69.9845308 817.928007,69.9845308 C817.724176,69.9845308 817.560103,70.0282397 817.435787,70.1162521 C817.311471,70.2039671 817.218012,70.3157666 817.155705,70.4519479 C817.093399,70.5878319 817.052752,70.7394749 817.032873,70.9068768 C817.012697,71.0739814 817.003203,71.2372206 817.003203,71.395405 L817.003203,73.3510046 L816.239506,73.3510046 L816.239506,69.3720122 L817.003203,69.3720122 L817.003203,70.0181301 Z M820.744073,69.2529873 C821.0381,69.2529873 821.315511,69.3071031 821.575714,69.4147398 C821.835917,69.5220793 822.060517,69.6710462 822.250106,69.8610459 C822.439695,70.0510456 822.589527,70.274942 822.699601,70.532735 C822.809972,70.790528 822.864861,71.0697295 822.864861,71.370042 C822.864861,71.6706519 822.809972,71.9498533 822.699601,72.2076464 C822.589527,72.4657367 822.439695,72.6896331 822.250106,72.8790381 C822.060517,73.0690378 821.835917,73.2180048 821.575714,73.3253442 C821.315511,73.4332783 821.0381,73.4870967 820.744073,73.4870967 C820.444113,73.4870967 820.165812,73.4332783 819.908576,73.3253442 C819.651043,73.2180048 819.42763,73.0690378 819.238338,72.8790381 C819.049045,72.6896331 818.899214,72.4657367 818.788842,72.2076464 C818.678768,71.9498533 818.623286,71.6706519 818.623286,71.370042 C818.623286,71.0697295 818.678768,70.790528 818.788842,70.532735 C818.899214,70.274942 819.049045,70.0510456 819.238338,69.8610459 C819.42763,69.6710462 819.651043,69.5220793 819.908576,69.4147398 C820.165812,69.3071031 820.444113,69.2529873 820.744073,69.2529873 Z M820.744073,69.9844416 C820.557748,69.9844416 820.380917,70.0213117 820.213877,70.0947544 C820.047133,70.1684945 819.902938,70.2678058 819.781293,70.3923909 C819.659647,70.516976 819.563517,70.6644562 819.492904,70.8342369 C819.421993,71.0046122 819.386983,71.1830157 819.386983,71.370042 C819.386983,71.5570683 819.421993,71.7342824 819.492904,71.901387 C819.563517,72.068789 819.659647,72.2162692 819.781293,72.3438277 C819.902938,72.4707915 820.047133,72.5718868 820.213877,72.6453296 C820.380917,72.7190697 820.557748,72.7556424 820.744073,72.7556424 C820.930696,72.7556424 821.107824,72.7190697 821.27427,72.6453296 C821.441311,72.5718868 821.585208,72.4707915 821.707151,72.3438277 C821.828796,72.2162692 821.924629,72.068789 821.995837,71.901387 C822.066154,71.7342824 822.101461,71.5570683 822.101461,71.370042 C822.101461,71.1830157 822.066154,71.0046122 821.995837,70.8342369 C821.924629,70.6644562 821.828796,70.516976 821.707151,70.3923909 C821.585208,70.2678058 821.441311,70.1684945 821.27427,70.0947544 C821.107824,70.0213117 820.930696,69.9844416 820.744073,69.9844416 Z M828.600126,72.7301307 L828.583215,72.7301307 C828.430416,72.9572978 828.23786,73.139864 828.006436,73.2790187 C827.77442,73.4175788 827.516887,73.4871561 827.234432,73.4871561 C826.929131,73.4871561 826.657653,73.429175 826.419703,73.3126181 C826.182345,73.1969531 825.982965,73.0393634 825.821859,72.8410382 C825.660456,72.6424156 825.53881,72.4131672 825.456922,72.1524007 C825.375034,71.8916343 825.333793,71.619569 825.333793,71.3362048 C825.333793,71.0641395 825.378001,70.8018864 825.465526,70.5494454 C825.553052,70.2975992 825.677368,70.0763789 825.838771,69.8866765 C825.999877,69.6966768 826.195103,69.5435471 826.424153,69.4275849 C826.653203,69.3110279 826.911922,69.2530468 827.200608,69.2530468 C827.499975,69.2530468 827.765815,69.3238135 827.997832,69.4659416 C828.229849,69.6074751 828.424779,69.7971774 828.583215,70.0353461 L828.600126,70.0353461 L828.600126,65.9713147 L829.363824,65.9713147 L829.363824,73.3509748 L828.600126,73.3509748 L828.600126,72.7301307 Z M827.35311,72.8068442 C827.562282,72.8068442 827.745937,72.7684874 827.904373,72.6920713 C828.062809,72.6156551 828.197212,72.5109917 828.307584,72.3777838 C828.417658,72.2445759 828.501326,72.0914462 828.557699,71.9186922 C828.614368,71.7459381 828.642851,71.5601012 828.642851,71.361776 C828.642851,71.1691002 828.614368,70.9859393 828.557699,70.8131853 C828.501326,70.6407286 828.417658,70.4887883 828.307584,70.3582564 C828.197212,70.2280218 828.061622,70.1245478 827.900219,70.0481317 C827.739113,69.9717155 827.556941,69.9333587 827.35311,69.9333587 C827.154917,69.9333587 826.978382,69.9732022 826.822913,70.0522944 C826.667148,70.1319813 826.536008,70.237834 826.428307,70.371042 C826.320903,70.5045472 826.239014,70.6558929 826.182345,70.8259708 C826.125676,70.9960488 826.09749,71.1744523 826.09749,71.361776 C826.09749,71.5488023 826.125676,71.7283951 826.182345,71.9014465 C826.239014,72.0742006 826.319419,72.2291142 826.424153,72.3649982 C826.528887,72.5011796 826.65884,72.608519 826.814309,72.6879085 C826.969778,72.7672981 827.149576,72.8068442 827.35311,72.8068442 Z M830.627573,71.4890371 C830.627573,71.6594125 830.65576,71.8235437 830.712725,71.9826201 C830.769098,72.1411019 830.849799,72.2811486 830.954237,72.4030576 C831.05897,72.5249667 831.184473,72.6227913 831.331931,72.6965314 C831.479093,72.7702715 831.642869,72.8068442 831.823854,72.8068442 C832.117881,72.8068442 832.352865,72.7378615 832.528212,72.5987068 C832.703263,72.4598494 832.86437,72.2713364 833.011828,72.0331678 L833.656253,72.3988949 C833.469631,72.7447003 833.213878,73.0126029 832.888699,73.2023052 C832.563519,73.392305 832.205703,73.4871561 831.815547,73.4871561 C831.509949,73.4871561 831.236988,73.4330404 830.996961,73.3254037 C830.75634,73.2180642 830.552806,73.070584 830.386062,72.8835577 C830.219022,72.6965314 830.090256,72.4756084 830.00006,72.2201941 C829.909271,71.9650771 829.864173,71.6906331 829.864173,71.3953753 C829.864173,71.0897107 829.905117,70.8060491 829.987302,70.54558 C830.068894,70.2848136 830.190836,70.0582412 830.351942,69.8649707 C830.513049,69.6725923 830.713912,69.5221387 830.954237,69.4147993 C831.194858,69.3068652 831.476126,69.2530468 831.798339,69.2530468 C832.114914,69.2530468 832.389358,69.3080545 832.621375,69.4186647 C832.853392,69.5295722 833.045651,69.6794311 833.198153,69.8694308 C833.350952,70.0594305 833.465477,70.2833269 833.542025,70.54112 C833.617979,70.7992103 833.656253,71.0754384 833.656253,71.3701015 L833.656253,71.4890371 L830.627573,71.4890371 Z M832.892853,70.9110098 C832.847755,70.6104 832.730263,70.3698526 832.540674,70.1881784 C832.351084,70.0070989 832.103936,69.9161131 831.798339,69.9161131 C831.498675,69.9161131 831.247076,70.0097749 831.043542,70.1968012 C830.840008,70.3838275 830.715396,70.6219962 830.670298,70.9110098 L832.892853,70.9110098 Z M839.306307,70.5030308 C838.995369,70.1459265 838.616487,69.9672257 838.169662,69.9672257 C837.98304,69.9672257 837.808879,70.0052851 837.647773,70.0819986 C837.48637,70.1587121 837.346626,70.2606994 837.22765,70.3882579 C837.109268,70.5158164 837.015809,70.664486 836.947865,70.8342666 C836.880218,71.0046419 836.846098,71.180072 836.846098,71.3617462 C836.846098,71.5657209 836.880218,71.7539366 836.947865,71.9266906 C837.015809,72.099742 837.110455,72.2487089 837.232101,72.373294 C837.35345,72.4981764 837.497941,72.5957037 837.664981,72.6667677 C837.831428,72.7378318 838.016567,72.7732151 838.220397,72.7732151 C838.44114,72.7732151 838.640223,72.7262356 838.818241,72.6325737 C838.996852,72.5392092 839.159442,72.410164 839.306307,72.2457355 L839.306307,73.2233866 C839.130959,73.3203192 838.954128,73.3878151 838.77611,73.4276586 C838.597795,73.467502 838.409986,73.4871264 838.21209,73.4871264 C837.918063,73.4871264 837.642135,73.4344974 837.384899,73.329834 C837.127367,73.2248733 836.902767,73.0788798 836.710211,72.8918535 C836.518248,72.7048271 836.36545,72.4836068 836.252408,72.2290845 C836.13907,71.9736702 836.082401,71.6959554 836.082401,71.3953456 C836.082401,71.0896809 836.137587,70.80483 836.247958,70.5410902 C836.358329,70.2773504 836.511128,70.050778 836.706057,69.8610756 C836.901284,69.6710759 837.13152,69.522109 837.397657,69.4147696 C837.663201,69.3071328 837.949216,69.2530171 838.254517,69.2530171 C838.435502,69.2530171 838.617674,69.2744255 838.801626,69.316945 C838.985281,69.3591671 839.153508,69.4260684 839.306307,69.5167569 L839.306307,70.5030308 Z M841.706969,69.2529873 C842.000995,69.2529873 842.278407,69.3071031 842.53861,69.4147398 C842.798813,69.5220793 843.023412,69.6710462 843.213001,69.8610459 C843.40259,70.0510456 843.552125,70.274942 843.662497,70.532735 C843.772868,70.790528 843.827757,71.0697295 843.827757,71.370042 C843.827757,71.6706519 843.772868,71.9498533 843.662497,72.2076464 C843.552125,72.4657367 843.40259,72.6896331 843.213001,72.8790381 C843.023412,73.0690378 842.798813,73.2180048 842.53861,73.3253442 C842.278407,73.4332783 842.000995,73.4870967 841.706969,73.4870967 C841.407008,73.4870967 841.128707,73.4332783 840.871471,73.3253442 C840.613938,73.2180048 840.390526,73.0690378 840.201233,72.8790381 C840.011941,72.6896331 839.862109,72.4657367 839.751738,72.2076464 C839.641663,71.9498533 839.586181,71.6706519 839.586181,71.370042 C839.586181,71.0697295 839.641663,70.790528 839.751738,70.532735 C839.862109,70.274942 840.011941,70.0510456 840.201233,69.8610459 C840.390526,69.6710462 840.613938,69.5220793 840.871471,69.4147398 C841.128707,69.3071031 841.407008,69.2529873 841.706969,69.2529873 Z M841.706969,69.9844416 C841.520643,69.9844416 841.343812,70.0213117 841.176772,70.0947544 C841.010028,70.1684945 840.865834,70.2678058 840.744188,70.3923909 C840.622542,70.516976 840.526413,70.6644562 840.455799,70.8342369 C840.384888,71.0046122 840.349878,71.1830157 840.349878,71.370042 C840.349878,71.5570683 840.384888,71.7342824 840.455799,71.901387 C840.526413,72.068789 840.622542,72.2162692 840.744188,72.3438277 C840.865834,72.4707915 841.010028,72.5718868 841.176772,72.6453296 C841.343812,72.7190697 841.520643,72.7556424 841.706969,72.7556424 C841.893591,72.7556424 842.070719,72.7190697 842.237166,72.6453296 C842.404206,72.5718868 842.548104,72.4707915 842.670046,72.3438277 C842.791692,72.2162692 842.887525,72.068789 842.958732,71.901387 C843.029049,71.7342824 843.064356,71.5570683 843.064356,71.370042 C843.064356,71.1830157 843.029049,71.0046122 842.958732,70.8342369 C842.887525,70.6644562 842.791692,70.516976 842.670046,70.3923909 C842.548104,70.2678058 842.404206,70.1684945 842.237166,70.0947544 C842.070719,70.0213117 841.893591,69.9844416 841.706969,69.9844416 Z M845.075099,69.8738017 L845.092011,69.8738017 C845.205052,69.6980743 845.355181,69.5505941 845.541506,69.4316584 C845.728425,69.3127228 845.928992,69.2529576 846.144097,69.2529576 C846.404003,69.2529576 846.627416,69.3156962 846.814335,69.4402813 C847.000957,69.5651637 847.159096,69.7376204 847.289346,69.9588407 C847.413662,69.7435672 847.584559,69.5720025 847.802631,69.444444 C848.020407,69.3168855 848.256577,69.2529576 848.511143,69.2529576 C848.771049,69.2529576 848.986154,69.2999372 849.155568,69.393599 C849.325575,69.4866662 849.459682,69.6133326 849.558779,69.7715171 C849.657579,69.9302962 849.727006,70.1134571 849.766763,70.3201078 C849.805927,70.5270558 849.825806,70.7441134 849.825806,70.9703885 L849.825806,73.3508856 L849.062406,73.3508856 L849.062406,71.097947 C849.062406,70.9730645 849.055285,70.8416406 849.04134,70.7027832 C849.026802,70.5639259 848.994462,70.4375567 848.943727,70.3245679 C848.892695,70.2109843 848.819114,70.1173225 848.722985,70.0435824 C848.626855,69.9701396 848.493935,69.9332695 848.324521,69.9332695 C848.12069,69.9332695 847.960771,69.9814385 847.845059,70.0780737 C847.729051,70.1744116 847.641525,70.2945366 847.581889,70.4390434 C847.522847,70.5838476 847.485759,70.7408427 847.471815,70.9109206 C847.457573,71.0809986 847.450453,71.2427511 847.450453,71.3952861 L847.450453,73.3508856 L846.687052,73.3508856 L846.687052,71.2427511 C846.687052,71.1122192 846.681415,70.9703885 846.669844,70.8175561 C846.658866,70.6644265 846.630383,70.5228931 846.585285,70.3923612 C846.53989,70.2621266 846.467496,70.1527058 846.368696,70.0652881 C846.2696,69.9772757 846.132526,69.9332695 845.957475,69.9332695 C845.753941,69.9332695 845.592538,69.9799518 845.473859,70.0733163 C845.355181,70.1669781 845.265875,70.2862111 845.206536,70.4307179 C845.147196,70.5749274 845.110406,70.7340039 845.096461,70.9070552 C845.081923,71.0798093 845.075099,71.2427511 845.075099,71.3952861 L845.075099,73.3508856 L844.311698,73.3508856 L844.311698,69.3721906 L845.075099,69.3721906 L845.075099,69.8738017 Z M851.3613,70.0353461 L851.378509,70.0353461 C851.536648,69.7971774 851.731874,69.6074751 851.963891,69.4659416 C852.195611,69.3238135 852.461452,69.2530468 852.761115,69.2530468 C853.049801,69.2530468 853.308521,69.3110279 853.537867,69.4275849 C853.76662,69.5435471 853.961847,69.6966768 854.122953,69.8866765 C854.284059,70.0763789 854.408672,70.2975992 854.496197,70.5494454 C854.583723,70.8018864 854.627634,71.0641395 854.627634,71.3362048 C854.627634,71.619569 854.585503,71.8916343 854.500351,72.1524007 C854.415793,72.4131672 854.292663,72.6424156 854.131557,72.8410382 C853.970154,73.0393634 853.772257,73.1969531 853.537867,73.3126181 C853.302883,73.429175 853.032593,73.4871561 852.727292,73.4871561 C852.44454,73.4871561 852.187304,73.4175788 851.955287,73.2790187 C851.72327,73.139864 851.531011,72.9572978 851.378509,72.7301307 L851.3613,72.7301307 L851.3613,75.6294846 L850.5979,75.6294846 L850.5979,69.3719825 L851.3613,69.3719825 L851.3613,70.0353461 Z M852.57479,72.8068442 C852.783961,72.8068442 852.967616,72.7684874 853.126052,72.6920713 C853.284488,72.6156551 853.418892,72.5109917 853.528966,72.3777838 C853.639337,72.2445759 853.723006,72.0914462 853.779378,71.9186922 C853.836047,71.7459381 853.864233,71.5601012 853.864233,71.361776 C853.864233,71.1691002 853.836047,70.9859393 853.779378,70.8131853 C853.723006,70.6407286 853.639337,70.4887883 853.528966,70.3582564 C853.418892,70.2280218 853.283005,70.1245478 853.121898,70.0481317 C852.960792,69.9717155 852.778324,69.9333587 852.57479,69.9333587 C852.376596,69.9333587 852.200062,69.9732022 852.044593,70.0522944 C851.88853,70.1319813 851.75739,70.237834 851.649986,70.371042 C851.542285,70.5045472 851.460397,70.6558929 851.404025,70.8259708 C851.347356,70.9960488 851.319169,71.1744523 851.319169,71.361776 C851.319169,71.5488023 851.347356,71.7283951 851.404025,71.9014465 C851.460397,72.0742006 851.541098,72.2291142 851.645536,72.3649982 C851.750566,72.5011796 851.880519,72.608519 852.035989,72.6879085 C852.191458,72.7672981 852.370959,72.8068442 852.57479,72.8068442 Z M855.645571,71.4890371 C855.645571,71.6594125 855.673757,71.8235437 855.730722,71.9826201 C855.787095,72.1411019 855.867796,72.2811486 855.972234,72.4030576 C856.076967,72.5249667 856.20247,72.6227913 856.349928,72.6965314 C856.49709,72.7702715 856.660867,72.8068442 856.841851,72.8068442 C857.135878,72.8068442 857.370862,72.7378615 857.546209,72.5987068 C857.72126,72.4598494 857.882367,72.2713364 858.029825,72.0331678 L858.67425,72.3988949 C858.487628,72.7447003 858.231875,73.0126029 857.906696,73.2023052 C857.581516,73.392305 857.2237,73.4871561 856.833544,73.4871561 C856.527946,73.4871561 856.254985,73.4330404 856.014958,73.3254037 C855.774337,73.2180642 855.570803,73.070584 855.404059,72.8835577 C855.237019,72.6965314 855.108253,72.4756084 855.018057,72.2201941 C854.927268,71.9650771 854.88217,71.6906331 854.88217,71.3953753 C854.88217,71.0897107 854.923114,70.8060491 855.005299,70.54558 C855.086891,70.2848136 855.208833,70.0582412 855.369939,69.8649707 C855.531046,69.6725923 855.731909,69.5221387 855.972234,69.4147993 C856.212855,69.3068652 856.494123,69.2530468 856.816336,69.2530468 C857.132911,69.2530468 857.407355,69.3080545 857.639372,69.4186647 C857.871389,69.5295722 858.063648,69.6794311 858.21615,69.8694308 C858.368949,70.0594305 858.483474,70.2833269 858.560022,70.54112 C858.635976,70.7992103 858.67425,71.0754384 858.67425,71.3701015 L858.67425,71.4890371 L855.645571,71.4890371 Z M857.91085,70.9110098 C857.865752,70.6104 857.74826,70.3698526 857.558671,70.1881784 C857.369081,70.0070989 857.121933,69.9161131 856.816336,69.9161131 C856.516672,69.9161131 856.265073,70.0097749 856.061539,70.1968012 C855.858005,70.3838275 855.733393,70.6219962 855.688295,70.9110098 L857.91085,70.9110098 Z M860.014963,73.3509748 L859.251266,73.3509748 L859.251266,70.0861911 L858.835594,70.0861911 L858.835594,69.3719825 L859.251266,69.3719825 L859.251266,67.8502007 L860.014963,67.8502007 L860.014963,69.3719825 L860.761452,69.3719825 L860.761452,70.0861911 L860.014963,70.0861911 L860.014963,73.3509748 Z M861.159797,73.3510343 L861.159797,69.3720419 L861.923197,69.3720419 L861.923197,73.3510343 L861.159797,73.3510343 Z M861.541349,67.0171159 C861.688807,67.0171159 861.812826,67.0694476 861.91489,67.1744083 C862.016657,67.2790717 862.067689,67.4054409 862.067689,67.5526237 C862.067689,67.7001039 862.016657,67.8232023 861.91489,67.9225136 C861.812826,68.0215276 861.688807,68.0711832 861.541349,68.0711832 C861.394187,68.0711832 861.269871,68.0215276 861.168401,67.9225136 C861.066337,67.8232023 861.015602,67.7001039 861.015602,67.5526237 C861.015602,67.4054409 861.066337,67.2790717 861.168401,67.1744083 C861.269871,67.0694476 861.394187,67.0171159 861.541349,67.0171159 Z M863.832322,73.3509748 L863.068921,73.3509748 L863.068921,70.0861911 L862.652952,70.0861911 L862.652952,69.3719825 L863.068921,69.3719825 L863.068921,67.8502007 L863.832322,67.8502007 L863.832322,69.3719825 L864.57881,69.3719825 L864.57881,70.0861911 L863.832322,70.0861911 L863.832322,73.3509748 Z M864.977689,73.3510343 L864.977689,69.3720419 L865.74109,69.3720419 L865.74109,73.3510343 L864.977689,73.3510343 Z M865.359241,67.0171159 C865.506403,67.0171159 865.630719,67.0694476 865.732782,67.1744083 C865.834253,67.2790717 865.885285,67.4054409 865.885285,67.5526237 C865.885285,67.7001039 865.834253,67.8232023 865.732782,67.9225136 C865.630719,68.0215276 865.506403,68.0711832 865.359241,68.0711832 C865.21208,68.0711832 865.087764,68.0215276 864.985997,67.9225136 C864.88423,67.8232023 864.833495,67.7001039 864.833495,67.5526237 C864.833495,67.4054409 864.88423,67.2790717 864.985997,67.1744083 C865.087764,67.0694476 865.21208,67.0171159 865.359241,67.0171159 Z M868.13383,71.8547048 L869.278782,69.371923 L870.135642,69.371923 L868.13383,73.4870967 L866.140028,69.371923 L866.996592,69.371923 L868.13383,71.8547048 Z M870.534225,73.3510343 L870.534225,69.3720419 L871.297625,69.3720419 L871.297625,73.3510343 L870.534225,73.3510343 Z M870.916073,67.0171159 C871.063235,67.0171159 871.187551,67.0694476 871.289021,67.1744083 C871.390788,67.2790717 871.44182,67.4054409 871.44182,67.5526237 C871.44182,67.7001039 871.390788,67.8232023 871.289021,67.9225136 C871.187551,68.0215276 871.063235,68.0711832 870.916073,68.0711832 C870.768615,68.0711832 870.644596,68.0215276 870.542829,67.9225136 C870.440765,67.8232023 870.39003,67.7001039 870.39003,67.5526237 C870.39003,67.4054409 870.440765,67.2790717 870.542829,67.1744083 C870.644596,67.0694476 870.768615,67.0171159 870.916073,67.0171159 Z M875.293328,72.7301307 L875.276713,72.7301307 C875.123914,72.9572978 874.931358,73.139864 874.699638,73.2790187 C874.467918,73.4175788 874.210385,73.4871561 873.92793,73.4871561 C873.622333,73.4871561 873.350855,73.429175 873.113201,73.3126181 C872.875844,73.1969531 872.676464,73.0393634 872.515061,72.8410382 C872.353954,72.6424156 872.232309,72.4131672 872.150124,72.1524007 C872.068235,71.8916343 872.027291,71.619569 872.027291,71.3362048 C872.027291,71.0641395 872.071202,70.8018864 872.159025,70.5494454 C872.24655,70.2975992 872.370866,70.0763789 872.532269,69.8866765 C872.693079,69.6966768 872.888602,69.5435471 873.117355,69.4275849 C873.346701,69.3110279 873.605421,69.2530468 873.89381,69.2530468 C874.193474,69.2530468 874.459314,69.3238135 874.691331,69.4659416 C874.923051,69.6074751 875.11798,69.7971774 875.276713,70.0353461 L875.293328,70.0353461 L875.293328,65.9713147 L876.057025,65.9713147 L876.057025,73.3509748 L875.293328,73.3509748 L875.293328,72.7301307 Z M874.046609,72.8068442 C874.255483,72.8068442 874.439435,72.7684874 874.597575,72.6920713 C874.756307,72.6156551 874.890711,72.5109917 875.001082,72.3777838 C875.111156,72.2445759 875.194528,72.0914462 875.251197,71.9186922 C875.307866,71.7459381 875.336053,71.5601012 875.336053,71.361776 C875.336053,71.1691002 875.307866,70.9859393 875.251197,70.8131853 C875.194528,70.6407286 875.111156,70.4887883 875.001082,70.3582564 C874.890711,70.2280218 874.754824,70.1245478 874.593717,70.0481317 C874.432611,69.9717155 874.250143,69.9333587 874.046609,69.9333587 C873.848415,69.9333587 873.671584,69.9732022 873.516412,70.0522944 C873.360349,70.1319813 873.229209,70.237834 873.121805,70.371042 C873.014401,70.5045472 872.932216,70.6558929 872.875844,70.8259708 C872.818878,70.9960488 872.790989,71.1744523 872.790989,71.361776 C872.790989,71.5488023 872.818878,71.7283951 872.875844,71.9014465 C872.932216,72.0742006 873.012918,72.2291142 873.117355,72.3649982 C873.222385,72.5011796 873.352042,72.608519 873.507808,72.6879085 C873.663277,72.7672981 873.842778,72.8068442 874.046609,72.8068442 Z M880.587465,73.3509748 L879.823471,73.3509748 L879.823471,72.7301307 L879.806856,72.7301307 C879.654057,72.9572978 879.463281,73.139864 879.234231,73.2790187 C879.004885,73.4175788 878.746165,73.4871561 878.458073,73.4871561 C878.152475,73.4871561 877.882481,73.429175 877.647498,73.3126181 C877.413107,73.1969531 877.215211,73.0393634 877.053808,72.8410382 C876.892701,72.6424156 876.769572,72.4131672 876.685014,72.1524007 C876.599862,71.8916343 876.557434,71.619569 876.557434,71.3362048 C876.557434,71.0641395 876.601642,70.8018864 876.689167,70.5494454 C876.776693,70.2975992 876.901009,70.0763789 877.062115,69.8866765 C877.223221,69.6966768 877.420228,69.5435471 877.652245,69.4275849 C877.883668,69.3110279 878.144168,69.2530468 878.432557,69.2530468 C878.726583,69.2530468 878.989457,69.3238135 879.221473,69.4659416 C879.453193,69.6074751 879.64842,69.7971774 879.806856,70.0353461 L879.823471,70.0353461 L879.823471,69.3719825 L880.587465,69.3719825 L880.587465,73.3509748 Z M878.576752,72.8068442 C878.785626,72.8068442 878.969578,72.7684874 879.128014,72.6920713 C879.28645,72.6156551 879.420854,72.5109917 879.531225,72.3777838 C879.641299,72.2445759 879.724671,72.0914462 879.78134,71.9186922 C879.838009,71.7459381 879.866492,71.5601012 879.866492,71.361776 C879.866492,71.1691002 879.838009,70.9859393 879.78134,70.8131853 C879.724671,70.6407286 879.641299,70.4887883 879.531225,70.3582564 C879.420854,70.2280218 879.285263,70.1245478 879.12386,70.0481317 C878.962754,69.9717155 878.780582,69.9333587 878.576752,69.9333587 C878.378558,69.9333587 878.202024,69.9732022 878.046555,70.0522944 C877.890492,70.1319813 877.759352,70.237834 877.652245,70.371042 C877.544247,70.5045472 877.462359,70.6558929 877.406283,70.8259708 C877.349317,70.9960488 877.321131,71.1744523 877.321131,71.361776 C877.321131,71.5488023 877.349317,71.7283951 877.406283,71.9014465 C877.462359,72.0742006 877.54306,72.2291142 877.647498,72.3649982 C877.752528,72.5011796 877.882481,72.608519 878.03795,72.6879085 C878.193419,72.7672981 878.372921,72.8068442 878.576752,72.8068442 Z M884.35391,72.7301307 L884.336999,72.7301307 C884.184497,72.9572978 883.991644,73.139864 883.76022,73.2790187 C883.528204,73.4175788 883.270968,73.4871561 882.988216,73.4871561 C882.682915,73.4871561 882.411437,73.429175 882.173487,73.3126181 C881.936426,73.1969531 881.736749,73.0393634 881.575643,72.8410382 C881.41424,72.6424156 881.292594,72.4131672 881.210706,72.1524007 C881.128818,71.8916343 881.087577,71.619569 881.087577,71.3362048 C881.087577,71.0641395 881.131785,70.8018864 881.21931,70.5494454 C881.307132,70.2975992 881.431448,70.0763789 881.592554,69.8866765 C881.753661,69.6966768 881.949184,69.5435471 882.17764,69.4275849 C882.406987,69.3110279 882.665706,69.2530468 882.954392,69.2530468 C883.253759,69.2530468 883.519896,69.3238135 883.751616,69.4659416 C883.983633,69.6074751 884.178563,69.7971774 884.336999,70.0353461 L884.35391,70.0353461 L884.35391,65.9713147 L885.117608,65.9713147 L885.117608,73.3509748 L884.35391,73.3509748 L884.35391,72.7301307 Z M883.106894,72.8068442 C883.316065,72.8068442 883.499721,72.7684874 883.658157,72.6920713 C883.816593,72.6156551 883.951293,72.5109917 884.061367,72.3777838 C884.171739,72.2445759 884.25511,72.0914462 884.311483,71.9186922 C884.368152,71.7459381 884.396635,71.5601012 884.396635,71.361776 C884.396635,71.1691002 884.368152,70.9859393 884.311483,70.8131853 C884.25511,70.6407286 884.171739,70.4887883 884.061367,70.3582564 C883.951293,70.2280218 883.815406,70.1245478 883.6543,70.0481317 C883.492897,69.9717155 883.310725,69.9333587 883.106894,69.9333587 C882.908701,69.9333587 882.732166,69.9732022 882.576697,70.0522944 C882.420932,70.1319813 882.289495,70.237834 882.182387,70.371042 C882.074687,70.5045472 881.992502,70.6558929 881.936426,70.8259708 C881.87946,70.9960488 881.851274,71.1744523 881.851274,71.361776 C881.851274,71.5488023 881.87946,71.7283951 881.936426,71.9014465 C881.992502,72.0742006 882.0735,72.2291142 882.17764,72.3649982 C882.282671,72.5011796 882.412624,72.608519 882.56839,72.6879085 C882.723562,72.7672981 882.90336,72.8068442 883.106894,72.8068442 Z M891.149243,72.7301307 L891.132628,72.7301307 C890.979829,72.9572978 890.787273,73.139864 890.555553,73.2790187 C890.323833,73.4175788 890.0663,73.4871561 889.783845,73.4871561 C889.478248,73.4871561 889.20677,73.429175 888.969116,73.3126181 C888.731759,73.1969531 888.532379,73.0393634 888.370976,72.8410382 C888.209869,72.6424156 888.088224,72.4131672 888.006039,72.1524007 C887.924447,71.8916343 887.883206,71.619569 887.883206,71.3362048 C887.883206,71.0641395 887.927117,70.8018864 888.01494,70.5494454 C888.102465,70.2975992 888.226781,70.0763789 888.388184,69.8866765 C888.548994,69.6966768 888.744517,69.5435471 888.97327,69.4275849 C889.202616,69.3110279 889.461336,69.2530468 889.749725,69.2530468 C890.049389,69.2530468 890.315229,69.3238135 890.547246,69.4659416 C890.778966,69.6074751 890.973895,69.7971774 891.132628,70.0353461 L891.149243,70.0353461 L891.149243,65.9713147 L891.91294,65.9713147 L891.91294,73.3509748 L891.149243,73.3509748 L891.149243,72.7301307 Z M889.902524,72.8068442 C890.111398,72.8068442 890.29535,72.7684874 890.453489,72.6920713 C890.612222,72.6156551 890.746626,72.5109917 890.856997,72.3777838 C890.967071,72.2445759 891.050443,72.0914462 891.107112,71.9186922 C891.163781,71.7459381 891.192264,71.5601012 891.192264,71.361776 C891.192264,71.1691002 891.163781,70.9859393 891.107112,70.8131853 C891.050443,70.6407286 890.967071,70.4887883 890.856997,70.3582564 C890.746626,70.2280218 890.611035,70.1245478 890.449632,70.0481317 C890.288526,69.9717155 890.106354,69.9333587 889.902524,69.9333587 C889.70433,69.9333587 889.527499,69.9732022 889.372327,70.0522944 C889.216264,70.1319813 889.085124,70.237834 888.97772,70.371042 C888.870316,70.5045472 888.788131,70.6558929 888.731759,70.8259708 C888.67509,70.9960488 888.646903,71.1744523 888.646903,71.361776 C888.646903,71.5488023 888.67509,71.7283951 888.731759,71.9014465 C888.788131,72.0742006 888.868833,72.2291142 888.97327,72.3649982 C889.0783,72.5011796 889.207957,72.608519 889.363723,72.6879085 C889.519192,72.7672981 889.698693,72.8068442 889.902524,72.8068442 Z M893.176839,71.4890371 C893.176839,71.6594125 893.205321,71.8235437 893.26199,71.9826201 C893.318363,72.1411019 893.398768,72.2811486 893.503502,72.4030576 C893.608235,72.5249667 893.733738,72.6227913 893.8809,72.6965314 C894.028358,72.7702715 894.192134,72.8068442 894.372823,72.8068442 C894.667443,72.8068442 894.90213,72.7378615 895.077477,72.5987068 C895.252528,72.4598494 895.413635,72.2713364 895.560796,72.0331678 L896.205518,72.3988949 C896.018896,72.7447003 895.763143,73.0126029 895.437964,73.2023052 C895.112784,73.392305 894.754968,73.4871561 894.364812,73.4871561 C894.059214,73.4871561 893.78655,73.4330404 893.546226,73.3254037 C893.305605,73.2180642 893.102071,73.070584 892.935327,72.8835577 C892.768287,72.6965314 892.639818,72.4756084 892.549028,72.2201941 C892.458536,71.9650771 892.413438,71.6906331 892.413438,71.3953753 C892.413438,71.0897107 892.454679,70.8060491 892.53627,70.54558 C892.618159,70.2848136 892.740101,70.0582412 892.901504,69.8649707 C893.062314,69.6725923 893.263177,69.5221387 893.503502,69.4147993 C893.744123,69.3068652 894.025688,69.2530468 894.347604,69.2530468 C894.664476,69.2530468 894.93892,69.3080545 895.17064,69.4186647 C895.402657,69.5295722 895.594916,69.6794311 895.747418,69.8694308 C895.900514,70.0594305 896.014742,70.2833269 896.09129,70.54112 C896.167244,70.7992103 896.205518,71.0754384 896.205518,71.3701015 L896.205518,71.4890371 L893.176839,71.4890371 Z M895.442118,70.9110098 C895.39702,70.6104 895.279528,70.3698526 895.089939,70.1881784 C894.900646,70.0070989 894.653201,69.9161131 894.347604,69.9161131 C894.048237,69.9161131 893.796341,70.0097749 893.592807,70.1968012 C893.388977,70.3838275 893.264364,70.6219962 893.219563,70.9110098 L895.442118,70.9110098 Z M899.675237,69.8738017 L899.692446,69.8738017 C899.80519,69.6980743 899.955319,69.5505941 900.141941,69.4316584 C900.328563,69.3127228 900.529427,69.2529576 900.744532,69.2529576 C901.004438,69.2529576 901.227851,69.3156962 901.414473,69.4402813 C901.601095,69.5651637 901.759235,69.7376204 901.889781,69.9588407 C902.014097,69.7435672 902.184994,69.5720025 902.40277,69.444444 C902.620842,69.3168855 902.856716,69.2529576 903.111281,69.2529576 C903.371484,69.2529576 903.586589,69.2999372 903.756003,69.393599 C903.925714,69.4866662 904.059821,69.6133326 904.158917,69.7715171 C904.257717,69.9302962 904.327441,70.1134571 904.366902,70.3201078 C904.406362,70.5270558 904.426241,70.7441134 904.426241,70.9703885 L904.426241,73.3508856 L903.662544,73.3508856 L903.662544,71.097947 C903.662544,70.9730645 903.65572,70.8416406 903.641478,70.7027832 C903.627237,70.5639259 903.594897,70.4375567 903.544162,70.3245679 C903.49313,70.2109843 903.419549,70.1173225 903.323419,70.0435824 C903.226993,69.9701396 903.094073,69.9332695 902.924659,69.9332695 C902.721125,69.9332695 902.561206,69.9814385 902.445494,70.0780737 C902.329189,70.1744116 902.241663,70.2945366 902.182027,70.4390434 C902.122985,70.5838476 902.085898,70.7408427 902.071953,70.9109206 C902.057711,71.0809986 902.050887,71.2427511 902.050887,71.3952861 L902.050887,73.3508856 L901.287487,73.3508856 L901.287487,71.2427511 C901.287487,71.1122192 901.281553,70.9703885 901.270279,70.8175561 C901.259004,70.6644265 901.230521,70.5228931 901.185423,70.3923612 C901.140029,70.2621266 901.067635,70.1527058 900.969131,70.0652881 C900.869738,69.9772757 900.732961,69.9332695 900.55791,69.9332695 C900.354079,69.9332695 900.192676,69.9799518 900.073998,70.0733163 C899.955319,70.1669781 899.86631,70.2862111 899.806971,70.4307179 C899.747335,70.5749274 899.710841,70.7340039 899.696599,70.9070552 C899.682358,71.0798093 899.675237,71.2427511 899.675237,71.3952861 L899.675237,73.3508856 L898.911837,73.3508856 L898.911837,69.3721906 L899.675237,69.3721906 L899.675237,69.8738017 Z M907.022248,69.2529873 C907.316274,69.2529873 907.593389,69.3071031 907.853889,69.4147398 C908.113795,69.5220793 908.338691,69.6710462 908.527983,69.8610459 C908.717573,70.0510456 908.867404,70.274942 908.977776,70.532735 C909.08785,70.790528 909.143036,71.0697295 909.143036,71.370042 C909.143036,71.6706519 909.08785,71.9498533 908.977776,72.2076464 C908.867404,72.4657367 908.717573,72.6896331 908.527983,72.8790381 C908.338691,73.0690378 908.113795,73.2180048 907.853889,73.3253442 C907.593389,73.4332783 907.316274,73.4870967 907.022248,73.4870967 C906.722287,73.4870967 906.443689,73.4332783 906.18675,73.3253442 C905.928921,73.2180048 905.705805,73.0690378 905.516512,72.8790381 C905.326923,72.6896331 905.177091,72.4657367 905.06672,72.2076464 C904.956646,71.9498533 904.90146,71.6706519 904.90146,71.370042 C904.90146,71.0697295 904.956646,70.790528 905.06672,70.532735 C905.177091,70.274942 905.326923,70.0510456 905.516512,69.8610459 C905.705805,69.6710462 905.928921,69.5220793 906.18675,69.4147398 C906.443689,69.3071031 906.722287,69.2529873 907.022248,69.2529873 Z M907.022248,69.9844416 C906.835626,69.9844416 906.658794,70.0213117 906.492051,70.0947544 C906.325011,70.1684945 906.180816,70.2678058 906.059467,70.3923909 C905.937822,70.516976 905.841692,70.6644562 905.770781,70.8342369 C905.700167,71.0046122 905.665157,71.1830157 905.665157,71.370042 C905.665157,71.5570683 905.700167,71.7342824 905.770781,71.901387 C905.841692,72.068789 905.937822,72.2162692 906.059467,72.3438277 C906.180816,72.4707915 906.325011,72.5718868 906.492051,72.6453296 C906.658794,72.7190697 906.835626,72.7556424 907.022248,72.7556424 C907.20887,72.7556424 907.385701,72.7190697 907.552445,72.6453296 C907.719485,72.5718868 907.863383,72.4707915 907.985029,72.3438277 C908.106674,72.2162692 908.202804,72.068789 908.273714,71.901387 C908.344031,71.7342824 908.379635,71.5570683 908.379635,71.370042 C908.379635,71.1830157 908.344031,71.0046122 908.273714,70.8342369 C908.202804,70.6644562 908.106674,70.516976 907.985029,70.3923909 C907.863383,70.2678058 907.719485,70.1684945 907.552445,70.0947544 C907.385701,70.0213117 907.20887,69.9844416 907.022248,69.9844416 Z M910.415716,69.9077876 L910.432628,69.9077876 C910.551603,69.6922167 910.719533,69.5295722 910.937309,69.4186647 C911.154787,69.3080545 911.385914,69.2530468 911.628909,69.2530468 C911.906023,69.2530468 912.136557,69.297053 912.320212,69.384768 C912.504164,69.4727804 912.648062,69.5946895 912.753092,69.7504952 C912.857233,69.9063009 912.931407,70.0891645 912.973538,70.2987886 C913.015966,70.50871 913.037328,70.7352824 913.037328,70.9791005 L913.037328,73.3509748 L912.273927,73.3509748 L912.273927,71.072465 C912.273927,70.902387 912.265026,70.748068 912.248411,70.6092106 C912.230906,70.4703532 912.191446,70.3499309 912.129436,70.2479436 C912.066833,70.1459562 911.978121,70.0680534 911.862112,70.0139377 C911.746104,69.9604166 911.591822,69.9333587 911.399562,69.9333587 C911.15093,69.9333587 910.959858,69.9830144 910.827234,70.0820283 C910.694017,70.1813396 910.597888,70.3074114 910.538845,70.4602437 C910.479506,70.6133734 910.443902,70.7834513 910.432628,70.9704777 C910.421353,71.157504 910.415716,71.3418543 910.415716,71.5232311 L910.415716,73.3509748 L909.652315,73.3509748 L909.652315,69.3719825 L910.415716,69.3719825 L910.415716,69.9077876 Z M914.776059,73.3509748 L914.012659,73.3509748 L914.012659,70.0861911 L913.59669,70.0861911 L913.59669,69.3719825 L914.012659,69.3719825 L914.012659,67.8502007 L914.776059,67.8502007 L914.776059,69.3719825 L915.522845,69.3719825 L915.522845,70.0861911 L914.776059,70.0861911 L914.776059,73.3509748 Z M916.209638,71.4890371 C916.209638,71.6594125 916.238121,71.8235437 916.29479,71.9826201 C916.351162,72.1411019 916.431567,72.2811486 916.536301,72.4030576 C916.641035,72.5249667 916.766538,72.6227913 916.913699,72.6965314 C917.061158,72.7702715 917.224934,72.8068442 917.405622,72.8068442 C917.700242,72.8068442 917.934929,72.7378615 918.110277,72.5987068 C918.285328,72.4598494 918.446434,72.2713364 918.593596,72.0331678 L919.238318,72.3988949 C919.051696,72.7447003 918.795943,73.0126029 918.470763,73.2023052 C918.145584,73.392305 917.787768,73.4871561 917.397612,73.4871561 C917.092014,73.4871561 916.81935,73.4330404 916.579025,73.3254037 C916.338404,73.2180642 916.134871,73.070584 915.968127,72.8835577 C915.801087,72.6965314 915.672617,72.4756084 915.581828,72.2201941 C915.491336,71.9650771 915.446238,71.6906331 915.446238,71.3953753 C915.446238,71.0897107 915.487478,70.8060491 915.56907,70.54558 C915.650958,70.2848136 915.772901,70.0582412 915.934304,69.8649707 C916.095113,69.6725923 916.295977,69.5221387 916.536301,69.4147993 C916.776922,69.3068652 917.058487,69.2530468 917.380403,69.2530468 C917.697275,69.2530468 917.97172,69.3080545 918.20344,69.4186647 C918.435457,69.5295722 918.627716,69.6794311 918.780218,69.8694308 C918.933314,70.0594305 919.047542,70.2833269 919.124089,70.54112 C919.200044,70.7992103 919.238318,71.0754384 919.238318,71.3701015 L919.238318,71.4890371 L916.209638,71.4890371 Z M918.474917,70.9110098 C918.429819,70.6104 918.312327,70.3698526 918.122738,70.1881784 C917.933446,70.0070989 917.686001,69.9161131 917.380403,69.9161131 C917.081036,69.9161131 916.829141,70.0097749 916.625607,70.1968012 C916.421776,70.3838275 916.297164,70.6219962 916.252362,70.9110098 L918.474917,70.9110098 Z M920.519632,70.0181301 L920.544851,70.0181301 C920.640981,69.7802588 920.782802,69.5929352 920.969424,69.4570512 C921.15575,69.3208699 921.376789,69.2530765 921.630761,69.2530765 C921.744099,69.2530765 921.852987,69.2697275 921.957424,69.3042189 C922.062158,69.3381155 922.162441,69.3862845 922.258868,69.4487257 L921.910843,70.145986 C921.843196,70.0838421 921.771098,70.0410253 921.694551,70.0181301 C921.618003,69.9958297 921.534631,69.9845308 921.444435,69.9845308 C921.240902,69.9845308 921.076828,70.0282397 920.952216,70.1162521 C920.8279,70.2039671 920.734737,70.3157666 920.672431,70.4519479 C920.610124,70.5878319 920.56918,70.7394749 920.549598,70.9068768 C920.529126,71.0739814 920.519632,71.2372206 920.519632,71.395405 L920.519632,73.3510046 L919.755935,73.3510046 L919.755935,69.3720122 L920.519632,69.3720122 L920.519632,70.0181301 Z M923.310747,70.0181301 L923.335966,70.0181301 C923.432095,69.7802588 923.57362,69.5929352 923.760539,69.4570512 C923.946864,69.3208699 924.167606,69.2530765 924.421876,69.2530765 C924.534917,69.2530765 924.644101,69.2697275 924.748539,69.3042189 C924.853272,69.3381155 924.953259,69.3862845 925.049982,69.4487257 L924.701957,70.145986 C924.634014,70.0838421 924.562213,70.0410253 924.485665,70.0181301 C924.409118,69.9958297 924.325746,69.9845308 924.23555,69.9845308 C924.032016,69.9845308 923.867646,70.0282397 923.743034,70.1162521 C923.619014,70.2039671 923.525555,70.3157666 923.463545,70.4519479 C923.400942,70.5878319 923.360295,70.7394749 923.340416,70.9068768 C923.320241,71.0739814 923.310747,71.2372206 923.310747,71.395405 L923.310747,73.3510046 L922.547049,73.3510046 L922.547049,69.3720122 L923.310747,69.3720122 L923.310747,70.0181301 Z M925.745083,71.4890371 C925.745083,71.6594125 925.773566,71.8235437 925.830235,71.9826201 C925.886904,72.1411019 925.967309,72.2811486 926.072043,72.4030576 C926.17648,72.5249667 926.30228,72.6227913 926.449441,72.6965314 C926.596603,72.7702715 926.760379,72.8068442 926.941364,72.8068442 C927.235687,72.8068442 927.470374,72.7378615 927.645722,72.5987068 C927.820773,72.4598494 927.982176,72.2713364 928.129338,72.0331678 L928.77406,72.3988949 C928.587141,72.7447003 928.331388,73.0126029 928.006209,73.2023052 C927.681029,73.392305 927.323213,73.4871561 926.933057,73.4871561 C926.627756,73.4871561 926.354795,73.4330404 926.114471,73.3254037 C925.874146,73.2180642 925.670316,73.070584 925.503869,72.8835577 C925.336532,72.6965314 925.208062,72.4756084 925.11757,72.2201941 C925.026781,71.9650771 924.981683,71.6906331 924.981683,71.3953753 C924.981683,71.0897107 925.022924,70.8060491 925.104812,70.54558 C925.186403,70.2848136 925.308643,70.0582412 925.469749,69.8649707 C925.630558,69.6725923 925.831422,69.5221387 926.072043,69.4147993 C926.312367,69.3068652 926.593932,69.2530468 926.916145,69.2530468 C927.23272,69.2530468 927.507165,69.3080545 927.738885,69.4186647 C927.970902,69.5295722 928.163161,69.6794311 928.315663,69.8694308 C928.468759,70.0594305 928.583284,70.2833269 928.659535,70.54112 C928.735786,70.7992103 928.77406,71.0754384 928.77406,71.3701015 L928.77406,71.4890371 L925.745083,71.4890371 Z M928.010362,70.9110098 C927.965264,70.6104 927.848069,70.3698526 927.658183,70.1881784 C927.468891,70.0070989 927.221446,69.9161131 926.916145,69.9161131 C926.616481,69.9161131 926.364586,70.0097749 926.161052,70.1968012 C925.957518,70.3838275 925.832906,70.6219962 925.788104,70.9110098 L928.010362,70.9110098 Z M928.604319,69.3720419 L929.495003,69.3720419 L930.835775,71.8970459 L932.082791,69.3720419 L932.939651,69.3720419 L929.724053,75.6295441 L928.858885,75.6295441 L930.419806,72.6710197 L928.604319,69.3720419 Z M924.553431,23.3197695 C931.242754,23.3197695 932.939562,29.8802602 932.939562,32.3942627 L932.939562,34.9284842 L932.939562,53.9763268 L925.393676,53.9763268 L925.393676,34.9284842 C925.393676,34.9284842 925.393676,30.0643132 921.294811,30.0643132 C917.19565,30.0643132 916.461623,34.9284842 916.461623,34.9284842 L916.461623,53.9763268 L908.630314,53.9763268 L908.630314,34.9284842 C908.630314,27.5708271 899.738612,30.0643132 899.738612,34.9284842 L899.738612,53.9763268 L898.759809,53.9763268 L892.11143,53.9763268 L892.11143,49.9322171 C887.29812,52.0222139 884.124653,54.7937121 878.937505,54.7937121 C874.786422,54.7937121 869.893894,53.3644028 866.935235,49.2043309 C866.910609,49.2138458 866.890137,49.225442 866.864324,49.2346595 C861.007235,51.3380366 857.72844,54.7937121 851.936625,54.7937121 C845.492077,54.7937121 837.253107,51.3600397 837.253107,39.5880858 C837.253107,27.8161319 846.230258,19.1504801 860.501664,25.77252 L857.72844,32.3942627 C853.812638,29.5329681 845.492077,28.8829848 845.492077,39.2610128 C845.492077,49.6393381 854.465371,48.4172742 857.72844,46.6186698 C860.268164,45.2187971 863.334821,43.8519291 864.569376,43.3149346 C864.367325,42.1758283 864.254284,40.9394922 864.254284,39.5880858 C864.254284,27.8161319 873.230841,19.1504801 887.502841,25.77252 L884.729024,32.3942627 C880.813518,29.5329681 872.492957,28.8829848 872.492957,39.2610128 C872.492957,49.6393381 881.466251,48.4172742 884.729024,46.6186698 C887.885283,44.8789385 891.855085,43.1906468 892.11143,43.0818207 L892.11143,32.3942627 L892.11143,24.1374521 L898.759809,24.1374521 L898.759809,28.4292452 C898.759809,28.4292452 902.620723,23.2469214 907.713225,23.3197695 C910.20607,23.3554502 912.993535,24.6815827 915.768243,28.4292452 C915.768243,28.4292452 917.864404,23.3197695 924.553431,23.3197695 Z M833.826972,12.0384252 C833.826972,12.0384252 828.714889,19.4802292 825.827733,30.2495555 C830.182944,32.3026822 834.390103,33.6157319 836.396662,34.3150735 L836.396662,35.6230684 C832.071418,34.4381719 828.46774,33.1034165 825.458643,31.6999758 C824.991939,33.6288148 824.600003,35.6501262 824.327635,37.7487459 C824.094432,39.5437823 823.922347,41.2139362 823.802482,42.7696146 C827.725702,44.3895182 832.029287,45.6987025 836.396662,46.5369015 L836.396662,47.9266646 C831.82783,46.7465256 827.559849,45.3478423 823.730088,43.7850278 C823.35269,49.6381487 823.744329,53.7702707 824.43771,56.6812209 C827.796909,57.8042708 831.748019,58.8071958 836.396662,59.6171476 L836.396662,61.0883816 C832.768952,60.5736876 828.75969,59.5695733 824.848931,58.169106 C826.300965,62.7293963 828.484059,63.4593639 828.484059,63.4593639 L826.997608,63.4593639 L825.533707,63.4593639 L824.160595,63.4593639 L821.83568,63.4593639 L819.551709,63.4593639 C816.247991,61.2293204 805.303445,55.7909875 803.726502,38.7707005 C802.070638,20.9021049 811.639105,12.0384252 811.639105,12.0384252 L812.576964,12.0384252 L812.984922,12.0384252 C812.984922,12.0384252 812.77397,12.253104 812.422088,12.6643241 C811.828695,15.3406737 812.216477,17.7354431 813.255806,19.8709328 C814.332518,19.6342508 815.452251,19.456442 816.575841,19.3285862 C819.355296,14.6936637 822.20299,12.0384252 822.20299,12.0384252 L823.752637,12.0384252 C823.752637,12.0384252 820.872306,14.5723493 818.091071,19.1855661 C822.189639,18.8757387 826.110782,19.1840794 827.953862,19.6818251 C828.706285,19.8852051 827.831326,19.9271299 827.831326,19.9271299 C827.831326,19.9271299 822.873525,19.3095565 817.738299,19.7823257 C817.082006,20.9178639 816.439361,22.1684723 815.848341,23.5302856 C818.289265,26.1123787 821.640157,28.1976181 824.983631,29.8433902 C827.953565,19.1534535 833.174536,12.0384252 833.174536,12.0384252 L833.826972,12.0384252 Z M824.450171,31.9045451 C824.499719,31.6981917 824.551938,31.4957038 824.60297,31.2914318 C820.359614,29.2160046 817.376329,27.0091535 815.281354,24.9221301 C814.449416,27.0828936 813.769388,29.4886646 813.371221,32.121008 C817.424987,31.3479262 821.918161,31.6372372 824.446017,31.9223855 C824.447501,31.916736 824.448984,31.9104919 824.450171,31.9045451 Z M822.829317,42.3577999 C823.178826,38.4192456 823.78201,34.7286723 824.431776,31.984232 C819.769484,31.9696624 816.054249,32.4153737 813.221092,33.2253256 C813.086985,34.3644318 813.009251,35.5439762 812.994119,36.7609853 C815.686345,38.811436 819.063049,40.7265974 822.829317,42.3577999 Z M822.999027,56.1802045 C822.405337,52.2978473 822.412161,47.7259607 822.745352,43.3749971 C819.00104,41.7875034 815.705037,40.041528 812.994713,38.1899972 C813.112204,44.5931955 814.34943,49.4086029 816.043864,53.0197868 C817.982184,54.1244017 820.278912,55.1927412 822.999027,56.1802045 Z M825.035553,62.6871742 C824.228242,61.3081153 823.64642,59.5558957 823.246472,57.571157 C821.039049,56.7121442 818.885625,55.728249 816.874021,54.635825 C819.527083,59.3563811 822.928414,61.6491633 825.035553,62.6871742 Z M808.213149,48.1303419 C810.719049,53.1636989 814.186543,56.7677466 817.249046,59.2100903 C816.065226,57.6350849 814.836012,55.543304 813.806771,52.8089733 C811.624864,51.3799614 809.71028,49.8112001 808.213149,48.1303419 Z M805.1189,29.0150033 C804.723996,31.7496314 804.656053,34.7595955 805.108218,38.0029709 C805.617053,36.2870267 806.700886,35.0111444 808.12592,34.0724448 C806.620778,32.4231046 805.591241,30.7270821 805.1189,29.0150033 Z M811.75007,20.2512296 C810.266587,17.4339412 810.33364,15.4732869 810.334234,15.4554466 C809.132315,17.2692153 807.740511,19.7612147 806.651931,22.8279705 C807.904585,21.6734027 809.706127,20.8378797 811.75007,20.2512296 Z M816.20497,19.9574585 C815.305089,20.0814489 814.415296,20.2455801 813.559623,20.4566909 C813.941175,21.1444363 814.38889,21.8048266 814.894165,22.4372669 C815.318144,21.5621978 815.758442,20.7335136 816.20497,19.9574585 Z M809.322795,33.3971876 C810.06958,33.0356232 810.876892,32.7415548 811.72129,32.5054675 C812.212917,29.2968809 813.139797,26.3841466 814.253003,23.8297061 C813.339474,22.7922898 812.63749,21.7976904 812.100172,20.8789125 C808.905639,21.9526041 806.500022,23.8671708 806.500022,27.2027213 C806.500022,29.2329529 807.52689,31.3407901 809.322795,33.3971876 Z M810.234543,34.3697839 C810.601854,34.7375924 810.992603,35.1030222 811.405605,35.465776 C811.440022,34.8978582 811.48868,34.3379686 811.550987,33.7861072 C811.081019,33.9686734 810.642501,34.1634305 810.234543,34.3697839 Z M809.070009,35.0426624 C807.002033,36.4193426 806.015814,38.1879158 806.004539,40.2014965 C805.991781,42.4395682 807.258676,46.9377147 813.26619,51.2470508 C812.125688,47.6694663 811.339739,43.1308817 811.339739,37.4079952 C811.339739,37.2694352 811.347156,37.1341459 811.348936,36.9964779 C810.517592,36.3551173 809.755082,35.7036473 809.070009,35.0426624 Z" id="ccm-logo"></path>
                </g>
            </g>
        </g>
    </g>
</svg>