<?xml version="1.0" encoding="UTF-8"?>
<svg width="146px" height="50px" viewBox="0 0 146 50" version="1.1" xmlns="http://www.w3.org/2000/svg" xmlns:xlink="http://www.w3.org/1999/xlink">
    <!-- Generator: Sketch 44.1 (41455) - http://www.bohemiancoding.com/sketch -->
    <title>Combined Shape</title>
    <desc>Created with Sketch.</desc>
    <defs></defs>
    <g id="Design" stroke="none" stroke-width="1" fill="none" fill-rule="evenodd">
        <g id="main" transform="translate(-265.000000, -2522.000000)" fill="#FFFFFF">
            <g id="Colaboradores" transform="translate(232.000000, 2292.000000)">
                <g id="Group-4" transform="translate(0.850724, 211.789803)">
                    <path d="M53.7657479,27.6418131 C65.3745043,27.6418131 74.8189374,36.5589117 74.8189374,47.5213066 C74.8189374,58.4837016 65.3745043,67.4020308 53.7657479,67.4020308 C42.1557518,67.4020308 32.7113188,58.4837016 32.7113188,47.5213066 C32.7113188,36.5589117 42.1557518,27.6418131 53.7657479,27.6418131 Z M53.7657479,63.6030958 C63.155639,63.6030958 70.7964692,56.3891803 70.7964692,47.5213066 C70.7964692,38.6546636 63.155639,31.4407481 53.7657479,31.4407481 C44.3746172,31.4407481 36.733787,38.6546636 36.733787,47.5213066 C36.733787,56.3891803 44.3746172,63.6030958 53.7657479,63.6030958 Z M46.7009549,42.8711493 C48.673142,42.8711493 50.2722125,44.3835857 50.2722125,46.2442885 C50.2722125,48.1086833 48.673142,49.6174278 46.7009549,49.6174278 C44.7262887,49.6174278 43.1272182,48.1086833 43.1272182,46.2442885 C43.1272182,44.3835857 44.7262887,42.8711493 46.7009549,42.8711493 Z M60.8121949,42.8711493 C62.7868611,42.8711493 64.3871712,44.3835857 64.3871712,46.2442885 C64.3871712,48.1086833 62.7868611,49.6174278 60.8121949,49.6174278 C58.8400078,49.6174278 57.2409373,48.1086833 57.2409373,46.2442885 C57.2409373,44.3835857 58.8400078,42.8711493 60.8121949,42.8711493 Z M40.8838089,23.609921 C39.5239792,23.3404144 38.0872948,22.9146187 37.7414493,21.818133 C37.5964174,21.3529573 37.4811355,20.1986324 39.5710836,19.5242507 C42.6440261,18.5311374 50.3393983,18.3145477 56.0006039,18.4302263 C68.8836585,18.6948104 69.4947761,20.1764812 69.7538504,20.8102523 C69.9559035,21.2988099 69.8542571,21.8390536 69.4811407,22.2525432 C68.1671757,23.7120628 60.0577806,24.3076846 52.6090868,24.3076846 C47.7052704,24.3076846 43.0890388,24.0504842 40.8838089,23.609921 Z M65.5950273,21.3184999 C60.0181138,20.4127609 45.9946368,20.4312202 41.2879151,21.399721 C45.9500116,22.3485318 59.987124,22.2746944 65.5950273,21.3184999 Z M90.764398,39.4494004 C90.764398,42.5776455 88.7004813,44.6290951 85.478788,44.6290951 L81.6893626,44.6290951 L81.6893626,34.3004712 L85.478788,34.3004712 C88.9917849,34.3004712 90.764398,36.5992761 90.764398,39.4494004 Z M83.0764634,35.4634105 L83.0764634,43.4661558 L85.478788,43.4661558 C88.0075508,43.4661558 89.3624222,41.7346684 89.3624222,39.4494004 C89.3624222,37.1222911 87.9604464,35.4634105 85.478788,35.4634105 L83.0764634,35.4634105 Z M93.6800367,44.6295873 L93.6800367,34.3145003 L95.0658978,34.3145003 L95.0658978,44.6295873 L93.6800367,44.6295873 Z M102.509137,38.8968504 C104.788743,39.3780242 106.205594,39.9884135 106.205594,41.850347 C106.205594,43.8439572 104.481324,44.7312368 102.23023,44.7312368 C100.551825,44.7312368 99.0110156,44.2217587 97.7788636,43.2766397 L98.4408044,42.1703091 C99.1039848,42.8250009 100.59769,43.5522994 102.262459,43.5522994 C103.819384,43.5522994 104.726763,43.0145169 104.726763,41.9820237 C104.726763,40.8190844 103.602455,40.4683567 101.568289,40.0019503 C99.3494236,39.4937028 98.1953657,38.9263853 98.1953657,37.2822722 C98.1953657,35.3034295 99.8576553,34.2266338 102.122385,34.2266338 C103.586341,34.2266338 104.788743,34.6930402 105.713477,35.4055712 L105.066411,36.4675994 C104.556939,35.9298169 103.402882,35.3908037 102.092635,35.3908037 C100.398116,35.3908037 99.6270916,36.0319586 99.6270916,37.0779887 C99.6270916,38.1843193 100.535711,38.4747465 102.509137,38.8968504 Z M117.363635,37.6026035 C117.363635,39.0424331 116.455016,40.3382798 115.066676,40.6717788 L117.718158,44.6294643 L116.147598,44.6294643 L113.649825,40.9191341 L110.754144,40.9191341 L110.754144,44.6294643 L109.367043,44.6294643 L109.367043,34.2996098 L114.051452,34.2996098 C115.976535,34.2996098 117.363635,35.9732579 117.363635,37.6026035 Z M110.754144,39.7561948 L114.066327,39.7561948 C115.206749,39.7561948 115.961659,38.7372385 115.961659,37.6026035 C115.961659,36.4384336 115.036926,35.4637797 113.974597,35.4637797 L110.754144,35.4637797 L110.754144,39.7561948 Z M128.074557,39.5229916 L128.074557,34.3002251 L129.461658,34.3002251 L129.461658,39.5229916 C129.461658,42.3165072 128.167526,44.7026864 124.808238,44.7026864 C121.326231,44.7026864 120.139944,42.170063 120.139944,39.5229916 L120.139944,34.3002251 L121.525805,34.3002251 L121.525805,39.5229916 C121.525805,41.5596737 122.29559,43.523749 124.793363,43.523749 C127.334522,43.523749 128.074557,41.5006038 128.074557,39.5229916 Z M137.397758,34.2996098 C139.32408,34.2996098 140.711181,35.9732579 140.711181,37.6026035 C140.711181,39.304556 139.41705,40.9191341 137.490727,40.9191341 L134.224409,40.9191341 L134.224409,44.6294643 L132.838548,44.6294643 L132.838548,34.2996098 L137.397758,34.2996098 Z M137.413873,39.7561948 C138.554295,39.7561948 139.309205,38.7803103 139.309205,37.6026035 C139.309205,36.3805943 138.384471,35.4637797 137.322143,35.4637797 L134.224409,35.4637797 L134.224409,39.7561948 L137.413873,39.7561948 Z M142.253478,35.4634105 L142.253478,34.3004712 L151.18968,34.3004712 L151.18968,35.4634105 L147.41513,35.4634105 L147.41513,44.6290951 L146.028029,44.6290951 L146.028029,35.4634105 L142.253478,35.4634105 Z M153.703444,44.6295873 L153.703444,34.3145003 L155.089305,34.3145003 L155.089305,44.6295873 L153.703444,44.6295873 Z M162.918552,42.9853511 L166.523279,34.2996098 L167.987234,34.2996098 L163.518514,44.6294643 L162.317352,44.6294643 L157.832516,34.2996098 L159.297711,34.2996098 L162.918552,42.9853511 Z M171.672038,43.4660327 L177.711319,43.4660327 L177.711319,44.628972 L170.284938,44.628972 L170.284938,34.3003482 L177.572485,34.3003482 L177.572485,35.4632875 L171.672038,35.4632875 L171.672038,38.8105836 L176.8027,38.8105836 L176.8027,39.9021468 L171.672038,39.9021468 L171.672038,43.4660327 Z M102.26593,56.939269 L102.26593,49.9370208 L104.466201,49.9370208 L104.466201,60.6126805 L102.681192,60.6126805 L96.8600798,53.7605683 L96.8600798,60.6126805 L94.6585687,60.6126805 L94.6585687,49.9210227 L96.3654835,49.9210227 L102.26593,56.939269 Z M113.256379,56.6376432 L113.256379,55.1165924 L117.355702,55.1165924 L117.355702,60.6125574 L115.537224,60.6125574 L115.537224,59.4077769 C114.64348,60.2815196 113.670402,60.6876254 112.521303,60.6876254 C109.619423,60.6876254 107.291474,58.0676278 107.291474,55.2064279 C107.291474,52.2849275 109.604548,49.8446009 112.666334,49.8446009 C114.724053,49.8446009 116.238832,50.7651074 116.971429,52.1803245 L115.330213,53.3248045 C114.787272,52.27016 113.750975,51.6831526 112.587001,51.6831526 C110.737533,51.6831526 109.50786,53.3395719 109.50786,55.2679591 C109.50786,57.2837206 110.863971,58.8503044 112.714678,58.8503044 C113.750975,58.8503044 114.691824,58.3691306 115.537224,57.3895542 L115.537224,56.6376432 L113.256379,56.6376432 Z M123.050748,56.0042412 L123.050748,58.790373 L128.710714,58.790373 L128.710714,60.6129266 L120.850477,60.6129266 L120.850477,49.9212688 L128.568162,49.9212688 L128.568162,51.7425917 L123.050748,51.7425917 L123.050748,54.3182869 L127.819449,54.3182869 L127.819449,56.0042412 L123.050748,56.0042412 Z M134.279695,49.9207765 L134.279695,58.7898808 L140.052463,58.7898808 L140.052463,60.6124343 L132.079423,60.6124343 L132.079423,49.9207765 L134.279695,49.9207765 Z M146.895989,54.3926165 C149.12849,54.9353216 150.531706,55.597397 150.531706,57.5553192 C150.531706,59.8590466 148.570675,60.7327893 146.336934,60.7327893 C144.647374,60.7327893 142.893355,60.2208499 141.585588,59.3471071 L142.557426,57.5553192 C142.940459,57.9171225 144.647374,58.8659333 146.369164,58.8659333 C147.565368,58.8659333 148.187642,58.4733644 148.187642,57.7657558 C148.187642,56.8181757 147.023667,56.5462078 145.253533,56.0957996 C143.099127,55.5383271 142.046715,54.8442554 142.046715,53.2038342 C142.046715,51.0207079 143.881308,49.8454624 146.178267,49.8454624 C147.756265,49.8454624 149.144605,50.4029349 150.132558,51.0342448 L149.16072,52.7214297 C148.874374,52.4199269 147.469919,51.6680159 146.113808,51.6680159 C144.917604,51.6680159 144.312685,52.1048873 144.312685,52.8727964 C144.312685,53.7465392 145.189075,53.9717433 146.895989,54.3926165 Z M85.9333455,49.9207765 L87.7195941,49.9207765 L92.1684811,60.6124343 L89.8392923,60.6124343 L86.82585,52.1642033 L83.7962931,60.6124343 L81.4671042,60.6124343 L85.9333455,49.9207765 Z" id="Combined-Shape"></path>
                </g>
            </g>
        </g>
    </g>
</svg>