<?xml version="1.0" encoding="UTF-8"?>
<svg width="85px" height="66px" viewBox="0 0 85 66" version="1.1" xmlns="http://www.w3.org/2000/svg" xmlns:xlink="http://www.w3.org/1999/xlink">
    <!-- Generator: Sketch 45.2 (43514) - http://www.bohemiancoding.com/sketch -->
    <title>zwan</title>
    <desc>Created with Sketch.</desc>
    <defs>
        <polygon id="path-1" points="0 64.7348351 84.4788751 64.7348351 84.4788751 0 0 0"></polygon>
    </defs>
    <g id="Design" stroke="none" stroke-width="1" fill="none" fill-rule="evenodd">
        <g id="event" transform="translate(-931.000000, -3651.000000)">
            <g id="sponsors" transform="translate(234.000000, 3488.000000)">
                <g id="Group-3" transform="translate(126.301018, 152.377935)">
                    <g id="zwan" transform="translate(571.000000, 11.000000)">
                        <path d="M84.3040043,62.3079987 C84.3040043,63.2366294 83.5589027,63.9891879 82.6394735,63.9891879 C81.7200443,63.9891879 80.9749427,63.2366294 80.9749427,62.3079987 C80.9749427,61.3796422 81.7200443,60.6270837 82.6394735,60.6270837 C83.5589027,60.6270837 84.3040043,61.3796422 84.3040043,62.3079987 Z" id="Fill-1" fill="#FEFEFE"></path>
                        <mask id="mask-2" fill="white">
                            <use xlink:href="#path-1"></use>
                        </mask>
                        <g id="Clip-4"></g>
                        <polygon id="Stroke-3" stroke="#FEFEFE" stroke-width="3.092" mask="url(#mask-2)" points="0.419798468 64.3108353 79.2772842 64.3108353 79.2772842 0.423999759 0.419798468 0.423999759"></polygon>
                        <polygon id="Fill-5" fill="#FEFEFE" mask="url(#mask-2)" points="3.89521929 19.9855824 19.7280841 19.9855824 19.7280841 3.99426422 3.89521929 3.99426422"></polygon>
                        <polygon id="Fill-6" fill="#FEFEFE" mask="url(#mask-2)" points="22.5678334 19.9855824 38.4004267 19.9855824 38.4004267 3.99426422 22.5678334 3.99426422"></polygon>
                        <polygon id="Fill-7" fill="#FEFEFE" mask="url(#mask-2)" points="41.240176 19.9855824 57.0733124 19.9855824 57.0733124 3.99426422 41.240176 3.99426422"></polygon>
                        <polygon id="Fill-8" fill="#FEFEFE" mask="url(#mask-2)" points="59.9127901 19.9855824 75.7453834 19.9855824 75.7453834 3.99426422 59.9127901 3.99426422"></polygon>
                        <polygon id="Fill-9" fill="#FEFEFE" mask="url(#mask-2)" points="3.89521929 60.5099216 19.7280841 60.5099216 19.7280841 44.5186034 3.89521929 44.5186034"></polygon>
                        <polygon id="Fill-10" fill="#FEFEFE" mask="url(#mask-2)" points="22.5678334 60.5099216 38.4004267 60.5099216 38.4004267 44.5186034 22.5678334 44.5186034"></polygon>
                        <polygon id="Fill-11" fill="#FEFEFE" mask="url(#mask-2)" points="41.240176 60.5099216 57.0733124 60.5099216 57.0733124 44.5186034 41.240176 44.5186034"></polygon>
                        <polygon id="Fill-12" fill="#FEFEFE" mask="url(#mask-2)" points="59.9127901 60.5099216 75.7453834 60.5099216 75.7453834 44.5186034 59.9127901 44.5186034"></polygon>
                        <polygon id="Fill-13" fill="#FEFEFE" mask="url(#mask-2)" points="9.42542598 37.1399105 17.9761723 37.1399105 17.9761723 40.8105527 3.87816667 40.8105527 3.87816667 37.3313412 12.2450814 27.4046457 4.46061668 27.4046457 4.46061668 23.8297189 17.6696053 23.8297189 17.6696053 27.5006353"></polygon>
                        <polygon id="Fill-14" fill="#FEFEFE" mask="url(#mask-2)" points="37.9838867 40.8104978 33.5214236 40.8104978 30.9494112 28.4261944 30.8872289 28.4261944 28.3154881 40.8104978 23.853025 40.8104978 19.204558 23.8296641 23.8220696 23.8296641 26.3940819 36.0228111 26.4559927 36.0228111 28.7800904 23.8296641 33.1496874 23.8296641 35.6288336 36.0228111 35.6907444 36.0228111 38.2627567 23.8296641 42.7252198 23.8296641"></polygon>
                        <path d="M52.9177148,32.5437093 C52.4772794,32.8944827 51.7533579,33.181903 49.9283479,33.4693232 C48.2923286,33.7564693 46.9389809,34.1714186 46.9389809,36.0229208 C46.9389809,37.5867284 48.1348363,38.0655794 48.9844802,38.0655794 C50.9352125,38.0655794 52.9177148,36.7889177 52.9177148,34.7141712 L52.9177148,32.5437093 Z M57.2286595,37.4910131 C57.2286595,39.501858 57.6693664,39.948621 58.2042972,40.1400517 L58.2042972,40.8106075 L53.4529172,40.8106075 C53.2009295,40.0125226 53.1382041,39.7571903 53.0437087,38.7997626 C52.0365725,39.8529056 50.620771,41.2570963 47.631404,41.2570963 C45.1139709,41.2570963 42.5335408,39.8210919 42.5335408,36.3100668 C42.5335408,32.9904723 44.610267,31.2985871 47.4111863,30.8836378 L51.3759194,30.2772578 C52.068071,30.1815425 52.9177148,29.8943964 52.9177148,28.9366945 C52.9177148,27.0533786 51.1557017,26.9579376 50.0228433,26.9579376 C47.8203948,26.9579376 47.4426848,28.3303145 47.3166909,29.3198301 L43.0684716,29.3198301 C43.5719039,24.1169198 47.1279717,23.3830107 50.557774,23.3830107 C52.9177148,23.3830107 57.2286595,24.1169198 57.2286595,28.2985008 L57.2286595,37.4910131 Z" id="Fill-15" fill="#FEFEFE" mask="url(#mask-2)"></path>
                        <path d="M75.8863119,40.8104978 L71.545498,40.8104978 L71.545498,30.5006667 C71.545498,29.2558188 71.4833156,27.1492585 68.7233987,27.1492585 C66.8009063,27.1492585 65.3128756,28.4898218 65.3128756,31.075233 L65.3128756,40.8104978 L60.9715186,40.8104978 L60.9715186,23.8296641 L65.1266002,23.8296641 L65.1266002,26.3193599 L65.1887825,26.3193599 C65.7777494,25.2980306 67.0181371,23.382901 70.1500618,23.382901 C73.3748526,23.382901 75.8863119,25.3301186 75.8863119,29.0643881 L75.8863119,40.8104978 Z" id="Fill-16" fill="#FEFEFE" mask="url(#mask-2)"></path>
                        <path d="M82.7365757,62.1111377 C82.936428,62.1111377 83.0339103,62.0412024 83.0339103,61.8574509 C83.0339103,61.7595415 82.9904641,61.6144601 82.7648157,61.6144601 L82.2860933,61.6144601 L82.2860933,62.1111377 L82.7365757,62.1111377 Z M81.9094695,61.2938549 L82.8389457,61.2938549 C83.328258,61.2938549 83.4178657,61.6586153 83.4178657,61.8190551 C83.4178657,62.0231016 83.3154957,62.1988996 83.1335649,62.2611557 C83.2848118,62.3283485 83.3662734,62.3853937 83.3662734,62.731779 C83.3662734,63.0032925 83.3662734,63.0707594 83.4485495,63.1017504 L83.4485495,63.1508422 L83.0235918,63.1508422 C82.9980672,63.062806 82.982318,62.9673649 82.982318,62.77566 C82.982318,62.5222475 82.9673833,62.4243381 82.682811,62.4243381 L82.2860933,62.4243381 L82.2860933,63.1508422 L81.9094695,63.1508422 L81.9094695,61.2938549 Z" id="Fill-17" fill="#FEFEFE" mask="url(#mask-2)"></path>
                        <path d="M82.6395007,60.7872766 C81.823256,60.7872766 81.1590729,61.4581068 81.1590729,62.2825203 C81.1590729,63.1069338 81.823256,63.7774897 82.6395007,63.7774897 C83.4560168,63.7774897 84.1199284,63.1069338 84.1199284,62.2825203 C84.1199284,61.4581068 83.4560168,60.7872766 82.6395007,60.7872766 M82.6395007,64.1406046 C81.6253045,64.1406046 80.8000991,63.3071407 80.8000991,62.2825203 C80.8000991,61.2581742 81.6253045,60.4247102 82.6395007,60.4247102 C83.6536968,60.4247102 84.4789022,61.2581742 84.4789022,62.2825203 C84.4789022,63.3071407 83.6536968,64.1406046 82.6395007,64.1406046" id="Fill-18" fill="#FEFEFE" mask="url(#mask-2)"></path>
                    </g>
                </g>
            </g>
        </g>
    </g>
</svg>