<?xml version="1.0" encoding="UTF-8"?>
<svg width="78px" height="70px" viewBox="0 0 78 70" version="1.1" xmlns="http://www.w3.org/2000/svg" xmlns:xlink="http://www.w3.org/1999/xlink">
    <!-- Generator: Sketch 45.2 (43514) - http://www.bohemiancoding.com/sketch -->
    <title>rrey</title>
    <desc>Created with Sketch.</desc>
    <defs></defs>
    <g id="Design" stroke="none" stroke-width="1" fill="none" fill-rule="evenodd">
        <g id="event" transform="translate(-1060.000000, -3497.000000)" fill="#FFFFFF">
            <g id="sponsors" transform="translate(234.000000, 3488.000000)">
                <g id="Group-4" transform="translate(0.081112, 0.355515)">
                    <g id="rrey" transform="translate(826.869177, 9.489320)">
                        <path d="M18.5016534,55.9160706 C17.2211351,53.2432751 16.1615387,49.1039716 15.7217678,46.0731886 C20.3611294,45.1554766 23.2810902,42.3231817 23.2810902,37.6164741 C23.2810902,31.4349882 18.2801391,28.7610112 11.6835745,28.7610112 L-0.000118456827,28.7610112 L-0.000118456827,28.8460775 C1.40566794,29.8677594 1.48651472,31.1207154 1.48651472,32.7496764 L1.48651472,57.0818927 C1.48651472,58.7123305 1.40566794,59.9629236 0.00343524798,60.9840148 L0.00343524798,61.0705579 L9.87770021,61.0705579 L9.87770021,61.0088258 C8.44348417,59.9821226 8.36500653,58.7250314 8.36500653,57.0818927 L8.36500653,46.4707555 L8.88562428,46.4707555 C9.96269298,49.9023545 10.9814217,53.4024791 13.3008064,56.6725111 C16.422736,61.0705579 20.4715904,63.6568103 26.6197959,65.0701518 L26.6197959,64.8447851 C22.4669956,61.8077994 20.3134505,59.6867534 18.5016534,55.9160706 M10.6829105,45.0757269 L8.36500653,45.0757269 L8.36500653,33.1496062 C8.36500653,31.1540921 9.4841274,29.9581424 11.4836786,29.9581424 C15.4821888,29.9581424 16.4011177,33.6295811 16.4011177,37.6164741 C16.4011177,41.6051393 14.6829014,45.0757269 10.6829105,45.0757269" id="Fill-1"></path>
                        <path d="M39.2830676,42.6585143 L36.6023896,39.9869002 C36.077922,39.4620292 35.217037,39.4620292 34.6922732,39.9869002 L32.0195911,42.6531977 L32.0195911,39.7470605 L32.0213679,39.745879 C31.8605628,39.6921218 31.8111071,39.8276962 31.8111071,39.8276962 L31.6405292,40.1162719 C30.5880403,41.5284319 29.0475093,42.5645869 27.237489,43.1438059 C26.1900345,43.4766869 25.0564026,43.6630648 23.8697614,43.6716305 L23.8499199,43.705598 L23.8540659,43.7253877 L23.8620617,43.7587645 C23.9124058,43.9457331 24.0202016,44.1217732 24.1884102,44.2458282 L24.406667,44.40326 L24.7229467,44.6333525 C25.0244193,44.8997755 25.6172957,45.4063337 25.8755316,46.318729 C25.9329832,46.719545 25.9495671,47.1631894 25.9495671,47.6570467 L25.9495671,57.095273 C25.9495671,58.0363191 25.9477903,58.7100562 25.799127,59.2839585 C25.661717,59.5994127 25.5029849,59.8327544 25.3706094,59.9907769 L25.0963818,60.266947 L24.9059625,60.4562787 C24.7567069,60.6027818 24.6758601,60.7915227 24.6574993,60.9858756 C24.6542417,61.0083236 24.6497996,61.0289995 24.6497996,61.0499707 L24.6497996,61.0762585 L24.6862251,61.0762585 L28.0071622,61.0762585 L29.9042483,61.0762585 L33.2598341,61.0762585 L33.2598341,61.0499707 L33.2598341,60.9386165 L33.2417694,60.9211897 C33.2121552,60.7492849 33.1357505,60.5865365 33.005448,60.4562787 L32.8150287,60.266947 L32.5396166,59.9907769 C32.463508,59.9000985 32.37585,59.7846092 32.2870074,59.6446042 C32.0213679,58.9874078 32.0195911,58.2392377 32.0195911,57.095273 L32.0195911,44.5704389 L34.6922732,47.2358503 C35.217037,47.7607213 36.077922,47.7607213 36.6023896,47.2358503 L39.2830676,44.5654176 C39.807239,44.0414327 39.807239,43.1822038 39.2830676,42.6585143" id="Fill-4"></path>
                        <path d="M76.5058748,39.7451996 C76.3477349,39.6920332 76.2956139,39.8287891 76.2956139,39.8287891 L76.1235554,40.1223861 C75.0716588,41.5301155 73.5382351,42.5633168 71.7335454,43.1401728 L71.7142961,43.1437172 C70.9813445,43.3767635 70.2063407,43.5338999 69.4029073,43.613945 C69.3096225,43.6225107 69.2151532,43.6325532 69.1212762,43.6393467 C69.0448715,43.6428911 68.9675785,43.6490939 68.8911738,43.6532291 C68.726815,43.6623855 68.5627522,43.6694744 68.3969127,43.6712466 L68.3847709,43.6721327 C68.3542682,43.6694744 68.3282077,43.6677021 68.3282077,43.6733142 L68.3282077,43.7040325 L68.3282077,43.7058048 L68.3282077,43.7149612 C68.3367959,43.9231965 68.5070775,44.1278873 68.6669943,44.2463303 L68.8834741,44.4031714 L68.885251,44.4031714 L69.1994577,44.6332639 C69.5009303,44.8982101 70.1020987,45.4047682 70.3600385,46.3109608 C70.4198592,46.7156165 70.4373315,47.1598518 70.4373315,47.6569581 L70.4373315,57.9703632 C70.0378359,58.328646 69.3211721,58.7669738 68.3228772,58.7669738 C66.7240062,58.7669738 65.9270878,57.7712844 65.9270878,56.180426 L65.9270878,39.7487441 L65.9306416,39.7451996 C65.7692441,39.6920332 65.7206768,39.8287891 65.7206768,39.8287891 L65.5669791,40.0901908 C64.4679959,41.5767838 62.833884,42.6534044 60.9083682,43.2175595 C60.8716466,43.2296697 60.8352211,43.2411891 60.7943535,43.2524131 C60.63266,43.2973092 60.4671165,43.3389563 60.2968349,43.3785357 C60.2488598,43.3906459 60.1976273,43.3995069 60.1505407,43.4104356 C60.0119462,43.4408586 59.8736478,43.4674418 59.7338688,43.4910714 C59.6903359,43.5002278 59.646803,43.5084982 59.600901,43.5158824 C59.4193659,43.5448286 59.2384231,43.5720025 59.0562957,43.5926784 C59.0284584,43.5962228 59.002694,43.5988811 58.975449,43.6012441 C58.8131631,43.6192616 58.6479158,43.6325532 58.4802994,43.6428911 C58.4385434,43.6464356 58.3961951,43.6496846 58.3517738,43.6520476 C58.1607621,43.6623855 57.9667891,43.6712466 57.7713353,43.6733142 L57.7713353,43.730025 L57.7740006,43.7317972 C57.7908807,43.9353066 57.958201,44.1332039 58.1121948,44.2463303 L58.3283785,44.4031714 L58.6446583,44.6332639 C58.9381351,44.891712 59.5055433,45.3820248 59.7711827,46.2483425 C59.8389992,46.6680621 59.8588407,47.1332685 59.8588407,47.6569581 L59.8588407,57.7712844 C59.8588407,60.3604905 62.0529573,61.7525653 64.4514119,61.7525653 C66.8454244,61.7525653 68.8408297,60.7580573 70.4373315,59.1645407 L70.4373315,60.6783077 C70.4373315,64.0623522 68.8408297,66.0549126 65.4467454,66.0549126 C63.2937926,66.0549126 61.3043102,65.2432381 60.2002925,63.6308178 C60.1028618,63.4716139 60.0492601,63.3590782 60.0353414,63.3330857 L60.0317877,63.3251108 C59.8952662,63.3451959 59.9308033,63.4612759 59.9308033,63.4612759 L59.9772976,63.6724649 L59.9772976,63.6706927 C60.6371021,66.5469976 63.350948,68.6429372 67.6420466,68.6429372 C73.6306315,68.6429372 76.5058748,65.0580416 76.5058748,59.8828785 L76.5058748,39.7469719 L76.5038018,39.7469719 L76.5058748,39.7451996 Z" id="Fill-6"></path>
                        <path d="M57.0591136,56.9677621 C56.9791553,56.851682 56.8926818,56.9343854 56.8926818,56.9343854 L56.8230884,56.9890287 C55.905048,57.6934841 54.8457478,58.0107106 53.4719448,58.0107106 C49.3988068,58.0107106 47.1244357,54.4275873 45.8859696,51.6404838 L56.3454113,45.2280193 C54.869143,42.0817469 51.8742583,40.491184 49.1997993,40.491184 C43.810606,40.491184 40.5767346,45.6267677 40.5767346,50.8831573 C40.6149369,56.2184105 43.7306476,61.7530379 49.5984065,61.7530379 C53.1103553,61.7530379 55.5227286,60.1090131 56.9853743,57.1113115 L56.9853743,57.1130837 L57.0591136,56.9677621 Z M44.4091091,45.7449153 C44.4091091,43.2776967 45.8459904,42.1213264 47.2043941,42.1213264 C49.5602042,42.1213264 50.7968935,44.5906126 50.7968935,46.5025372 C50.7968935,47.4187724 49.9979022,47.8952028 49.1997993,48.3739963 L45.4479755,50.6040334 C44.7277579,48.8920738 44.4091091,47.4988174 44.4091091,45.7449153 L44.4091091,45.7449153 Z" id="Fill-9"></path>
                        <path d="M44.710789,38.4396975 C45.0557945,38.779372 45.6199452,38.779372 45.9596201,38.4396975 L47.7115966,36.6899305 C48.0551214,36.3484838 48.0551214,35.7875777 47.7115966,35.446131 L45.9596201,33.6975455 C45.6199452,33.3531451 45.0557945,33.3531451 44.710789,33.6975455 L42.9611817,35.446131 C42.6161762,35.7875777 42.6161762,36.3484838 42.9611817,36.6899305 L44.710789,38.4396975 Z" id="Fill-11"></path>
                        <path d="M51.0951974,38.4396975 C51.4407952,38.779372 52.0040574,38.779372 52.3446208,38.4396975 L54.096005,36.6899305 C54.440122,36.3484838 54.440122,35.7875777 54.096005,35.446131 L52.3446208,33.6975455 C52.0040574,33.3531451 51.4407952,33.3531451 51.0951974,33.6975455 L49.3461823,35.446131 C49.0002884,35.7875777 49.0002884,36.3484838 49.3461823,36.6899305 L51.0951974,38.4396975 Z" id="Fill-13"></path>
                        <polygon id="Fill-15" points="48.8562153 10.0111243 48.8562153 7.92995317 49.3125702 7.92995317 49.9608252 9.54119196 50.6010843 7.92995317 51.0553663 7.92995317 51.0553663 10.0111243 50.7473785 10.0111243 50.7568551 8.25574536 50.0650672 10.0111243 49.8485873 10.0111243 49.1573918 8.25574536 49.1659799 10.0111243"></polygon>
                        <polygon id="Fill-17" points="53.4177804 8.9257017 52.7517569 7.92912614 53.1299303 7.92912614 53.6099766 8.68113603 54.086173 7.92912614 54.461385 7.92912614 53.8045419 8.93072297 54.5229826 10.0111834 54.1451053 10.0111834 53.5978348 9.16495072 53.0653713 10.0111834 52.695786 10.0111834"></polygon>
                        <polygon id="Fill-19" points="23.3787282 9.51342726 23.3733977 7.92936243 23.6947118 7.92936243 23.6947118 10.0111243 23.3902778 10.0111243 22.2992904 8.42499189 22.3043248 10.0111243 21.9824184 10.0111243 21.9824184 7.92936243 22.2960328 7.92936243"></polygon>
                        <polygon id="Fill-21" points="25.5159263 7.92983502 25.84879 7.92983502 25.84879 9.71799994 26.5844069 9.71799994 26.5844069 10.0110062 25.5159263 10.0110062"></polygon>
                        <path d="M40.752791,16.3438392 L40.5164697,16.3438392 L40.5164697,16.3335013 L40.8644366,15.9527704 L40.8517025,15.9489306 C40.9056003,15.8880846 40.9275149,15.8059719 40.9088579,15.7158843 L39.466646,8.28321469 C39.4965564,8.27760268 39.5261706,8.26224348 39.5522311,8.23920469 L39.8717684,7.91991062 C39.9336621,7.85817847 39.9336621,7.75479926 39.8717684,7.6930671 L39.5522311,7.37288693 C39.5347587,7.35811847 39.5143249,7.3463037 39.493595,7.33714726 C39.5158056,7.30790571 39.5347587,7.27364289 39.5463083,7.23849396 L40.3604028,4.97537542 C40.4205196,4.80347057 40.3201275,4.66760075 40.1424422,4.66760075 L39.5753302,4.66760075 L38.8711043,5.36467198 C38.7070416,5.52742039 38.4828621,5.61987094 38.2468369,5.61987094 C38.0081464,5.61987094 37.7827822,5.52742039 37.6160543,5.35965071 L36.9281162,4.66760075 L36.3660386,4.66760075 C36.1862804,4.66760075 36.0885535,4.80347057 36.148078,4.97537542 L36.9603957,7.23849396 C36.9740183,7.27216604 36.9908984,7.30790571 37.015182,7.33714726 C36.9929714,7.3463037 36.9740183,7.35664162 36.9559536,7.37288693 L36.6376009,7.6930671 C36.5748188,7.75479926 36.5748188,7.85817847 36.6376009,7.91991062 L36.9559536,8.23920469 C36.9793488,8.26224348 37.0107399,8.2764212 37.0439078,8.28321469 L35.5966615,15.7158843 C35.5806698,15.8077442 35.6037689,15.8922197 35.6564822,15.9515889 L35.6523362,15.9527704 L36.0065221,16.3438392 L35.7539129,16.3438392 C35.6339754,16.3438392 35.5347678,16.4419017 35.5347678,16.562117 L35.5347678,17.7220317 C35.5347678,17.8443145 35.6339754,17.9406049 35.7539129,17.9406049 L40.752791,17.9406049 C40.8730247,17.9406049 40.9707516,17.8443145 40.9707516,17.7220317 L40.9707516,16.562117 C40.9707516,16.4419017 40.8730247,16.3438392 40.752791,16.3438392" id="Fill-23"></path>
                        <path d="M40.7235914,2.23027348 L39.9835324,1.48594319 L39.9820517,1.48771541 L39.9453301,1.52493192 L39.2958905,2.1649969 C39.2026058,2.2598104 39.0714148,2.29820839 38.948812,2.27841866 C38.9476275,2.27841866 38.9420008,2.27841866 38.9420008,2.27605571 C38.8620424,2.2636502 38.7865262,2.2243661 38.7249286,2.16440616 C38.6621465,2.10267401 38.6263133,2.02558265 38.6126908,1.94671909 C38.6120985,1.94317466 38.6120985,1.94051633 38.6100255,1.93874412 C38.5931454,1.81527981 38.6307554,1.68649885 38.7249286,1.59375294 L39.3746643,0.951325004 L39.4110898,0.911745536 L38.671623,0.169778196 C38.4471474,-0.0552931075 38.0769698,-0.0567699534 37.8510134,0.166529135 L37.1056238,0.904361307 L37.14353,0.944531513 L37.7843814,1.58961777 C37.879443,1.68561275 37.9143878,1.81527981 37.8983961,1.93667654 C37.8983961,1.94051633 37.8969154,1.94317466 37.8969154,1.9437654 C37.8818122,2.0232197 37.8442021,2.09942495 37.7817161,2.15997562 C37.7213032,2.2205263 37.6460831,2.25803819 37.5670131,2.27162517 C37.5628671,2.27221591 37.5610903,2.27221591 37.5610903,2.27221591 C37.4355261,2.29082416 37.3064081,2.25478913 37.2101619,2.15820341 L36.5690144,1.51223105 L36.5314043,1.47501453 L36.5296275,1.47501453 L35.7860147,2.21373281 C35.5594661,2.43644116 35.5594661,2.80594799 35.7815726,3.03101929 L36.5210394,3.77091905 C36.5216316,3.77150978 36.5231123,3.77387274 36.5231123,3.77564495 L36.5231123,3.77387274 L36.5610185,3.73695159 L37.2092735,3.09629587 C37.304039,3.00148237 37.4355261,2.96544733 37.5587212,2.98641855 C37.5610903,2.98641855 37.5628671,2.98641855 37.5628671,2.98730465 C37.6437139,3.0003009 37.718934,3.03633593 37.779347,3.09954494 C37.8400561,3.15920951 37.8767777,3.23334717 37.8930656,3.31309684 C37.8930656,3.3163459 37.8930656,3.31870885 37.8933617,3.32136718 C37.9120186,3.44483149 37.8744086,3.57420318 37.7775701,3.66931205 L37.1313882,4.30996777 L37.0949627,4.34777502 L37.0931858,4.34777502 C37.095555,4.3489565 37.095555,4.35013798 37.095555,4.35072871 L37.8353178,5.09240069 C38.0592013,5.31422293 38.4273058,5.31658588 38.6511892,5.09299142 L39.3974673,4.35811294 C39.3974673,4.35693147 39.3986518,4.35693147 39.3995402,4.35693147 L39.3995402,4.35456851 L39.3601534,4.31705663 L38.7181174,3.67551481 C38.6227596,3.57804298 38.5875187,3.44778518 38.6073602,3.32461624 L38.6073602,3.3163459 C38.6218712,3.2368916 38.6585928,3.16452615 38.7216711,3.10308937 C38.7814918,3.04194795 38.8567118,3.00561754 38.9381509,2.99203056 C38.9393355,2.99203056 38.9420008,2.98966761 38.9420008,2.98966761 C39.0663804,2.97105935 39.1978675,3.0088666 39.2935214,3.10545232 L39.9358535,3.74876636 L39.972279,3.78775509 C39.972279,3.78775509 39.9746481,3.78598287 39.9746481,3.7856875 L40.7197416,3.04519701 C40.9459941,2.8230794 40.9465864,2.4562309 40.7235914,2.23027348" id="Fill-25"></path>
                    </g>
                </g>
            </g>
        </g>
    </g>
</svg>