<?xml version="1.0" encoding="UTF-8"?>
<svg width="74px" height="63px" viewBox="0 0 74 63" version="1.1" xmlns="http://www.w3.org/2000/svg" xmlns:xlink="http://www.w3.org/1999/xlink">
    <!-- Generator: Sketch 45.2 (43514) - http://www.bohemiancoding.com/sketch -->
    <title>3c</title>
    <desc>Created with Sketch.</desc>
    <defs>
        <polygon id="path-1" points="0 1.11780614 0 5.58875128e-05 73.1029704 5.58875128e-05 73.1029704 1.11780614 3.49922505e-15 1.11780614"></polygon>
        <polygon id="path-3" points="0 1.22941351 0 0.111663251 73.1029704 0.111663251 73.1029704 1.22941351"></polygon>
        <polygon id="path-5" points="0 61.9233642 73.1031023 61.9233642 73.1031023 -2.84217094e-14 0 -2.84217094e-14"></polygon>
    </defs>
    <g id="Design" stroke="none" stroke-width="1" fill="none" fill-rule="evenodd">
        <g id="event" transform="translate(-810.000000, -3500.000000)">
            <g id="sponsors" transform="translate(234.000000, 3488.000000)">
                <g id="Group-4" transform="translate(0.081112, 0.355515)">
                    <g id="3c" transform="translate(576.403965, 11.998158)">
                        <path d="M5.44908839,42.083353 L11.2613897,36.2989955 C13.636609,38.7018791 16.0956596,40.0714026 19.1694728,40.0714026 C21.7682421,40.0714026 23.38898,38.758046 23.38898,36.7181518 L23.38898,36.6343205 C23.38898,34.5103156 21.4888046,33.2251823 17.995835,33.2251823 L14.0837091,33.2251823 L12.7982963,28.4467999 L20.3710543,21.6005796 L7.76842017,21.6005796 L7.76842017,14.1675404 L31.6603319,14.1675404 L31.6603319,20.7063794 L23.7522488,27.4967122 C28.4747437,28.5306312 32.3030383,31.1294005 32.3030383,36.8019831 L32.3030383,36.8855349 C32.3030383,43.5920365 26.9098933,47.8956544 19.5327416,47.8956544 C13.1615652,47.9515419 8.69056413,45.6322101 5.44908839,42.083353 Z" id="Fill-1" fill="#FFFFFF"></path>
                        <path d="M35.7958961,30.8219354 L35.7958961,30.7381041 C35.7958961,21.0975081 43.1730478,13.5247502 53.2048563,13.5247502 C59.9672454,13.5247502 64.3267508,16.3750133 67.2608452,20.3709705 L60.358458,25.708228 C58.458562,23.3888962 56.3066133,21.8240458 53.1210251,21.8240458 C48.4823615,21.8240458 45.212942,25.7920592 45.212942,30.6263291 L45.212942,30.7101604 C45.212942,35.684149 48.4823615,39.5683311 53.1210251,39.5683311 C56.5860509,39.5683311 58.5982808,37.9475933 60.582008,35.5444302 L67.4841159,40.4625313 C64.3544151,44.7658698 60.1628517,47.9514581 52.8698107,47.9514581 C43.4245416,47.9514581 35.7958961,40.7140252 35.7958961,30.8219354" id="Fill-3" fill="#FFFFFF"></path>
                        <g id="Group-7" transform="translate(0.000000, 9.109665)">
                            <mask id="mask-2" fill="white">
                                <use xlink:href="#path-1"></use>
                            </mask>
                            <g id="Clip-6"></g>
                            <path d="M72.5419358,1.11780614 L0.558819241,1.11780614 C0.25143792,1.11780614 -5.58875128e-05,0.866312336 -5.58875128e-05,0.558931016 C-5.58875128e-05,0.251549695 0.25143792,5.58875128e-05 0.558819241,5.58875128e-05 L72.5419358,5.58875128e-05 C72.8495965,5.58875128e-05 73.1008109,0.251549695 73.1008109,0.558931016 C73.1290341,0.866312336 72.8772608,1.11780614 72.5419358,1.11780614" id="Fill-5" fill="#FFFFFF" mask="url(#mask-2)"></path>
                        </g>
                        <g id="Group-10" transform="translate(0.000000, 52.701925)">
                            <mask id="mask-4" fill="white">
                                <use xlink:href="#path-3"></use>
                            </mask>
                            <g id="Clip-9"></g>
                            <path d="M72.5419358,1.22941351 L0.558819241,1.22941351 C0.25143792,1.22941351 -5.58875128e-05,0.978199137 -5.58875128e-05,0.670538379 C-5.58875128e-05,0.363157058 0.25143792,0.111663251 0.558819241,0.111663251 L72.5419358,0.111663251 C72.8495965,0.111663251 73.1008109,0.363157058 73.1008109,0.670538379 C73.1290341,0.949975943 72.8772608,1.22941351 72.5419358,1.22941351" id="Fill-8" fill="#FFFFFF" mask="url(#mask-4)"></path>
                        </g>
                        <polygon id="Fill-11" fill="#FFFFFF" points="10.0598082 4.44305727 10.0598082 1.56485036 8.94205794 3.7165196 8.46701408 3.7165196 7.34926382 1.56485036 7.34926382 4.44305727 6.48300738 4.44305727 6.48300738 0.0838312692 7.40515134 0.0838312692 8.69056413 2.57082559 10.0039207 0.0838312692 10.8981209 0.0838312692 10.8981209 4.44305727"></polygon>
                        <path d="M15.7882783,2.76643189 L15.1735156,1.03391899 L14.558753,2.76643189 L15.7882783,2.76643189 Z M14.8102468,0.0838312692 L15.5647282,0.0838312692 L17.2413536,4.47100103 L16.3750971,4.47100103 L15.9559408,3.38119453 L14.4190342,3.38119453 L14.0278216,4.47100103 L13.1615652,4.47100103 L14.8102468,0.0838312692 Z" id="Fill-13" fill="#FFFFFF"></path>
                        <path d="M20.2592793,2.23552846 L21.321142,2.23552846 C21.4049733,2.23552846 21.4608608,2.2075847 21.5446921,2.17964094 C21.6005796,2.15169719 21.6844109,2.09580967 21.7123546,2.03992216 C21.7682421,1.98403465 21.7961859,1.90020338 21.8241296,1.81637211 C21.8520734,1.73254084 21.8800172,1.62076582 21.8800172,1.53693455 C21.8800172,1.45310328 21.8520734,1.34132825 21.8241296,1.25749698 C21.7961859,1.17366571 21.7402984,1.08983444 21.6844109,1.03394693 C21.6285234,0.978059418 21.5726358,0.922171905 21.4888046,0.894228149 C21.4329171,0.866284393 21.3490858,0.838340636 21.2652545,0.838340636 L20.2313355,0.838340636 L20.2592793,2.23552846 Z M19.4209666,4.44308521 L19.4209666,0.083859213 L21.3490858,0.083859213 C21.5446921,0.083859213 21.7402984,0.111802969 21.9079609,0.223577995 C22.0756235,0.307409264 22.2153422,0.41918429 22.355061,0.558903072 C22.466836,0.698621854 22.5786111,0.866284393 22.6344986,1.03394693 C22.6903861,1.20160947 22.7462736,1.36927201 22.7462736,1.5648783 C22.7462736,1.84431587 22.6624423,2.09580967 22.5227236,2.34730348 C22.3830048,2.57085353 22.1873985,2.73851607 21.9359047,2.8502911 L22.9418799,4.49897273 L21.9917922,4.49897273 L21.097592,3.04589739 L20.2592793,3.04589739 L20.2592793,4.49897273 L19.4209666,4.44308521 Z" id="Fill-15" fill="#FFFFFF"></path>
                        <polygon id="Fill-17" fill="#FFFFFF" points="25.2611837 4.44305727 25.2611837 0.0838312692 26.0994964 0.0838312692 26.0994964 2.15166924 27.9437844 0.0838312692 28.8938721 0.0838312692 27.2172467 2.01195046 28.9777033 4.44305727 28.0276156 4.44305727 26.6583716 2.57082559 26.0994964 3.15764447 26.0994964 4.44305727"></polygon>
                        <polygon id="Fill-19" fill="#FFFFFF" points="34.1472424 3.71649166 34.1472424 4.44302933 31.1013729 4.44302933 31.1013729 0.0838033255 34.0913549 0.0838033255 34.0913549 0.810340992 31.9676294 0.810340992 31.9676294 1.87220374 33.8119173 1.87220374 33.8119173 2.57079765 31.9676294 2.57079765 31.9676294 3.71649166"></polygon>
                        <polygon id="Fill-21" fill="#FFFFFF" points="39.8199088 0.810368936 38.422721 0.810368936 38.422721 4.44305727 37.5844083 4.44305727 37.5844083 0.810368936 36.1872204 0.810368936 36.1872204 0.0838312692 39.8199088 0.0838312692"></polygon>
                        <mask id="mask-6" fill="white">
                            <use xlink:href="#path-5"></use>
                        </mask>
                        <g id="Clip-24"></g>
                        <polygon id="Fill-23" fill="#FFFFFF" mask="url(#mask-6)" points="42.0832972 4.47100103 42.949833 4.47100103 42.949833 0.0838312692 42.0832972 0.0838312692"></polygon>
                        <polygon id="Fill-25" fill="#FFFFFF" mask="url(#mask-6)" points="46.4426349 1.64868163 46.4426349 4.44305727 45.5760991 4.44305727 45.5760991 0.0838312692 46.2470286 0.0838312692 48.5384167 2.96203818 48.5384167 0.0838312692 49.3767294 0.0838312692 49.3767294 4.44305727 48.6781355 4.44305727"></polygon>
                        <path d="M55.049256,3.96795752 C54.7415953,4.3032826 54.2947746,4.4988889 53.8197307,4.4988889 C53.5402932,4.4988889 53.2608556,4.44300138 53.0093618,4.33122636 C52.757868,4.21945133 52.5343179,4.05178879 52.3387117,3.8561825 C52.1431054,3.6605762 52.0033866,3.4090824 51.8916116,3.15758859 C51.7798365,2.87815102 51.723949,2.5707697 51.723949,2.26338838 C51.723949,1.6765695 51.9472196,1.14563813 52.3387117,0.726481779 C52.5343179,0.530875484 52.757868,0.363212946 53.0093618,0.25143792 C53.2608556,0.139662895 53.5682369,0.0837753817 53.8476745,0.0837753817 C54.2109433,0.0837753817 54.5742122,0.167606651 54.9095372,0.335269189 C55.1889748,0.502931728 55.4125249,0.754425536 55.579908,1.0338631 L54.937481,1.50890696 C54.825706,1.31330066 54.6859872,1.11769437 54.4621577,1.00591934 C54.2668308,0.894144318 54.0430014,0.838256805 53.8197307,0.838256805 C53.6520682,0.838256805 53.4564619,0.866200561 53.3167431,0.950031831 C53.1770243,1.0338631 53.0373056,1.14563813 52.9252511,1.28535691 C52.8137555,1.42507569 52.7299242,1.59273823 52.6740367,1.76040077 C52.6181492,1.92806331 52.5902055,2.1236696 52.5902055,2.31927589 C52.5902055,2.51488219 52.6181492,2.71048848 52.7019805,2.90609478 C52.757868,3.07375732 52.869643,3.24141986 52.9814181,3.38113864 C53.0931931,3.52085742 53.2329119,3.60468869 53.4005744,3.68851996 C53.5682369,3.77235123 53.7358995,3.80029498 53.9032826,3.80029498 C54.3506621,3.77235123 54.7698185,3.57674493 55.049256,3.2134761 L55.049256,2.90609478 L54.1550558,2.90609478 L54.1550558,2.29133214 L55.7478499,2.29133214 L55.7478499,4.55477641 L55.049256,4.55477641 L55.049256,3.96795752 Z" id="Fill-26" fill="#FFFFFF" mask="url(#mask-6)"></path>
                        <path d="M62.2586893,1.0338631 C62.2586893,1.06180686 62.2586893,1.11769437 62.286633,1.14563813 C62.3145768,1.17358188 62.3145768,1.22946939 62.3425206,1.25741315 C62.3704643,1.31330066 62.4263518,1.34124442 62.4542956,1.39713193 L62.6499019,1.59273823 C62.7896207,1.50890696 62.9013957,1.39713193 63.0131707,1.28535691 C63.097002,1.20152564 63.1249457,1.08975061 63.1249457,0.977975587 C63.1249457,0.866200561 63.097002,0.782369292 63.0131707,0.698538023 C62.9293394,0.64265051 62.8455082,0.586762997 62.7337332,0.586762997 C62.6219581,0.586762997 62.5101831,0.614706754 62.3984081,0.698538023 C62.3145768,0.810313049 62.2586893,0.922088074 62.2586893,1.0338631 L62.2586893,1.0338631 Z M62.7616769,3.8561825 C63.0131707,3.8561825 63.2646645,3.77235123 63.4602708,3.60468869 L62.4542956,2.54282595 C62.3145768,2.62665722 62.2028018,2.73843224 62.1189705,2.85020727 C62.0351392,2.96198229 62.0071955,3.07375732 62.0071955,3.2134761 C62.0071955,3.38113864 62.0910268,3.54880118 62.2307455,3.6605762 C62.3145768,3.71646372 62.3984081,3.77235123 62.4822393,3.80029498 C62.5660706,3.8561825 62.6778456,3.8561825 62.7616769,3.8561825 L62.7616769,3.8561825 Z M64.2706398,4.44300138 L63.9353147,4.07973255 C63.7676521,4.21945133 63.5720458,4.33122636 63.3484958,4.38711387 C63.1528895,4.47094514 62.9293394,4.4988889 62.7057894,4.4988889 C62.4822393,4.4988889 62.286633,4.47094514 62.0910268,4.38711387 C61.9233642,4.33122636 61.7557017,4.21945133 61.6159829,4.10767631 C61.4762641,3.99590128 61.3924328,3.8561825 61.3086016,3.68851996 C61.2247703,3.52085742 61.1968265,3.35319488 61.1968265,3.18553234 C61.1968265,3.04581356 61.2247703,2.93403854 61.2527141,2.82226351 C61.2806578,2.71048848 61.3644891,2.59871346 61.4203766,2.51488219 C61.5042079,2.40310716 61.5880391,2.31927589 61.6718704,2.23544463 C61.7557017,2.15161336 61.8674767,2.06778209 61.951308,2.01189457 C61.8115892,1.87217579 61.6718704,1.6765695 61.5880391,1.50890696 C61.4483204,1.22946939 61.4483204,0.922088074 61.5880391,0.64265051 C61.6439267,0.502931728 61.7277579,0.391156702 61.8395329,0.307325433 C61.951308,0.223494164 62.0910268,0.139662895 62.2307455,0.0837753817 C62.3984081,0.0278878689 62.5381269,-5.58875128e-05 62.7057894,-5.58875128e-05 C62.8455082,-5.58875128e-05 63.0131707,0.0278878689 63.1528895,0.0558316253 C63.2926083,0.0837753817 63.4043833,0.167606651 63.5161583,0.25143792 C63.6279334,0.335269189 63.7117646,0.447044215 63.7676521,0.558819241 C63.8235397,0.698538023 63.8794272,0.838256805 63.8794272,0.977975587 C63.8794272,1.20152564 63.7955959,1.42507569 63.6558771,1.59273823 C63.4882146,1.78834452 63.320552,1.95600706 63.1249457,2.09572584 L63.9632584,2.96198229 C64.0191459,2.82226351 64.0750335,2.68254473 64.1029772,2.54282595 C64.130921,2.37516341 64.1588647,2.20750087 64.1588647,2.03983833 L64.8295149,2.03983833 C64.8295149,2.31927589 64.8015711,2.5707697 64.7177399,2.82226351 C64.6618523,3.04581356 64.5500773,3.26936361 64.4383023,3.46496991 L65.3325025,4.41505763 L64.2706398,4.44300138 Z" id="Fill-27" fill="#FFFFFF" mask="url(#mask-6)"></path>
                        <polygon id="Fill-28" fill="#FFFFFF" mask="url(#mask-6)" points="4.07973255 61.1410508 4.07973255 61.8675885 1.0338631 61.8675885 1.0338631 57.4801393 4.02384504 57.4801393 4.02384504 58.2349001 1.87217579 58.2349001 1.87217579 59.2964835 3.71646372 59.2964835 3.71646372 59.9950774 1.87217579 59.9950774 1.87217579 61.1410508"></polygon>
                        <polygon id="Fill-29" fill="#FFFFFF" mask="url(#mask-6)" points="7.32123624 59.0731011 7.32123624 61.8674767 6.45497979 61.8674767 6.45497979 57.4803069 7.12562994 57.4803069 9.41701797 60.3585139 9.41701797 57.5082507 10.2553307 57.5082507 10.2553307 61.8674767 9.55673675 61.8674767"></polygon>
                        <polygon id="Fill-30" fill="#FFFFFF" mask="url(#mask-6)" points="16.1794629 58.2347884 14.7822751 58.2347884 14.7822751 61.8674767 13.9160186 61.8674767 13.9160186 58.2347884 12.5188308 58.2347884 12.5188308 57.4803069 16.1794629 57.4803069"></polygon>
                        <polygon id="Fill-31" fill="#FFFFFF" mask="url(#mask-6)" points="21.4887766 61.1410508 21.4887766 61.8675885 18.4429072 61.8675885 18.4429072 57.4801393 21.4328891 57.4801393 21.4328891 58.2349001 19.3091636 58.2349001 19.3091636 59.2964835 21.1534516 59.2964835 21.1534516 59.9950774 19.3091636 59.9950774 19.3091636 61.1410508"></polygon>
                        <path d="M24.7302803,59.6598082 L25.7921431,59.6598082 C25.8759743,59.6598082 25.9318618,59.6318644 26.0156931,59.6042001 C26.0715806,59.5759769 26.1554119,59.5200894 26.1833556,59.4644813 C26.2392432,59.4085938 26.2671869,59.3247625 26.2951307,59.2406518 C26.3230744,59.1568206 26.3510182,59.045325 26.3230744,58.9612143 C26.3230744,58.877383 26.2951307,58.7658874 26.2671869,58.6817767 C26.2392432,58.5979454 26.1833556,58.5141142 26.1274681,58.4582266 C26.0715806,58.4023391 26.0156931,58.3467311 25.9318618,58.3185079 C25.8759743,58.2908435 25.7921431,58.2626204 25.7083118,58.2626204 L24.6743928,58.2626204 L24.7302803,59.6598082 Z M23.8919676,61.8673649 L23.8919676,57.4801952 L25.8200868,57.4801952 C26.0156931,57.4801952 26.2112994,57.5084184 26.3789619,57.619914 C26.5466245,57.7037452 26.6863433,57.8155202 26.826062,57.955239 C26.9378371,58.0949578 27.0496121,58.2626204 27.1054996,58.4305623 C27.1613871,58.5979454 27.2172746,58.7658874 27.2172746,58.9612143 C27.2172746,59.2406518 27.1334434,59.4921456 26.9937246,59.7439189 C26.8540058,59.9674689 26.6583995,60.134852 26.4069057,60.2469065 L27.4128809,61.8953087 L26.4627932,61.8953087 L25.568593,60.4425128 L24.7302803,60.4425128 L24.7302803,61.9235319 L23.8919676,61.9235319 L23.8919676,61.8673649 Z" id="Fill-32" fill="#FFFFFF" mask="url(#mask-6)"></path>
                        <polygon id="Fill-33" fill="#FFFFFF" mask="url(#mask-6)" points="32.9177451 58.2347884 31.5205572 58.2347884 31.5205572 61.8674767 30.6822445 61.8674767 30.6822445 58.2347884 29.2850567 58.2347884 29.2850567 57.4803069 32.9177451 57.4803069"></polygon>
                        <path d="M36.9695897,60.1908513 L36.3548271,58.4583384 L35.7400645,60.1908513 L36.9695897,60.1908513 Z M35.9915583,57.4803069 L36.7460397,57.4803069 L38.4226651,61.8674767 L37.5564086,61.8674767 L37.1372523,60.7776702 L35.6003457,60.7776702 L35.1811893,61.8674767 L34.3149329,61.8674767 L35.9915583,57.4803069 Z" id="Fill-34" fill="#FFFFFF" mask="url(#mask-6)"></path>
                        <polygon id="Fill-35" fill="#FFFFFF" mask="url(#mask-6)" points="40.6302218 61.8674767 41.4967577 61.8674767 41.4967577 57.4803069 40.6302218 57.4803069"></polygon>
                        <polygon id="Fill-36" fill="#FFFFFF" mask="url(#mask-6)" points="44.9613923 59.0731011 44.9613923 61.8674767 44.1230796 61.8674767 44.1230796 57.4803069 44.7937298 57.4803069 47.057174 60.3585139 47.057174 57.5082507 47.9237099 57.5082507 47.9237099 61.8674767 47.225116 61.8674767"></polygon>
                        <polygon id="Fill-37" fill="#FFFFFF" mask="url(#mask-6)" points="54.127168 61.8674767 54.127168 58.961326 53.0094177 61.140939 52.5343738 61.140939 51.4166236 58.961326 51.4166236 61.8674767 50.5500877 61.8674767 50.5500877 57.4803069 51.4725111 57.4803069 52.7579239 59.995245 54.0712804 57.4803069 54.9934244 57.4803069 54.9934244 61.8674767"></polygon>
                        <polygon id="Fill-38" fill="#FFFFFF" mask="url(#mask-6)" points="60.6658393 61.1410508 60.6658393 61.8675885 57.6202493 61.8675885 57.6202493 57.4801393 60.6099518 57.4801393 60.6099518 58.2349001 58.458562 58.2349001 58.458562 59.2964835 60.3025705 59.2964835 60.3025705 59.9950774 58.458562 59.9950774 58.458562 61.1410508"></polygon>
                        <polygon id="Fill-39" fill="#FFFFFF" mask="url(#mask-6)" points="63.9074827 59.0731011 63.9074827 61.8674767 63.06917 61.8674767 63.06917 57.4803069 63.7118764 57.4803069 66.0032644 60.3585139 66.0032644 57.5082507 66.8415771 57.5082507 66.8415771 61.8674767 66.170927 61.8674767"></polygon>
                        <polygon id="Fill-40" fill="#FFFFFF" mask="url(#mask-6)" points="72.7654299 58.2347884 71.3682421 58.2347884 71.3682421 61.8674767 70.5299294 61.8674767 70.5299294 58.2347884 69.1327416 58.2347884 69.1327416 57.4803069 72.7654299 57.4803069"></polygon>
                    </g>
                </g>
            </g>
        </g>
    </g>
</svg>