<?xml version="1.0" encoding="UTF-8"?>
<svg width="114px" height="50px" viewBox="0 0 114 50" version="1.1" xmlns="http://www.w3.org/2000/svg" xmlns:xlink="http://www.w3.org/1999/xlink">
    <!-- Generator: Sketch 45.2 (43514) - http://www.bohemiancoding.com/sketch -->
    <title>bocanegra</title>
    <desc>Created with Sketch.</desc>
    <defs></defs>
    <g id="Design" stroke="none" stroke-width="1" fill="none" fill-rule="evenodd">
        <g id="event" transform="translate(-536.000000, -3507.000000)" fill="#FFFFFF">
            <g id="sponsors" transform="translate(234.000000, 3488.000000)">
                <g id="Group-4" transform="translate(0.081112, 0.355515)">
                    <g id="bocanegra" transform="translate(302.000000, 19.000000)">
                        <polygon id="Fill-1" points="14.4816965 46.6918807 14.4816965 48.6663131 14.4816965 48.6679944 23.5387224 48.6679944 23.5387224 46.6918807 14.4816965 46.6868367"></polygon>
                        <g id="Group-25" transform="translate(0.000000, 0.288066)">
                            <path d="M6.94157408,0.609759439 L1.60091991,0.609759439 L1.60091991,23.0201001 L-5.54930816e-05,23.0201001 L-5.54930816e-05,25.0018183 L1.60091991,25.0018183 L1.60091991,48.38004 L6.94157408,48.38004 C9.02922381,48.38004 10.6551711,46.7351467 10.6551711,44.6278898 L10.6551711,26.9824156 C10.6551711,25.7600945 10.3632775,24.5803669 9.02922381,24.0316955 C10.3632775,23.4415515 10.6551711,22.3032965 10.6551711,21.0809754 L10.6551711,4.40338227 C10.6551711,2.29668583 9.02922381,0.609759439 6.94157408,0.609759439 L6.94157408,0.609759439 Z M8.36053218,44.7534285 C8.36053218,45.6809578 7.60915585,46.3983218 6.73181023,46.3983218 L3.93606878,46.3983218 L3.93606878,25.0018183 L6.73181023,25.0018183 C7.60915585,25.0018183 8.36053218,25.7595341 8.36053218,26.6439094 L8.36053218,44.7534285 Z M8.36053218,21.3757672 C8.36053218,22.2612635 7.60915585,23.0206606 6.73181023,23.0206606 L3.93606878,23.0206606 L3.93606878,2.63351066 L6.73181023,2.63351066 C7.60915585,2.63351066 8.36053218,3.34919339 8.36053218,4.27784356 L8.36053218,21.3757672 Z" id="Fill-2"></path>
                            <path d="M19.030298,0.272318117 C16.5264501,0.272318117 14.4815301,2.33810239 14.4815301,4.86737109 L14.4815301,39.4392741 C14.4815301,41.9691033 16.527005,44.035448 19.030298,44.035448 C21.5341458,44.035448 23.5385559,41.9691033 23.5385559,39.4392741 L23.5385559,4.86793153 C23.5385559,2.33810239 21.5347007,0.272318117 19.030298,0.272318117 L19.030298,0.272318117 Z M21.2433621,39.8198133 C21.2433621,41.0432553 20.2406021,42.0116968 19.0308529,42.0116968 C17.8216586,42.0116968 16.8183437,41.0432553 16.8183437,39.8198133 L16.8183437,4.48795277 C16.8183437,3.26507124 17.8216586,2.25347585 19.0308529,2.25347585 C20.2406021,2.25347585 21.2433621,3.26507124 21.2433621,4.48795277 L21.2433621,39.8198133 Z" id="Fill-5"></path>
                            <path d="M31.9134608,0.272318117 C29.4085031,0.272318117 27.3624732,2.33810239 27.3624732,4.86737109 L27.3624732,44.1649098 C27.3624732,46.6919367 29.4085031,48.7582814 31.9134608,48.7582814 C34.4167537,48.7582814 36.4200539,46.6924971 36.4200539,44.1649098 L36.4200539,35.8608605 L34.1243052,35.8608605 L34.1243052,44.5432072 C34.1243052,45.7660887 33.12321,46.7345302 31.9134608,46.7345302 C30.7014919,46.7345302 29.7003967,45.7660887 29.7003967,44.5432072 L29.7003967,4.48795277 C29.7003967,3.26507124 30.7020468,2.25347585 31.9134608,2.25347585 C33.1237649,2.25347585 34.1243052,3.26507124 34.1243052,4.48795277 L34.1243052,11.526527 L36.4200539,11.526527 L36.4200539,4.86793153 C36.4200539,2.33810239 34.4167537,0.272318117 31.9134608,0.272318117" id="Fill-8"></path>
                            <polygon id="Fill-11" points="66.7478554 23.0205485 65.106925 23.0205485 65.106925 25.0017062 66.7478554 25.0017062 66.7478554 48.3799279 73.7183414 48.3799279 73.7183414 46.5254298 69.0863339 46.5254298 69.0863339 25.0017062 73.5096874 25.0017062 73.5096874 23.0205485 69.0863339 23.0205485 69.0863339 2.63283814 73.7183414 2.63283814 73.7183414 0.610207791 66.7478554 0.610207791"></polygon>
                            <path d="M82.0236025,0.272318117 C79.5186448,0.272318117 77.4742796,2.33810239 77.4742796,4.86737109 L77.4742796,44.1649098 C77.4742796,46.6919367 79.5186448,48.7582814 82.0236025,48.7582814 C84.5280052,48.7582814 86.5290858,46.6924971 86.5290858,44.1649098 L86.5290858,24.8308279 L81.8976332,24.8308279 L81.8976332,26.8551395 L84.1939369,26.8551395 L84.1939369,44.5437677 C84.1939369,45.7666492 83.2350164,46.7350906 82.0230475,46.7350906 C80.7705687,46.7350906 79.8116482,45.7666492 79.8116482,44.5437677 L79.8116482,4.48795277 C79.8116482,3.26507124 80.7705687,2.25347585 82.0230475,2.25347585 C83.2344615,2.25347585 84.1939369,3.26507124 84.1939369,4.48795277 L84.1939369,10.1769859 L86.5290858,10.1769859 L86.5290858,4.86737109 C86.5290858,2.33810239 84.5274503,0.272318117 82.0236025,0.272318117" id="Fill-13"></path>
                            <path d="M100.038266,26.9821914 C100.038266,25.7593099 99.7480372,24.5807032 98.410654,24.0320318 C99.7480372,23.4418878 100.038266,22.3030724 100.038266,21.0813117 L100.038266,4.40259765 C100.038266,2.29702209 98.410654,0.609535262 96.3257789,0.609535262 L90.9823501,0.609535262 L90.9823501,23.0204364 L89.3830395,23.0204364 L89.3830395,25.0015941 L90.9823501,25.0015941 L90.9823501,48.3803763 L93.3197187,48.3803763 L93.3197187,25.0015941 L96.116015,25.0015941 C96.9922508,25.0015941 97.7441821,25.7587495 97.7441821,26.6436853 L97.7441821,46.7354829 C97.7441821,47.4965614 97.8684866,48.0850241 98.3279693,48.3809367 L100.916167,48.3809367 C100.24581,47.5374735 100.038266,46.9893626 100.038266,45.5557554 L100.038266,26.9821914 Z M97.7441821,21.3761035 C97.7441821,22.2615997 96.9922508,23.0215573 96.116015,23.0215573 L93.3197187,23.0215573 L93.3197187,2.63328649 L96.116015,2.63328649 C96.9922508,2.63328649 97.7441821,3.35009009 97.7441821,4.27761939 L97.7441821,21.3761035 Z" id="Fill-16"></path>
                            <path d="M45.8988827,0.628870465 L44.7357477,0.628870465 L43.562624,0.628870465 L42.3978242,0.628870465 L41.1153791,23.2079038 L39.6176208,23.2079038 L38.0183102,23.2079038 L38.0183102,25.1744901 L39.6176208,25.1744901 L40.955559,25.1744901 L39.6209504,48.3806565 L41.9588739,48.3806565 L43.2918177,25.1744901 L45.005999,25.1744901 L46.3389428,48.3806565 L48.6774213,48.3806565 L45.8988827,0.628870465 Z M43.4538575,23.2073434 L44.1491858,7.7705658 L44.8472888,23.2073434 L43.4538575,23.2073434 Z" id="Fill-18"></path>
                            <path d="M110.978117,0.628870465 L109.816092,0.628870465 L108.640193,0.628870465 L107.477613,0.628870465 L106.195723,23.2079038 L104.69519,23.2079038 L103.098654,23.2079038 L103.098654,25.1744901 L104.69519,25.1744901 L106.033128,25.1744901 L104.699629,48.3806565 L107.035888,48.3806565 L108.370497,25.1744901 L110.084678,25.1744901 L111.418177,48.3806565 L113.755545,48.3806565 L110.978117,0.628870465 Z M108.532537,23.2073434 L109.227865,7.7705658 L109.922083,23.2073434 L108.532537,23.2073434 Z" id="Fill-20"></path>
                            <polygon id="Fill-23" points="59.5424117 36.6437961 55.1617879 0.609703395 55.1579034 0.609703395 52.8271939 0.609703395 52.8227545 0.609703395 52.8227545 48.379984 55.1579034 48.379984 55.1579034 19.3497182 59.5424117 48.379984 61.8792254 48.379984 61.8792254 0.609703395 59.5424117 0.609703395"></polygon>
                        </g>
                    </g>
                </g>
            </g>
        </g>
    </g>
</svg>